<svg width="93" height="139" viewBox="0 0 93 139" fill="none" xmlns="http://www.w3.org/2000/svg">
<path d="M39.0017 112.428L40.7278 113.255L42.3419 113.63L41.5917 114.625L39.2657 116.669L37.1269 117.682L36.375 117.57L37.6372 116.44L38.645 114.399L38.8002 112.635L39.0017 112.428Z" fill="#344966"/>
<path d="M31.1251 103.204L33.5343 106.098L31.7586 109.334L30.3221 110.136L26.4668 109.918L25.0286 108.944L22.5459 106.949L24.152 107.083L28.2105 108.165L29.8838 107.447L30.7908 104.799L31.1251 103.204Z" fill="#344966"/>
<path d="M17.9365 58.2057C17.9365 58.2057 14.4508 51.0118 11.7441 47.7468C9.03735 44.4834 6.49062 43.21 6.09229 36.6032C5.69396 29.9964 6.64899 15.1911 6.64899 12.1676C6.64899 9.14419 10.4691 4.76579 10.3907 11.7693C10.3123 18.7728 10.7091 24.9029 10.7091 24.9029C12.6191 19.0928 17.5446 7.27253 20.4145 2.29744C23.2844 -2.67766 24.161 5.52085 22.8077 9.97924C21.4543 14.436 18.9875 21.7595 18.9875 23.1928C23.7627 18.0194 27.4772 12.1836 28.0611 9.97924C28.5106 8.28195 30.9262 9.42254 30.6878 12.3676C30.4495 15.3127 23.6043 29.4765 23.6043 29.4765C26.7093 26.5346 30.4495 21.9979 32.0412 20.0078C33.6329 18.0178 36.2596 26.845 35.3846 29.4765C34.5095 32.1064 29.8928 38.2365 28.7778 39.3499C33.3945 35.7682 35.3046 34.1764 36.8963 34.0165C38.488 33.8565 40.9212 42.7909 38.552 45.5264C37.4706 46.7742 34.5815 49.4969 32.4795 49.788C37.325 49.788 38.8527 49.7176 39.3838 50.4887C40.3309 51.8644 41.0028 54.2832 41.3531 55.2766C41.7034 56.2684 43.5063 59.1575 42.3961 59.1479C43.1544 60.714 41.1467 60.4469 41.1467 60.4469L36.474 64.8557L20.2369 60.3589L17.9349 58.2057H17.9365Z" fill="#344966"/>
<path d="M36.476 65.5758C36.412 65.5758 36.3465 65.5678 36.2841 65.5502L20.047 61.0534C19.935 61.023 19.8327 60.9654 19.7463 60.8855L17.4443 58.7322C17.3803 58.6715 17.3259 58.5995 17.2875 58.5195C17.2523 58.4475 13.8081 51.3656 11.1894 48.2078C10.6823 47.5967 10.1768 47.0528 9.6873 46.5265C7.55328 44.2277 5.71042 42.244 5.37288 36.6483C5.09453 32.0219 5.47526 23.3659 5.72801 17.6373C5.83999 15.089 5.92958 13.0781 5.92958 12.1695C5.92958 10.4162 7.01578 8.255 8.25556 7.54633C8.81225 7.22799 9.38495 7.20879 9.86646 7.49354C10.7319 8.00225 11.1382 9.40359 11.111 11.7808C11.0694 15.3897 11.1574 18.7875 11.2518 21.2159C13.6082 14.9034 17.4507 5.99781 19.7911 1.94095C20.7093 0.350838 21.6371 -0.255452 22.5474 0.141276C23.6976 0.640385 24.0415 2.69921 24.1263 4.33891C24.2319 6.35615 23.9967 8.54455 23.496 10.1923C23.1473 11.3392 22.7329 12.6542 22.293 14.0476C21.5987 16.2488 20.8005 18.7731 20.2774 20.6416C23.9727 16.2616 26.8682 11.664 27.3625 9.79872C27.6088 8.87089 28.3543 8.34779 29.2198 8.49656C30.4163 8.70292 31.5889 10.1507 31.4034 12.4302C31.2354 14.5099 28.1863 21.3822 26.1051 25.871C28.4791 23.2715 30.6771 20.5632 31.4753 19.5634C31.9281 18.9971 32.5855 18.8483 33.1886 19.1762C34.4684 19.8721 35.3418 22.7404 35.657 23.9402C35.8985 24.8568 36.6392 27.9794 36.0649 29.7087C35.6106 31.0749 34.2124 33.3193 32.7775 35.3701C34.5676 34.0615 35.721 33.4152 36.8216 33.3049C37.8502 33.2057 38.4949 34.4486 38.7076 34.8582C39.9842 37.3201 41.2768 43.4854 39.0932 46.0034C38.5077 46.68 37.1751 48.0254 35.6794 49.0748C38.4117 49.0988 39.3987 49.2492 39.9746 50.0842C40.8033 51.2872 41.4063 53.1365 41.8047 54.3618C41.8911 54.6274 41.9662 54.8593 42.0318 55.0417C42.1086 55.2593 42.2942 55.6368 42.4893 56.0367C43.2876 57.6652 43.7403 58.705 43.3004 59.4009C43.286 59.4233 43.2716 59.4441 43.2572 59.4649C43.35 59.9656 43.2076 60.3192 43.0428 60.5479C42.6349 61.111 41.8767 61.1974 41.4111 61.191L36.9655 65.3838C36.8296 65.5118 36.652 65.5806 36.4712 65.5806L36.476 65.5758ZM20.6021 59.7113L36.2761 64.0529L40.6529 59.9224C40.8112 59.7737 41.0272 59.7033 41.2432 59.7321C41.4447 59.7577 41.7055 59.7417 41.8383 59.7001C41.8271 59.6505 41.8031 59.5737 41.7487 59.4617C41.6399 59.2377 41.6543 58.9722 41.7887 58.7626C41.8447 58.6747 41.9182 58.5995 42.003 58.5451C41.8831 58.0668 41.4319 57.1485 41.1968 56.667C40.9728 56.2095 40.7793 55.8144 40.6737 55.5168C40.6065 55.3249 40.5265 55.0817 40.4369 54.8034C40.0642 53.658 39.4995 51.9287 38.7908 50.8969C38.5173 50.5001 36.6696 50.5033 33.6094 50.5065H32.48C32.1008 50.5065 31.7873 50.2138 31.7617 49.8363C31.7361 49.4587 32.0064 49.1244 32.3824 49.0732C34.2236 48.8172 36.9671 46.2545 38.0086 45.0531C38.8788 44.0501 39.0676 41.577 38.4901 38.7535C37.9958 36.3379 37.2215 34.9734 36.8936 34.7414C35.6538 34.9126 33.8733 36.2995 30.3939 39.0062C30.0228 39.2942 29.6325 39.5981 29.2214 39.9181C28.9206 40.1516 28.4903 40.1116 28.2391 39.8253C27.988 39.5405 28.0008 39.1086 28.2695 38.8383C29.3573 37.7505 33.8893 31.6876 34.702 29.2464C34.9947 28.3666 34.8027 26.2837 34.2364 24.1817C33.6094 21.8557 32.8991 20.7487 32.5823 20.4848C31.4018 21.9597 27.4217 26.8516 24.1007 29.9967C23.8479 30.2366 23.4608 30.2606 23.1792 30.0558C22.8977 29.8511 22.8049 29.4736 22.9553 29.16C24.8429 25.2535 29.7828 14.6107 29.97 12.3055C30.0948 10.7729 29.3733 9.97629 28.9782 9.9091C28.9238 9.8995 28.831 9.88351 28.7574 10.1603C27.9768 13.1037 23.3488 19.525 19.5159 23.6778C19.3143 23.8954 18.9992 23.9674 18.7241 23.8602C18.4473 23.7514 18.2665 23.4858 18.2665 23.1883C18.2665 22.0941 19.3175 18.6835 20.9205 13.606C21.3588 12.2175 21.7731 10.9057 22.1186 9.76513C22.557 8.31899 22.7777 6.29696 22.6929 4.48929C22.6018 2.53924 22.205 1.645 22.0003 1.47383C21.9059 1.51703 21.5779 1.72339 21.0404 2.65442C18.2633 7.46795 13.333 19.229 11.3958 25.1239C11.2886 25.4519 10.9655 25.6582 10.6199 25.6135C10.2776 25.5703 10.0136 25.2903 9.99124 24.9448C9.98804 24.884 9.59291 18.7075 9.6713 11.7568C9.70169 9.08845 9.1402 8.73012 9.1338 8.72692C9.113 8.72852 8.96583 8.75731 8.73387 8.96687C8.07479 9.56037 7.37092 10.9857 7.37092 12.1615C7.37092 13.1021 7.28133 15.1274 7.16935 17.6933C6.9182 23.3915 6.53907 32.0043 6.81262 36.5555C7.11816 41.6345 8.71947 43.3574 10.7447 45.5394C11.247 46.0801 11.7669 46.64 12.2996 47.2815C14.8688 50.3802 18.0394 56.771 18.5257 57.7644L20.6021 59.7049V59.7113Z" fill="#344966"/>
<path d="M63.2184 74.0384C76.7967 76.7851 82.4869 62.8948 82.3333 62.0438C82.1782 61.1927 75.5234 58.638 73.8981 58.4844C78.3085 58.5612 83.1844 58.2525 84.5777 56.24C85.9711 54.2276 81.9462 52.1384 72.2728 53.2214C82.4101 49.894 86.1295 48.4351 86.1742 46.9265C86.219 45.418 87.758 41.6795 88.0475 37.0883C89.1001 35.8069 87.3628 31.3758 85.1216 32.4732C82.8804 33.5706 76.7504 36.5444 74.0069 36.5892C82.6069 30.5519 91.023 24.3306 92.3491 21.2656C93.6753 18.2005 92.1668 17.8342 89.9256 19.0708C87.6844 20.3058 78.75 26.5894 79.2107 25.4824C81.148 22.6685 86.4046 14.9211 87.4652 11.0946C88.5258 7.26653 87.8795 5.19171 87.0045 5.00774C86.1279 4.82377 86.2206 6.52906 84.9761 8.74306C83.7315 10.9571 73.7701 26.2215 68.4671 27.1429C71.1882 22.4398 75.3378 16.2137 73.5861 12.8463C73.3094 12.432 72.6183 13.3534 72.2488 14.2301C71.8792 15.1067 68.8174 22.2334 63.2984 28.5187C57.7794 34.8055 53.7801 38.8464 52.4252 41.6987C51.0702 44.551 44.393 61.6071 35.9786 63.6035L37.9686 62.7061C37.9686 62.7061 33.2974 59.9754 23.8352 58.4764C14.3713 56.9775 10.4792 61.1863 9.05704 64.8913C3.17171 68.1963 1.67438 71.602 3.09492 71.5669C3.09492 71.5669 6.67827 70.8854 12.5908 68.6426C12.5908 68.6426 6.75986 74.2256 6.67827 74.955C6.59669 75.6861 13.0915 70.9766 15.3647 71.4645C17.6379 71.9508 17.5563 73.2497 16.6637 77.6345C15.771 82.0194 32.7024 106.428 38.3173 111.433C41.8575 114.852 43.9995 112.907 44.1499 112.457C44.0747 116.498 43.9995 118.443 44.1499 119.117C44.3002 119.79 45.2729 121.959 45.7208 121.511C46.1687 121.063 46.2439 119.865 46.2439 118.669C47.0661 120.838 46.6182 123.084 47.3669 125.253C48.1156 127.422 49.4625 129.294 50.2096 129.967C50.9582 130.641 51.7805 130.267 51.0318 125.853C52.2284 129.07 52.0796 131.39 52.8283 131.988C53.577 132.586 55.671 134.531 54.9239 130.641C56.57 133.036 56.3461 133.709 57.3923 134.383C58.4401 135.056 62.0314 134.008 59.7119 129.894C57.3923 125.779 55.447 121.739 55.447 121.739C55.447 121.739 55.8965 122.711 56.7188 122.636C57.541 122.561 57.6162 120.392 55.447 117.024C53.2778 113.657 49.1618 106.175 47.89 91.7344C47.8468 90.7842 49.8368 91.2897 50.4863 90.7218C51.1358 90.1539 60.0142 86.385 60.0142 86.385C60.0142 86.385 70.9578 79.9973 63.22 74.0384H63.2184Z" fill="#C3E0C7"/>
<path d="M3.03101 72.277C2.46151 72.277 2.02159 71.9603 1.87922 71.4436C1.49529 70.0454 3.66449 67.1116 8.43643 64.3792C9.78658 61.0838 13.5587 56.1167 23.904 57.7532C33.3919 59.2554 38.0934 61.9573 38.2886 62.0725C38.6325 62.274 38.7477 62.7155 38.5478 63.0579C38.3462 63.4018 37.9047 63.517 37.5623 63.317C37.5176 63.2914 32.8688 60.6327 23.6801 59.177C19.5592 58.5243 12.2629 58.4315 9.6874 65.1391C9.62661 65.2959 9.51463 65.4271 9.36746 65.5086C5.31859 67.7818 3.72208 69.895 3.35895 70.7525C4.48034 70.4997 7.68296 69.7047 12.2933 67.9562C12.6645 67.8154 13.082 68.0026 13.2228 68.3753C13.3635 68.748 13.1764 69.164 12.8036 69.3047C6.89911 71.5443 3.33655 72.2354 3.18778 72.2626C3.14939 72.2706 3.11099 72.2738 3.071 72.2754C3.0582 72.2754 3.04541 72.2754 3.03261 72.2754L3.03101 72.277Z" fill="#344966"/>
<path d="M58.1391 135.278C57.6832 135.278 57.2656 135.173 56.9585 134.974C56.2082 134.491 55.9507 133.978 55.5923 133.264C55.5683 133.216 55.5443 133.168 55.5187 133.117C55.4164 133.293 55.2788 133.44 55.0948 133.549C54.2102 134.075 53.1736 133.224 52.4873 132.659C52.4313 132.613 52.3801 132.571 52.3337 132.535C51.8554 132.152 51.657 131.525 51.4667 130.621C51.3867 130.697 51.3035 130.754 51.2171 130.801C50.9964 130.922 50.4029 131.135 49.683 130.487C48.76 129.657 47.3794 127.617 46.6404 125.472C46.2468 124.331 46.1604 123.197 46.0773 122.1C45.8469 122.269 45.5558 122.322 45.2742 122.241C44.1768 121.921 43.4057 119.286 43.4009 119.26C43.2586 118.622 43.2858 117.294 43.345 114.384C43.3482 114.229 43.3514 114.069 43.3546 113.904C43.233 113.949 43.1066 113.989 42.9722 114.023C41.8652 114.295 40.0688 114.154 37.7812 111.951C35.0313 109.494 29.4083 102.239 24.4028 94.6887C20.9762 89.5184 15.3148 80.4081 15.9115 77.4806C16.8826 72.7167 16.585 72.4623 15.1677 72.16C14.0367 71.9184 10.8869 73.6685 9.19436 74.6092C7.28751 75.6698 6.774 75.9545 6.25569 75.6106C6.01254 75.449 5.88296 75.1643 5.91496 74.8667C5.94535 74.5964 6.02534 73.8765 12.045 68.1127C12.333 67.8376 12.7889 67.8472 13.0641 68.1351C13.3392 68.4231 13.3296 68.879 13.0417 69.1541C11.7123 70.4275 10.3174 71.8129 9.23595 72.9391C11.8291 71.5185 14.0639 70.4499 15.4684 70.7507C18.6151 71.4241 18.1287 73.8125 17.3225 77.7686C17.0617 79.0499 19.0742 84.0426 25.6026 93.8921C30.5537 101.363 36.0839 108.509 38.749 110.884C38.7554 110.891 38.7634 110.897 38.7698 110.903C40.4399 112.516 41.6541 112.754 42.3787 112.668C43.0074 112.594 43.3626 112.266 43.4377 112.166C43.5673 111.86 43.8921 111.679 44.2232 111.737C44.5735 111.798 44.8279 112.105 44.8215 112.46C44.8087 113.177 44.7943 113.826 44.7831 114.415C44.7319 116.949 44.6999 118.48 44.8039 118.948C44.8759 119.27 45.1318 119.871 45.3782 120.329C45.4326 119.979 45.4742 119.452 45.4742 118.656C45.4742 118.308 45.7221 118.009 46.0645 117.947C46.4068 117.884 46.7443 118.075 46.8691 118.4C47.3298 119.614 47.4226 120.823 47.5106 121.993C47.5906 123.045 47.6658 124.04 47.9985 125.005C48.6592 126.92 49.8206 128.601 50.5181 129.298C50.582 128.879 50.6092 127.942 50.2733 125.958C50.2109 125.592 50.4381 125.238 50.798 125.142C51.1563 125.046 51.5307 125.238 51.6602 125.587C52.2649 127.211 52.5401 128.633 52.7433 129.67C52.8824 130.381 53.0536 131.269 53.2312 131.41C53.2808 131.45 53.3383 131.496 53.3975 131.546C53.5655 131.684 54.0102 132.048 54.3046 132.202C54.3254 131.988 54.3206 131.56 54.167 130.762C54.103 130.428 54.2822 130.093 54.5973 129.961C54.9125 129.83 55.2756 129.937 55.4692 130.217C56.2242 131.316 56.6018 132.068 56.8769 132.616C57.1952 133.253 57.3152 133.49 57.7343 133.76C57.9423 133.894 58.7422 133.893 59.2781 133.387C59.9259 132.776 59.8396 131.655 59.0365 130.229C56.8689 126.384 55.0036 122.557 54.7733 122.082C54.7637 122.061 54.7541 122.042 54.7445 122.023C54.5781 121.663 54.7333 121.237 55.0916 121.07C55.45 120.9 55.8771 121.052 56.0482 121.409C56.0482 121.409 56.0515 121.417 56.0579 121.428C56.1026 121.517 56.2738 121.788 56.4674 121.874C56.5698 121.388 56.365 119.836 54.7925 117.398C50.6316 110.943 48.0513 102.324 47.1235 91.782C47.0883 91.3853 47.381 91.035 47.7778 91.0014C48.1777 90.9678 48.5248 91.2605 48.5584 91.6557C49.4654 101.963 51.9706 110.361 56.0035 116.618C57.6352 119.15 58.2926 121.45 57.7215 122.621C57.5584 122.956 57.2944 123.189 56.9777 123.288C57.7647 124.848 58.9709 127.182 60.2891 129.522C61.8552 132.299 60.945 133.794 60.2635 134.435C59.6508 135.014 58.8445 135.275 58.1311 135.275L58.1391 135.278Z" fill="#344966"/>
<path d="M48.4707 91.7422C46.0376 91.7422 44.9769 90.6608 44.5162 89.6674C43.3612 87.1783 43.1213 81.5649 43.1117 81.3281C43.0957 80.9298 43.4044 80.5954 43.8028 80.5794C44.2027 80.5634 44.5354 80.8722 44.553 81.2705C44.5546 81.3265 44.7914 86.8343 45.8248 89.0627C46.4343 90.3777 48.2611 90.4129 49.6849 90.2097C55.6038 89.3698 64.7798 83.195 65.4964 78.543C65.7476 76.9081 64.8885 75.6427 62.8681 74.6765C62.5338 74.5165 62.3754 74.1278 62.5018 73.7791C62.6281 73.4303 63.0009 73.2352 63.3592 73.328C67.4865 74.3982 71.2778 73.7567 74.6308 71.4227C79.03 68.3577 81.2344 63.4018 81.5415 62.2244C80.5625 61.4213 75.2786 59.3305 73.7893 59.1897C73.4038 59.1529 73.1158 58.8186 73.1382 58.4315C73.159 58.0491 73.4758 57.7516 73.8581 57.7516C73.8629 57.7516 73.8661 57.7516 73.8709 57.7516C79.5979 57.8524 82.9876 57.2013 83.9443 55.8175C84.1426 55.5312 84.0946 55.3664 84.0147 55.232C83.426 54.2466 79.8234 53.0852 72.3128 53.9267C71.9481 53.9667 71.6089 53.7251 71.5289 53.3652C71.4489 53.0053 71.6553 52.6437 72.004 52.5269L72.1768 52.4693C77.9742 50.5289 79.5323 50.009 83.1972 48.3277C85.3872 47.3231 87.1197 42.3032 87.4684 38.2271C87.742 35.0341 87.1533 33.4296 86.5662 33.0281C86.4638 32.9577 86.1503 32.7433 85.3984 33.1097C81.7543 34.8869 76.608 37.2561 73.9797 37.2993H73.9669C73.6549 37.2993 73.3782 37.0993 73.2822 36.8018C73.1846 36.501 73.295 36.1715 73.5542 35.9891C75.6258 34.535 77.6142 33.188 79.3691 32.0011C84.6849 28.4033 88.8826 25.5606 89.8072 23.425C90.751 21.2462 90.4663 18.8514 90.0632 18.6307C90.0648 18.6355 89.8696 18.6499 89.4665 19.0626C88.5242 20.0304 86.0559 21.9501 84.0275 23.4234C82.8661 24.2665 81.8343 24.9767 81.0456 25.4758C79.7594 26.2885 79.2507 26.5061 78.7772 26.1941C78.5085 26.0165 78.3197 25.639 78.5053 25.1959C78.5245 25.1495 78.5485 25.1063 78.5772 25.0647C84.4242 16.5735 86.2383 12.6718 86.731 10.8929C87.5788 7.83425 87.2045 6.25693 86.9181 5.81861C86.8334 6.00898 86.7326 6.30332 86.6462 6.55448C86.4222 7.20716 86.1167 8.1014 85.5632 9.08682C84.9889 10.109 82.199 14.5002 78.7692 18.8626C74.4148 24.3992 70.977 27.4211 68.5487 27.8434C68.2735 27.8914 67.9952 27.7762 67.8336 27.5459C67.6736 27.3171 67.6608 27.0148 67.8 26.7732C68.1056 26.2453 68.4287 25.6998 68.7598 25.1399C71.001 21.347 73.7445 16.7078 73.167 13.9211C73.0678 14.0859 72.9623 14.2827 72.8711 14.5018C72.3112 15.8328 69.2381 22.7899 63.7975 28.9872C62.4858 30.4813 61.2364 31.8747 60.1342 33.1033C56.586 37.0609 54.0217 39.9212 53.0331 42.0008C52.9163 42.2472 52.7499 42.6167 52.5388 43.0854C50.2896 48.0845 43.446 63.2946 35.4363 65.195C35.0491 65.2878 34.6604 65.0479 34.5692 64.6607C34.4781 64.2736 34.7164 63.8849 35.1035 63.7937C38.1814 63.0626 41.5216 59.8968 45.0281 54.3826C47.9236 49.8298 50.1536 44.8755 51.2238 42.4952C51.4382 42.02 51.6061 41.6441 51.7309 41.3834C52.8091 39.1134 55.431 36.1891 59.0608 32.1418C60.1598 30.9149 61.406 29.5263 62.7129 28.037C68.0064 22.0077 70.9946 15.2393 71.5401 13.9435C71.7209 13.5132 72.3816 12.1055 73.279 12.0207C73.6213 11.9887 73.9445 12.1439 74.1413 12.4398C74.1556 12.4606 74.1684 12.483 74.1812 12.507C75.8897 15.7896 72.8903 20.9807 70.1532 25.6134C75.1891 22.382 82.8805 10.9137 84.3042 8.38295C84.7937 7.5143 85.0641 6.72405 85.28 6.09056C85.6064 5.13714 85.9759 4.05733 87.1101 4.29569C87.4029 4.35648 87.822 4.54684 88.1611 5.10354C88.889 6.30172 88.8746 8.55252 88.1179 11.28C87.3197 14.1627 84.2594 19.1794 81.3463 23.5466C83.7347 21.9149 87.2733 19.2498 88.4315 18.0596C89.5864 16.8726 90.4519 17.159 90.8646 17.4357C91.7445 18.026 91.882 19.4705 91.8852 20.28C91.89 21.5198 91.6149 22.8747 91.127 23.9993C90.036 26.5205 86.1119 29.176 80.1738 33.196C79.3467 33.7559 78.4685 34.3494 77.555 34.9749C79.4235 34.3014 81.8327 33.2472 84.7649 31.8171C86.0111 31.2092 86.8749 31.4956 87.3804 31.8411C89.0905 33.0137 89.0681 36.4243 88.9034 38.3535C88.5162 42.8679 86.595 48.3565 83.7971 49.6411C81.3607 50.7593 79.8442 51.3719 77.4607 52.2054C81.5511 52.2534 84.3906 53.0548 85.2512 54.4978C85.6528 55.1697 85.608 55.9519 85.1297 56.643C84.181 58.0123 81.9782 58.8138 78.3069 59.0937C78.5085 59.1721 78.7068 59.2505 78.8972 59.3273C82.8213 60.9174 82.9397 61.5605 83.002 61.9076C83.1588 62.7715 81.1656 67.5386 77.3823 71.0516C74.3732 73.8463 70.8762 75.2716 67.1089 75.2716C66.7362 75.2716 66.3603 75.2572 65.9827 75.23C66.9698 76.4426 67.0801 77.7384 66.9218 78.7686C66.5346 81.2865 64.1559 84.2732 60.3965 86.9623C56.9652 89.4162 52.9387 91.2095 49.8897 91.6414C49.3729 91.715 48.901 91.7486 48.4739 91.7486L48.4707 91.7422Z" fill="#344966"/>
<path d="M19.4486 106.231C19.3766 106.231 19.3046 106.22 19.2326 106.197C14.2799 104.649 5.72627 102.461 3.85621 103.184C1.92536 103.931 1.53983 104.502 1.46304 104.713C1.43424 104.791 1.42145 104.887 1.51423 105.055C1.7078 105.404 1.58142 105.842 1.23428 106.036C0.885544 106.229 0.447224 106.103 0.253659 105.756C-0.0246903 105.257 -0.0742813 104.726 0.106486 104.223C0.431227 103.324 1.45824 102.568 3.3347 101.841C6.28616 100.698 18.3016 104.398 19.6629 104.823C20.0437 104.942 20.2548 105.346 20.1365 105.726C20.0405 106.034 19.7557 106.231 19.4486 106.231Z" fill="#344966"/>
<path d="M11.8709 113.098C11.7718 113.098 11.671 113.094 11.5654 113.082C11.1703 113.041 10.8823 112.686 10.9239 112.291C10.9655 111.894 11.3206 111.608 11.7158 111.649C12.578 111.74 13.0003 110.984 13.565 109.36C13.6018 109.253 13.6386 109.15 13.6738 109.05C13.7122 108.941 13.7506 108.822 13.7922 108.696C14.2337 107.33 15.056 104.79 19.4488 104.79C19.8471 104.79 20.1686 105.113 20.1686 105.509C20.1686 105.906 19.8455 106.229 19.4488 106.229C16.1054 106.229 15.5839 107.842 15.1647 109.139C15.12 109.28 15.0768 109.413 15.0336 109.534C15 109.63 14.9648 109.729 14.9296 109.832C14.4993 111.068 13.7954 113.098 11.8725 113.098H11.8709Z" fill="#344966"/>
<path d="M4.10917 111.077C3.9444 111.077 3.77963 111.021 3.64366 110.905C3.15575 110.493 2.91579 109.938 2.96538 109.339C3.02137 108.675 3.46929 107.658 5.28816 106.577C7.58374 105.214 13.3571 104.545 17.6251 104.607C18.5817 104.622 19.4712 104.753 20.3062 104.951C20.3158 104.953 20.3254 104.956 20.335 104.958C21.6836 105.281 22.8882 105.78 24.0016 106.239C25.4637 106.844 26.8458 107.415 28.2264 107.442C28.6887 107.455 29.0374 107.309 29.319 106.997C30.2468 105.965 30.1636 103.46 30.0533 102.582C30.0133 102.259 30.194 101.949 30.4948 101.825C30.7955 101.702 31.1427 101.795 31.341 102.053L34.1085 105.657C34.2669 105.863 34.3021 106.137 34.2013 106.375C33.9741 106.913 32.7888 109.635 31.7074 110.381C30.3636 111.307 26.5051 111.101 24.0831 109.547C22.9777 108.839 22.5906 108.277 22.2787 107.826C21.9251 107.314 21.6692 106.943 19.9447 106.343C19.2104 106.17 18.4378 106.06 17.6075 106.047C12.8964 105.98 7.8125 106.756 6.02722 107.815C4.87543 108.499 4.43391 109.112 4.40512 109.458C4.39712 109.549 4.41152 109.662 4.57789 109.803C4.88183 110.061 4.92023 110.515 4.66267 110.819C4.5203 110.987 4.31714 111.075 4.11237 111.075L4.10917 111.077ZM24.2543 107.903C24.4159 108.036 24.6126 108.179 24.859 108.336C27.1482 109.803 30.306 109.597 30.8883 109.197C31.3746 108.861 32.1857 107.356 32.7056 106.199L31.5266 104.663C31.4178 106.133 31.0371 107.242 30.3908 107.96C29.8325 108.581 29.071 108.895 28.1976 108.883C26.8266 108.856 25.5565 108.423 24.2559 107.901L24.2543 107.903Z" fill="#344966"/>
<path d="M27.4711 138.023C27.0536 138.023 26.7753 137.823 26.6281 137.679C26.1194 137.18 25.9914 136.23 26.2154 134.6C26.4041 133.224 26.7976 131.74 27.0152 130.978C27.4663 129.396 27.8263 126.797 28.0886 124.898C28.239 123.807 28.3478 123.018 28.4406 122.647C28.7109 121.564 31.6864 119.347 34.2747 117.726C34.3147 117.694 34.3595 117.665 34.4091 117.643C35.2521 117.118 36.0472 116.662 36.6871 116.333C37.7253 115.8 37.994 113.061 37.9604 111.819C37.9524 111.516 38.1348 111.241 38.4163 111.129C38.6979 111.017 39.0194 111.094 39.2194 111.319C39.2258 111.326 39.9841 112.161 40.8431 112.391C41.8077 112.65 42.5916 112.641 42.5996 112.641H42.6108C42.8523 112.641 43.0795 112.762 43.2139 112.964C43.3498 113.17 43.3722 113.429 43.2715 113.655C43.2395 113.727 42.4684 115.419 40.5887 116.842C38.1956 118.652 36.9942 118.71 36.028 118.758C35.6408 118.777 35.3577 118.792 35.0394 118.937C32.4654 120.551 30.0963 122.45 29.8339 123.013C29.7603 123.325 29.6467 124.146 29.5156 125.093C29.2468 127.035 28.8805 129.694 28.4006 131.372C27.5943 134.194 27.4503 135.992 27.5991 136.54C28.8437 136.148 29.2484 135.845 29.2532 135.841L29.2372 135.854L30.173 136.95C30.0803 137.03 29.5316 137.454 27.919 137.95C27.7543 138.001 27.6055 138.022 27.4695 138.022L27.4711 138.023ZM39.3474 113.276C39.253 114.293 39.0114 115.611 38.4147 116.574C38.7923 116.355 39.2226 116.067 39.7201 115.693C40.4848 115.114 41.0335 114.48 41.3966 113.98C41.1166 113.935 40.8031 113.873 40.472 113.785C40.0608 113.674 39.6785 113.484 39.3474 113.276Z" fill="#344966"/>
<path d="M31.6436 136.704C31.2725 136.704 30.9253 136.585 30.6262 136.352C29.8759 135.769 29.4664 134.482 29.3768 132.416C29.268 129.903 28.6058 124.044 28.5994 123.984C28.5546 123.589 28.8393 123.233 29.2344 123.188C29.6296 123.143 29.9863 123.428 30.0311 123.823C30.0583 124.066 30.7046 129.791 30.8166 132.354C30.9141 134.582 31.3717 135.106 31.5092 135.213C31.5556 135.248 31.6068 135.277 31.7332 135.251C32.2835 135.136 32.4835 135.058 32.5554 135.016C32.5554 135.008 32.5586 134.997 32.5602 134.986C32.605 134.59 32.9618 134.306 33.3553 134.349C33.7504 134.392 34.0368 134.749 33.992 135.144C33.8656 136.277 32.8898 136.481 32.0291 136.662C31.898 136.689 31.7684 136.704 31.642 136.704H31.6436Z" fill="#344966"/>
<path d="M34.5488 132.713C34.0513 132.713 33.5202 132.537 32.9683 132.353C32.8515 132.314 32.7315 132.274 32.6099 132.236C32.0356 132.053 31.3142 131.359 29.9336 127.547C29.209 125.547 28.6283 123.569 28.6219 123.549C28.5435 123.282 28.6267 122.994 28.833 122.809C29.041 122.623 29.3369 122.574 29.5929 122.682C29.6105 122.69 31.5781 123.493 33.9073 123.189C34.9023 123.06 35.7038 122.666 36.4093 122.319C37.3659 121.849 38.5545 121.265 39.3847 122.426C39.6167 122.75 39.5415 123.201 39.2167 123.431C38.8936 123.663 38.4425 123.588 38.2121 123.263C38.1689 123.202 38.1433 123.188 38.1433 123.188C37.9946 123.145 37.4235 123.426 37.0443 123.612C36.2781 123.989 35.3231 124.458 34.0929 124.618C32.6371 124.808 31.3206 124.632 30.3943 124.423C31.343 127.426 32.5332 130.449 33.0867 130.873C33.2002 130.91 33.3122 130.946 33.421 130.983C33.8209 131.116 34.4912 131.338 34.6496 131.254C34.6592 131.249 34.7088 131.191 34.7552 131.023C34.8607 130.639 35.2559 130.412 35.6398 130.518C36.0237 130.622 36.2509 131.018 36.1453 131.402C35.9997 131.935 35.7262 132.313 35.3311 132.524C35.0815 132.657 34.8191 132.711 34.5472 132.711L34.5488 132.713Z" fill="#344966"/>
<path d="M19.7816 63.5152C19.6008 63.5152 19.4232 63.424 19.3208 63.2592C18.1147 61.3076 15.4559 62.3106 15.344 62.3554C15.0656 62.4642 14.7521 62.325 14.6449 62.0482C14.5361 61.7699 14.6721 61.4579 14.9504 61.3492C16.1918 60.8612 18.8953 60.5125 20.2423 62.6929C20.399 62.9473 20.3207 63.28 20.0663 63.4368C19.9783 63.4912 19.8791 63.5168 19.7832 63.5168L19.7816 63.5152Z" fill="#344966"/>
<path d="M15.1917 65.8267C16.0123 65.3116 16.5562 65.5212 16.8938 66.513C17.0825 67.0681 17.6856 66.7049 17.9032 66.0523C18.0488 65.6139 17.964 64.9757 17.668 64.6493C16.9386 63.8447 16.0587 63.8255 15.3469 64.5261C14.627 65.2332 14.4462 66.2954 15.1933 65.8251L15.1917 65.8267Z" fill="#344966"/>
<path d="M59.1585 71.6866C59.1041 71.6866 59.0481 71.6722 58.9969 71.6434L58.8593 71.5634C58.7058 71.4755 58.653 71.2803 58.7426 71.1267C58.8321 70.9731 59.0257 70.9204 59.1793 71.0099L59.32 71.0915C59.472 71.1811 59.5248 71.3763 59.4352 71.5298C59.376 71.6322 59.2689 71.6882 59.1585 71.6882V71.6866ZM57.6196 70.8228C57.5684 70.8228 57.5156 70.81 57.4676 70.7844L57.3268 70.7076C57.1716 70.6228 57.1141 70.4292 57.1972 70.2741C57.2804 70.1189 57.4756 70.0613 57.6308 70.1445L57.7715 70.2213C57.9267 70.3061 57.9843 70.4996 57.8995 70.6548C57.8419 70.762 57.7315 70.8228 57.618 70.8228H57.6196ZM56.0598 70.0005C56.0102 70.0005 55.9607 69.9893 55.9143 69.9653L55.7735 69.8933C55.6151 69.8134 55.5527 69.6214 55.6327 69.463C55.7127 69.3046 55.9047 69.2423 56.063 69.3222L56.207 69.3958C56.3638 69.4758 56.4262 69.6694 56.3462 69.8262C56.2902 69.9365 56.1782 70.0005 56.0614 70.0005H56.0598ZM54.4793 69.2215C54.4329 69.2215 54.3865 69.2119 54.3418 69.1911L54.1978 69.1223C54.0378 69.0471 53.969 68.8567 54.0442 68.6968C54.1194 68.5368 54.3114 68.468 54.4697 68.5432L54.6153 68.612C54.7753 68.6872 54.8425 68.8791 54.7673 69.0375C54.7129 69.1527 54.5977 69.2199 54.4777 69.2199L54.4793 69.2215ZM52.8732 68.4968C52.8316 68.4968 52.7884 68.4888 52.7468 68.4712L52.6013 68.4088C52.4381 68.34 52.3629 68.1529 52.4317 67.9897C52.5005 67.8265 52.6877 67.7497 52.8508 67.8201L52.9996 67.8841C53.1612 67.9529 53.238 68.1417 53.1676 68.3048C53.1164 68.4264 52.998 68.4984 52.8732 68.4984V68.4968ZM51.2367 67.8441C51.1999 67.8441 51.1631 67.8377 51.1263 67.8249L50.9776 67.7705C50.8112 67.7097 50.7248 67.5274 50.7856 67.361C50.8464 67.1946 51.0288 67.1082 51.1951 67.169L51.3471 67.225C51.5135 67.2858 51.5983 67.4698 51.5375 67.6362C51.4895 67.7657 51.3679 67.8457 51.2367 67.8457V67.8441ZM49.5618 67.2986C49.533 67.2986 49.5058 67.2954 49.477 67.2874L49.3251 67.2458C49.1539 67.1994 49.0531 67.0251 49.0995 66.8539C49.1459 66.6827 49.3203 66.5819 49.4914 66.6283L49.6482 66.6715C49.8194 66.7179 49.9186 66.8939 49.8722 67.0651C49.8338 67.2074 49.7042 67.3002 49.5634 67.3002L49.5618 67.2986ZM47.8373 66.9435C47.8245 66.9435 47.8133 66.9435 47.8005 66.9419C47.7493 66.9355 47.6982 66.9307 47.647 66.9259C47.471 66.9099 47.3414 66.7531 47.359 66.5771C47.3766 66.4012 47.5318 66.2716 47.7078 66.2892C47.7621 66.294 47.8165 66.3004 47.8725 66.3068C48.0485 66.326 48.1749 66.486 48.1541 66.6603C48.1349 66.8235 47.9973 66.9435 47.8373 66.9435Z" fill="#344966"/>
<path d="M52.7926 60.4616C52.6599 60.4616 52.5367 60.3784 52.4903 60.2473C52.4327 60.0809 52.5207 59.8985 52.6871 59.8393C52.6871 59.8393 52.7399 59.8201 52.8486 59.7865C53.0182 59.7353 53.1974 59.8281 53.2502 59.9961C53.303 60.1641 53.2086 60.3448 53.0406 60.3976C52.9478 60.4264 52.9014 60.4424 52.8982 60.444C52.863 60.4568 52.8278 60.4616 52.7926 60.4616ZM54.4915 60.0073C54.346 60.0073 54.2148 59.9081 54.1796 59.7593C54.1396 59.5866 54.2468 59.4154 54.4196 59.3754L54.5619 59.3434C54.7347 59.3034 54.9139 59.4106 54.9523 59.5834C54.9907 59.7561 54.8915 59.9257 54.7187 59.9641L54.5635 59.9993C54.5395 60.0041 54.5155 60.0073 54.4915 60.0073ZM56.2144 59.6538C56.0625 59.6538 55.9281 59.5466 55.9009 59.3914C55.8689 59.217 55.9841 59.0507 56.1584 59.0187L56.3184 58.9899C56.4912 58.9595 56.6591 59.0763 56.6895 59.249C56.7199 59.4234 56.6048 59.5882 56.4304 59.6202L56.2752 59.6474C56.256 59.6506 56.2368 59.6522 56.2176 59.6522L56.2144 59.6538ZM57.9501 59.3658C57.7949 59.3658 57.6574 59.2522 57.6334 59.0923C57.6078 58.9179 57.7278 58.7547 57.9021 58.7291L58.0605 58.7051C58.2365 58.6763 58.398 58.7995 58.4236 58.9739C58.4492 59.1483 58.3292 59.3114 58.1549 59.337L57.9965 59.361C57.9805 59.3626 57.9645 59.3642 57.9485 59.3642L57.9501 59.3658ZM59.6938 59.1291C59.5338 59.1291 59.3963 59.0107 59.3771 58.8475C59.3563 58.6715 59.481 58.5132 59.6554 58.4908L59.8138 58.4716C59.9897 58.4524 60.1481 58.574 60.1705 58.7499C60.1913 58.9259 60.0681 59.0843 59.8922 59.1067L59.7322 59.1259C59.7194 59.1259 59.7066 59.1275 59.6938 59.1275V59.1291ZM61.4423 58.9355C61.2807 58.9355 61.1415 58.8123 61.1239 58.6475C61.1063 58.4716 61.2343 58.3148 61.4103 58.2972L61.5703 58.2812C61.7462 58.2636 61.903 58.3932 61.919 58.5692C61.9366 58.7451 61.807 58.9019 61.631 58.9179L61.4727 58.9339C61.4615 58.9339 61.4503 58.9339 61.4407 58.9339L61.4423 58.9355ZM63.194 58.7803C63.0292 58.7803 62.8884 58.6539 62.8756 58.486C62.8612 58.31 62.9924 58.1548 63.1684 58.142L63.3299 58.1292C63.5043 58.1164 63.6595 58.2492 63.6723 58.4252C63.6851 58.6012 63.5523 58.7547 63.3763 58.7675L63.2196 58.7803C63.2116 58.7803 63.202 58.7803 63.194 58.7803ZM64.9488 58.6587C64.7809 58.6587 64.6401 58.5276 64.6305 58.358C64.6193 58.182 64.7537 58.0301 64.9296 58.0189L65.0896 58.0093C65.2672 58.0013 65.4176 58.134 65.4272 58.31C65.4368 58.486 65.3024 58.6379 65.1264 58.6475L64.968 58.6571C64.968 58.6571 64.9552 58.6571 64.9488 58.6571V58.6587ZM66.7053 58.5676C66.5358 58.5676 66.3934 58.4332 66.3854 58.262C66.3774 58.086 66.515 57.9357 66.6909 57.9277L66.8509 57.9213C67.0317 57.9149 67.1772 58.0509 67.1836 58.2284C67.1916 58.4044 67.0541 58.5548 66.8765 58.5612L66.7181 58.5676C66.7181 58.5676 66.7085 58.5676 66.7037 58.5676H66.7053ZM68.4634 58.5036C68.2906 58.5036 68.1483 58.366 68.1435 58.1932C68.1387 58.0173 68.2778 57.8685 68.4538 57.8637L68.6154 57.8589C68.6154 57.8589 68.6202 57.8589 68.6234 57.8589C68.7961 57.8589 68.9385 57.9981 68.9433 58.1708C68.9481 58.3468 68.8073 58.494 68.6314 58.4988L68.473 58.5036C68.473 58.5036 68.4666 58.5036 68.4634 58.5036Z" fill="#344966"/>
<path d="M56.0595 48.5771C55.954 48.5771 55.85 48.5243 55.7892 48.4299C55.6948 48.2811 55.738 48.0827 55.8868 47.9884L56.0196 47.9036C56.1683 47.8076 56.3667 47.8508 56.4611 47.9996C56.5571 48.1483 56.5139 48.3467 56.3651 48.4411L56.2307 48.5275C56.1779 48.5611 56.1171 48.5771 56.058 48.5771H56.0595ZM57.7216 47.558L57.5329 47.2989L57.3697 47.0237L57.4913 46.9437C57.6385 46.8462 57.8368 46.8878 57.9344 47.0365C58.0304 47.1837 57.9904 47.3821 57.8416 47.4797L57.7216 47.558ZM59.0014 46.651C58.8974 46.651 58.7951 46.6014 58.7343 46.507C58.6367 46.3599 58.6767 46.1615 58.8238 46.0639L58.9566 45.9759C59.1038 45.8783 59.3022 45.9183 59.3997 46.0655C59.4973 46.2127 59.4573 46.411 59.3102 46.5086L59.1758 46.5966C59.1214 46.6318 59.0606 46.6494 58.9998 46.6494L59.0014 46.651ZM60.4667 45.6784C60.3628 45.6784 60.262 45.6288 60.1996 45.536C60.102 45.3888 60.142 45.1905 60.2892 45.0929L60.422 45.0049C60.5691 44.9073 60.7675 44.9473 60.8651 45.0945C60.9627 45.2417 60.9227 45.44 60.7755 45.5376L60.6411 45.6272C60.5867 45.664 60.5259 45.68 60.4651 45.68L60.4667 45.6784ZM61.9305 44.7026C61.8265 44.7026 61.7257 44.653 61.6633 44.5602C61.5657 44.413 61.6057 44.2146 61.7513 44.1171L61.8841 44.0291C62.0313 43.9299 62.2296 43.9699 62.3272 44.1171C62.4264 44.2642 62.3864 44.4626 62.2392 44.5602L62.1065 44.6498C62.0521 44.6866 61.9897 44.7042 61.9289 44.7042L61.9305 44.7026ZM63.3926 43.7235C63.2902 43.7235 63.1879 43.6739 63.1271 43.5812C63.0279 43.434 63.0679 43.2356 63.215 43.138L63.3478 43.0485C63.495 42.9493 63.6934 42.9893 63.7925 43.1348C63.8917 43.282 63.8517 43.4804 63.7062 43.5796L63.5734 43.6691C63.519 43.7059 63.4566 43.7235 63.3958 43.7235H63.3926ZM64.8532 42.7413C64.7508 42.7413 64.65 42.6917 64.5876 42.6005C64.4884 42.4534 64.5268 42.255 64.674 42.1558L64.8068 42.0662C64.9539 41.9671 65.1523 42.007 65.2499 42.1542C65.3491 42.3014 65.3091 42.4998 65.1619 42.5973L65.0291 42.6869C64.9747 42.7237 64.9123 42.7413 64.85 42.7413H64.8532ZM66.3121 41.7575C66.2097 41.7575 66.1089 41.7079 66.0465 41.6167C65.9474 41.4695 65.9857 41.2712 66.1329 41.172L66.2641 41.0824C66.4097 40.9832 66.6096 41.0216 66.7088 41.1672C66.808 41.3128 66.7696 41.5127 66.624 41.6119L66.4913 41.7015C66.4369 41.7383 66.3745 41.7559 66.3121 41.7559V41.7575ZM67.7694 40.7721C67.667 40.7721 67.5663 40.7225 67.5039 40.6313C67.4047 40.4857 67.4431 40.2858 67.5903 40.1866L67.723 40.097C67.8686 39.9978 68.0686 40.0362 68.1677 40.1818C68.2669 40.3274 68.2285 40.5273 68.083 40.6265L67.9502 40.7161C67.8958 40.7529 67.8334 40.7705 67.771 40.7705L67.7694 40.7721ZM69.2252 39.785C69.1228 39.785 69.022 39.7355 68.9596 39.6443C68.8604 39.4987 68.8988 39.2987 69.046 39.1996L69.1772 39.11C69.3243 39.0108 69.5227 39.0476 69.6219 39.1948C69.7211 39.3403 69.6843 39.5403 69.5371 39.6395L69.4043 39.7307C69.3499 39.7675 69.2875 39.785 69.2252 39.785ZM70.6793 38.7964C70.5769 38.7964 70.4761 38.7484 70.4153 38.6573C70.3162 38.5117 70.353 38.3117 70.4985 38.2125L70.6313 38.123C70.7769 38.0238 70.9768 38.0606 71.076 38.2077C71.1752 38.3533 71.1384 38.5533 70.9912 38.6525L70.8585 38.742C70.8041 38.7804 70.7401 38.798 70.6777 38.798L70.6793 38.7964Z" fill="#344966"/>
<path d="M34.6296 100.43C34.524 100.43 34.4216 100.379 34.3608 100.283C34.2648 100.134 34.308 99.936 34.4568 99.8417C34.4984 99.8145 34.54 99.7873 34.5816 99.7585C34.7271 99.6577 34.9255 99.6945 35.0263 99.8401C35.1271 99.9856 35.0903 100.184 34.9447 100.285C34.8967 100.318 34.8503 100.349 34.8039 100.379C34.7511 100.414 34.6903 100.43 34.6312 100.43H34.6296ZM35.9349 99.261C35.8629 99.261 35.7909 99.237 35.7302 99.1874C35.5942 99.0738 35.575 98.8722 35.6886 98.7363C35.7206 98.6979 35.7526 98.6579 35.7845 98.6179C35.8933 98.4787 36.0949 98.4563 36.2341 98.5651C36.3732 98.6739 36.3956 98.8754 36.2869 99.0146C36.2517 99.0594 36.2165 99.1026 36.1813 99.1442C36.1173 99.221 36.0261 99.2594 35.9349 99.2594V99.261ZM36.8755 97.7812C36.8292 97.7812 36.7812 97.7716 36.7364 97.7492C36.5764 97.6724 36.5108 97.4821 36.5876 97.3221C36.61 97.2757 36.6308 97.2293 36.6532 97.1829C36.7268 97.0214 36.9155 96.951 37.0771 97.0246C37.2371 97.0982 37.3091 97.2885 37.2355 97.4485C37.2115 97.4997 37.1891 97.5493 37.1651 97.5989C37.1107 97.7124 36.9955 97.7796 36.8771 97.7796L36.8755 97.7812ZM37.4786 96.1335C37.4514 96.1335 37.4226 96.1303 37.3955 96.1223C37.2243 96.0759 37.1235 95.9016 37.1699 95.7304C37.1827 95.6808 37.1971 95.6312 37.2083 95.58C37.2515 95.4089 37.4258 95.3049 37.597 95.3481C37.7682 95.3913 37.8722 95.5656 37.829 95.7368C37.8162 95.7912 37.8018 95.844 37.7874 95.8968C37.749 96.0392 37.6194 96.1335 37.4786 96.1335ZM37.8098 94.4074C37.797 94.4074 37.7826 94.4074 37.7698 94.4042C37.5938 94.3818 37.4706 94.2219 37.4914 94.0475C37.4978 93.9963 37.5042 93.9435 37.5106 93.8923C37.5314 93.7164 37.6914 93.59 37.8642 93.6108C38.0401 93.6316 38.1649 93.79 38.1457 93.9643C38.1393 94.0187 38.1329 94.0731 38.1265 94.1259C38.1057 94.2875 37.9682 94.4058 37.8098 94.4058V94.4074ZM37.9298 92.6542H37.9234C37.7474 92.651 37.6066 92.5054 37.6098 92.3278V92.171C37.613 91.9951 37.757 91.8543 37.9314 91.8543H37.9346C38.1105 91.8543 38.2529 91.9999 38.2513 92.1775V92.3406C38.2465 92.515 38.1041 92.6542 37.9298 92.6542ZM37.8754 90.8945C37.709 90.8945 37.5682 90.7665 37.557 90.5985L37.5442 90.4418C37.5298 90.2658 37.661 90.1106 37.837 90.0962C38.0129 90.0802 38.1681 90.213 38.1825 90.389L38.1953 90.5505C38.2081 90.7265 38.0753 90.8801 37.8994 90.8929C37.8914 90.8929 37.8834 90.8929 37.8754 90.8929V90.8945ZM37.6786 89.1444C37.5218 89.1444 37.3859 89.0292 37.3619 88.8708L37.3379 88.7157C37.3107 88.5413 37.4306 88.3781 37.605 88.3509C37.7778 88.3237 37.9426 88.4437 37.9698 88.6181L37.9937 88.7781C38.0193 88.9524 37.8978 89.1156 37.7234 89.1412C37.7074 89.1428 37.6914 89.1444 37.677 89.1444H37.6786ZM37.3715 87.4103C37.2227 87.4103 37.0899 87.3063 37.0579 87.1544L37.0259 86.9976C36.9891 86.8248 37.1011 86.6553 37.2739 86.6185C37.4466 86.5833 37.6162 86.6936 37.653 86.8664L37.6866 87.0248C37.7218 87.1976 37.6114 87.3671 37.437 87.4023C37.4147 87.4071 37.3939 87.4087 37.3715 87.4087V87.4103ZM36.9763 85.6938C36.834 85.6938 36.7028 85.5978 36.666 85.4539L36.626 85.3003C36.5812 85.1291 36.6852 84.9548 36.8564 84.91C37.0275 84.8652 37.2019 84.9692 37.2467 85.1403L37.2867 85.2955C37.3299 85.4667 37.2275 85.641 37.0563 85.6842C37.0291 85.6906 37.0035 85.6938 36.9763 85.6938ZM36.5092 83.9981C36.3716 83.9981 36.2437 83.9086 36.2021 83.7694L36.1573 83.6174C36.1061 83.4478 36.2021 83.2703 36.3716 83.2191C36.5412 83.1679 36.7188 83.2639 36.77 83.4334L36.8164 83.5886C36.8659 83.7582 36.77 83.9357 36.6004 83.9869C36.57 83.9965 36.5396 83.9997 36.5092 83.9997V83.9981ZM35.9797 82.3184C35.8453 82.3184 35.7222 82.2336 35.6758 82.1009L35.6246 81.9489C35.5686 81.7809 35.6582 81.6002 35.8245 81.5442C35.9925 81.4866 36.1733 81.5778 36.2293 81.7441L36.2805 81.8961C36.3364 82.0641 36.2469 82.2448 36.0789 82.3008C36.0453 82.312 36.0101 82.3184 35.9765 82.3184H35.9797ZM35.3942 80.6563C35.263 80.6563 35.1415 80.5764 35.0935 80.4468L35.0391 80.298C34.9783 80.1316 35.0631 79.9477 35.2278 79.8869C35.3942 79.8261 35.5782 79.9109 35.639 80.0756L35.695 80.226C35.7558 80.3924 35.671 80.5764 35.5046 80.6371C35.4678 80.6499 35.431 80.6563 35.3942 80.6563ZM34.7607 79.0118C34.6344 79.0118 34.5144 78.9351 34.4632 78.8103L34.404 78.6631C34.3384 78.4999 34.4168 78.3128 34.58 78.2472C34.7447 78.1816 34.9303 78.26 34.9959 78.4231L35.0567 78.5719C35.1223 78.7367 35.0423 78.9223 34.8791 78.9878C34.8407 79.0038 34.7991 79.0102 34.7607 79.0102V79.0118ZM34.0809 77.3865C33.9577 77.3865 33.8393 77.3145 33.7881 77.1946L33.7241 77.049C33.6537 76.8874 33.7257 76.6987 33.8889 76.6267C34.0521 76.5547 34.2392 76.6299 34.3112 76.7914L34.3752 76.9386C34.4456 77.1002 34.372 77.2889 34.2088 77.3593C34.1672 77.3769 34.124 77.3865 34.0809 77.3865ZM33.3482 75.7804C33.2298 75.7804 33.1146 75.7132 33.0602 75.5997C33.0154 75.5069 32.9915 75.4589 32.9915 75.4573C32.9131 75.2989 32.9771 75.1069 33.1354 75.0286C33.2938 74.9502 33.4858 75.0142 33.5641 75.1725C33.5641 75.1725 33.5897 75.2237 33.6361 75.3213C33.7129 75.4797 33.6457 75.6716 33.4874 75.7484C33.4426 75.7708 33.3946 75.7804 33.3482 75.7804Z" fill="#344966"/>
</svg>
