<svg width="115" height="91" viewBox="0 0 115 91" fill="none" xmlns="http://www.w3.org/2000/svg">
<path d="M17.0626 1.19476C15.0826 1.66276 12.8386 2.9999 10.2206 6.03076C7.95464 8.6159 5.16065 11.6245 4.41265 12.137C4.14865 12.3153 3.77465 12.5159 3.42265 12.7165C2.08065 13.4296 -1.06535 15.101 0.364646 18.0873C0.562646 18.5108 0.606647 18.7559 0.628647 19.0679C0.826647 20.5833 1.57465 21.341 3.18065 21.6976C4.92477 22.0632 8.64183 21.818 10.2368 21.5018C10.5068 21.4483 10.6015 21.4019 10.8767 21.3947C13.1356 21.3359 14.8063 23.4427 15.1405 25.6775C16.0254 31.5957 19.5586 35.2774 23.2806 37.5339C24.634 38.3544 25.7572 39.274 26.5737 40.6298C28.4862 43.8053 28.306 48.0777 25.6976 50.7116C24.2446 52.1789 23.0774 53.3062 22.5846 53.6776C21.2206 54.6805 17.5906 57.377 19.2406 61.9233C19.5926 62.8816 20.2526 65.333 21.0006 67.9405C23.5306 77.0553 24.2566 79.217 25.0706 80.0639C26.1486 81.1559 30.3726 84.209 31.2086 84.8108C31.5386 85.0336 31.8906 85.1673 32.2866 85.1673C32.5286 85.1673 32.7486 85.1228 32.9686 85.0336C33.5406 84.7885 33.9806 84.2759 34.1126 83.6519C34.4866 81.7353 35.5206 75.2502 33.0126 72.5536C31.874 71.3211 30.4146 67.1422 29.7636 64.1633C29.3719 62.3707 30.0899 60.6599 31.3361 59.3132C31.5201 59.1144 31.7065 58.9131 31.8906 58.7142C34.6675 55.7498 36.7392 53.4787 38.2266 51.6765C38.309 51.5767 38.4358 51.5267 38.5646 51.5399C38.7584 51.5598 38.9216 51.707 38.9392 51.9009C39.4115 57.1346 40.3451 65.7328 41.6366 67.6953C42.6926 69.2999 44.5406 78.4148 44.1006 80.933C43.8806 82.1142 42.2966 83.5182 41.3506 84.3873C40.2946 85.3233 39.5906 85.9473 39.5686 86.9948C39.5466 87.5073 39.7886 88.109 40.1406 88.4879C40.4926 88.8668 41.0866 89.4462 46.3226 90.2708C46.4106 90.293 46.4986 90.293 46.6086 90.293C47.0706 90.293 47.5326 90.1148 47.8846 89.8028L52.8566 85.0782C53.2966 84.677 53.4946 84.0976 53.4286 83.4959L52.3946 74.2919C51.8226 69.3445 51.2066 63.7285 51.2066 63.0376C51.2066 62.5696 51.2726 60.0513 51.3606 57.3325C51.4641 53.6301 54.1621 50.3881 57.766 51.2429C58.0981 51.3216 58.4417 51.4122 58.7966 51.5159C62.2237 52.5153 67.2592 53.2586 71.9463 52.9172C77.0842 52.543 83.2952 53.254 85.8279 57.74C86.622 59.1466 87.1803 60.4357 87.3086 61.4108C87.7706 64.9319 86.3186 66.8039 80.4886 70.2136C75.0986 73.3782 74.2846 74.1136 73.7566 76.3422L73.6906 76.5873C73.6686 76.6542 72.0406 84.7885 73.8446 87.2622C74.2846 87.8639 74.9226 88.2428 75.6486 88.265C81.6546 88.6216 82.1826 84.053 82.4026 82.0919C82.4759 81.4983 82.6737 80.9198 83.1059 80.5063C85.527 78.1905 93.5068 72.3842 96.3726 71.3502C98.2866 70.6593 99.6726 68.8319 100.245 66.2022C100.264 66.1052 100.283 66.0075 100.302 65.9091C100.475 64.9704 101.615 64.3023 102.313 64.9542C103.061 65.7119 103.875 70.3696 103.875 75.8742C103.875 77.0553 104.029 77.9022 104.161 78.5039C104.236 78.8096 104.129 79.1337 103.888 79.3368C103.618 79.5649 103.178 79.8998 102.467 80.3759C100.993 81.3788 100.883 84.3428 101.477 85.9473C102.071 87.5965 103.391 88.5548 105.041 88.5548C105.217 88.5548 105.393 88.5548 105.569 88.5325C109.287 88.109 114.567 82.6936 114.567 80.0639C114.567 79.4399 114.347 77.7685 113.775 73.4673C113.181 69.0325 112.367 62.9485 112.367 61.2102C112.367 58.2016 109.221 56.5302 106.911 55.3045C105.853 54.7243 105.147 53.7097 104.814 52.5505C104.267 50.6483 103.469 48.2387 103.149 47.2816C102.881 46.469 103.001 45.5705 103.456 44.846C104.573 43.0676 105.474 41.2833 105.855 39.8159C107.065 35.2473 106.031 24.929 98.1326 20.6279C94.3927 18.5847 81.0811 12.7809 59.7692 19.4073C57.7704 20.0288 55.6334 20.0686 53.5681 19.7279C50.561 19.2318 46.0236 18.9406 40.8666 20.1822C38.1166 20.8508 35.4326 19.3576 33.6726 17.9759C30.6286 15.6378 31.5906 11.002 33.3902 7.61161C34.7652 5.02129 35.3821 2.62863 35.4326 2.39818C35.5646 1.86333 35.4546 1.30618 35.1466 0.86047C34.8166 0.414756 34.3326 0.125041 33.8046 0.08047C29.3948 -0.29881 26.1454 0.7165 23.8518 1.99619C23.6085 2.13193 23.3215 2.13068 23.0906 1.97476M12.9856 8.51624C13.0047 8.50851 13.0221 8.49577 13.0356 8.48019C16.3298 4.66755 18.4074 4.5669 19.7638 4.84813C19.9442 4.88552 20.0133 5.10532 19.8686 5.21925C19.859 5.22675 19.8524 5.23281 19.8438 5.24144C19.8271 5.25841 19.8118 5.27392 19.7975 5.28838C19.7345 5.35224 19.6634 5.40742 19.5912 5.46078C19.1286 5.80303 18.8446 6.34653 18.8446 6.96675C18.8446 7.9919 19.6806 8.83876 20.6926 8.83876C21.5506 8.83876 22.0346 8.32619 22.4966 7.8359C25.623 4.53414 29.3072 10.0806 24.8068 10.7306C24.4 10.7893 23.9747 10.7934 23.5306 10.733C22.5186 10.5993 21.5946 11.3125 21.4406 12.3376C21.3086 13.3628 22.0126 14.2988 23.0246 14.4548C23.4646 14.5216 23.8606 14.5439 24.2566 14.5439C25.0184 14.5439 25.7705 14.8584 26.2056 15.4836C26.2306 15.5195 26.2556 15.5554 26.2806 15.5913C29.7786 20.5833 35.6746 25.397 41.7246 23.9485C49.6666 22.0319 56.0466 24.2605 56.1126 24.2828C56.5086 24.4388 56.9706 24.4388 57.3666 24.2828C79.3666 16.2822 92.7866 22.0765 96.3726 24.0376C102.379 27.3136 103.193 35.5148 102.291 38.969C101.389 42.4233 96.3946 48.5519 95.1406 49.2873C94.5686 49.6216 93.8206 50.2902 93.6006 51.7388C93.2475 54.1833 94.609 58.4003 95.9689 60.3591C96.2661 60.7872 96.6098 61.189 96.7228 61.6978C96.9453 62.7003 97.0326 64.4591 96.5266 66.0462C96.3066 66.7593 95.8886 67.673 95.1406 67.9405C91.6426 69.2108 80.4226 77.1668 79.2566 79.529C78.9266 80.1976 78.8386 80.9553 78.7286 81.7576C78.4598 83.9362 76.6353 82.8815 76.8283 80.6949C76.9418 79.4092 77.1116 78.1933 77.2766 77.5456L77.3426 77.2559C77.4966 76.5873 77.5626 76.2753 82.3146 73.4896C87.5286 70.4365 91.7966 67.3833 90.9386 60.9428C90.2346 55.6833 82.9086 47.4376 82.0726 46.5239C81.7206 46.145 81.2366 45.9222 80.7086 45.9222C80.1806 45.9222 79.6966 46.145 79.3446 46.5239C75.9786 50.201 65.8366 49.733 59.7866 47.9502C52.9006 45.9445 49.1606 47.8833 48.7646 48.1062C48.1926 48.4405 47.8186 49.0645 47.8186 49.733C47.8186 50.4908 47.7306 54.0788 47.6206 57.2433C47.5326 60.0959 47.4666 62.5696 47.4666 63.0599C47.4666 64.1296 48.3906 72.2639 48.6766 74.7376L49.3252 80.5405C49.4987 82.0935 48.9358 83.6383 47.8038 84.7155L46.1549 86.2846C46.0391 86.3948 45.8806 86.4439 45.7232 86.4159C45.3337 86.3466 45.1946 85.8755 45.4634 85.5854C46.4666 84.5027 47.4142 83.1697 47.6866 81.6239C48.2586 78.3479 46.3226 68.2079 44.6726 65.6896C43.9686 64.4193 42.9346 56.3519 42.3846 49.5993C42.2966 48.5965 41.4166 47.7942 40.4266 47.8833C39.6786 47.9279 37.3906 47.9056 35.8726 47.2816C34.7066 46.6353 30.9886 41.1085 28.2386 36.3393C28.0406 36.005 27.7546 35.7376 27.3806 35.5593C21.0666 32.7513 18.0966 27.9822 18.6026 21.3633C18.6466 20.9399 18.6466 20.6502 18.6246 20.4942C18.5806 20.1153 18.4046 19.3799 17.5686 18.845C15.9846 17.8199 10.6386 17.4633 9.51665 17.8422C8.96036 17.9976 6.38032 18.2209 4.76605 18.1573C4.38351 18.1422 4.09776 17.9225 3.99496 17.5537C3.8867 17.1653 3.98076 16.6737 4.32979 16.4719C4.58916 16.322 4.85902 16.1787 5.05065 16.0816C5.51265 15.8365 5.99665 15.569 6.41465 15.2793C7.88584 14.2561 12.0527 9.52539 12.8998 8.57671C12.9033 8.57284 12.9046 8.56846 12.9046 8.56327C12.9046 8.55467 12.9099 8.54693 12.9178 8.5437L12.9856 8.51624ZM105.217 58.6696C106.273 59.2268 108.693 60.5193 108.693 61.2548C108.693 63.1045 109.331 67.9182 110.145 74.0245C110.313 75.2663 110.494 76.5897 110.635 77.6909C110.828 79.1916 110.552 80.7006 109.527 81.8132C108.264 83.1833 106.43 84.7106 105.173 84.8553C105.103 84.8553 105.037 84.8231 105.008 84.7601C104.925 84.5771 104.88 84.2791 104.873 83.9744C104.862 83.5209 105.141 83.1317 105.506 82.8622C107.802 81.1652 108.263 80.0448 107.835 77.813C107.747 77.3005 107.615 76.721 107.615 75.8965C107.615 72.4645 107.329 64.241 104.689 62.0793C104.117 61.6113 103.215 61.0765 102.093 60.3856C101.47 60.0071 100.761 59.5849 100.012 59.1189C99.6557 58.8973 99.3717 58.5888 99.1006 58.2685C98.432 57.5912 97.4185 54.7062 97.2248 53.0461C97.1676 52.5562 97.3018 52.2277 97.6823 51.9139C98.7351 51.0454 100.531 51.2199 100.93 52.5251C101.335 53.8502 101.622 54.8878 101.675 55.2599C101.851 56.8868 103.347 57.6668 105.217 58.6696ZM29.2286 56.1513C27.6226 57.8673 26.7646 58.781 26.3906 59.2936C24.2786 62.1685 28.3266 72.9548 30.3506 75.1165C30.565 75.342 30.7176 75.771 30.8165 76.3332C31.0869 77.8705 29.1199 78.6578 27.944 77.6312C27.7769 77.4854 27.7446 77.4033 27.6583 77.1989C26.9626 75.55 25.4868 70.2383 24.5646 66.9376C23.7946 64.1519 23.1126 61.7228 22.7386 60.653C22.2986 59.4273 22.4966 58.4245 24.8066 56.7085C25.9124 55.8735 29.0389 52.6937 31.7521 49.856C32.1615 49.4277 32.9399 49.5373 33.3897 49.923C33.8862 50.3486 33.9057 51.0462 33.4713 51.535C31.9222 53.278 30.2693 55.0407 29.2286 56.1513Z" fill="#D76677"/>
</svg>
