<svg width="148" height="90" viewBox="0 0 148 90" fill="none" xmlns="http://www.w3.org/2000/svg">
<path d="M141.267 52.3968L140.775 52.0257C139.586 51.1226 137.109 49.2443 135.629 48.3024C134.2 47.3935 133.533 45.9114 133.152 44.8745C132.504 43.1013 129.942 39.7557 127.488 37.9323C125.309 36.3155 121.772 35.8257 120.415 35.6932C120.332 35.6293 120.25 35.5653 120.164 35.5002L119.641 35.096C119.332 34.8517 118.941 34.508 118.509 34.1289C116.062 31.9835 114.474 30.7046 112.933 31.0586C110.359 31.6512 110.043 35.563 110.008 36.7483C109.987 37.4288 110.13 38.0967 110.341 38.7441C109.044 39.2112 107.209 39.8209 105.94 40.0435C105.37 40.1451 104.585 40.3141 103.655 40.5128C100.851 41.1168 96.614 42.0291 93.3127 42.0657L91.5531 42.0839C87.3087 42.1251 82.0254 42.1753 73.5973 42.5795C65.4851 42.9688 60.3248 43.4632 56.1786 43.8595L53.9713 44.0673C49.9671 44.4361 45.7621 45.6761 42.0513 46.7699L40.4338 47.2449C39.4311 47.535 38.469 47.7199 37.4504 47.914C34.6645 48.4473 31.5062 49.0513 26.4744 52.0063C21.6266 54.8528 19.2241 55.9559 16.6782 57.1251C15.7917 57.5327 14.9006 57.9415 13.9035 58.4245L13.5899 58.5764C9.67041 60.4741 1.51201 64.4201 0.0309998 71.9779C-0.0287805 72.2828 -0.00170964 72.5945 0.108827 72.8845C0.161839 73.0272 1.48378 76.3796 5.97078 77.374C7.16076 77.6378 8.54474 77.7542 10.0055 77.7542C13.5866 77.7542 17.6179 77.0509 20.3397 76.0929C22.1511 75.4558 24.5808 74.1575 27.0442 72.7966C26.108 74.7023 25.2654 76.6433 24.6383 78.0887C24.371 78.7031 24.1567 79.202 24.0044 79.5274C22.9983 81.6912 22.6847 84.7261 24.0292 86.344C24.9654 87.4687 27.4042 88.0692 29.2132 88.0692C29.8888 88.0692 30.4799 87.9859 30.8679 87.8123C31.8007 87.4001 32.8779 86.5255 33.1023 85.3163C33.2478 84.5319 33.0008 83.7463 32.4233 83.1617C32.2022 82.9379 31.8492 82.6547 31.4566 82.3488C31.2254 82.1683 30.8667 81.8909 30.5983 81.65C30.7731 81.3245 30.9851 80.8998 31.2705 80.3289C31.9563 78.9576 34.0385 74.783 35.0254 74.3276C35.9131 74.0262 39.5314 74.0593 42.1709 74.0855C45.1396 74.1129 47.7057 74.1358 48.9915 73.8663C50.8661 73.4724 52.5896 73.0088 54.3198 71.7106C54.753 72.0246 55.1117 72.302 55.3181 72.503C55.4748 72.6571 56.173 73.6197 54.5499 77.4903L54.2138 78.2679C53.4242 80.0685 52.6076 81.9307 53.8404 83.2815C54.6864 84.2075 59.012 87.0516 60.696 88.0007C61.1032 88.2313 61.419 88.4232 61.6852 88.5864C62.8266 89.2852 63.4154 89.6049 65.4075 89.8333C66.47 89.9566 67.4693 90 68.375 90C69.6214 90 70.6906 89.9166 71.5051 89.8367C73.8015 89.6129 74.7209 88.5579 74.5808 86.3142C74.5357 85.6017 74.2109 84.96 73.6413 84.4576C71.9404 82.9561 68.5893 83.1879 68.4527 83.1993C67.9147 83.2358 67.6688 83.1285 66.1889 82.3384C65.6893 82.0712 65.0892 81.7503 64.3425 81.3724C63.368 80.8791 63.1277 80.5903 63.1006 80.5903H63.0995C63.1074 80.4201 63.3014 79.944 63.4458 79.5946C63.5326 79.3822 63.624 79.1596 63.7142 78.9221C64.1733 77.7152 65.2719 76.4272 66.4337 75.064C66.8916 74.5273 67.3586 73.9792 67.8098 73.4118C68.4516 72.6068 69.4442 71.1875 70.289 69.6896C72.4806 70.2297 77.1356 71.2596 81.2107 71.3772C81.6845 71.3897 82.174 71.3966 82.6737 71.3966C84.2821 71.3966 85.9955 71.3315 87.5972 71.2413C88.0145 76.3817 88.9394 80.4866 89.72 82.7177C90.461 84.8278 92.0458 87.7906 93.1399 88.6699C93.846 89.2374 94.9909 89.4018 97.6563 89.4018C98.2259 89.4018 98.8655 89.3949 99.584 89.3824C100.042 89.3744 100.452 89.3675 100.777 89.3675C101.192 89.3675 102.456 89.3675 103.29 88.453C104.106 87.5589 104.017 86.4102 103.939 85.418C103.722 82.6422 99.9302 82.6468 98.3444 82.6628C98.3286 82.6559 97.9383 82.4789 97.2074 81.1407C96.7528 80.3095 96.7664 79.8905 96.7968 78.8765L96.8013 78.6836C96.816 78.2006 96.7912 76.9857 96.7562 75.6635C97.178 75.8644 97.6653 76.0745 98.2857 76.336L98.7245 76.5198C102.264 78.0076 107.936 78.3958 110.677 78.2816C112.326 78.2177 113.261 78.848 114.436 79.645C114.675 79.8071 114.913 79.9693 115.156 80.1245C115.7 80.4728 116.522 81.1259 117.394 81.819C118.838 82.9665 120.33 84.1517 121.482 84.7158C121.971 84.9567 122.517 85.0755 123.102 85.0755C123.945 85.0755 124.88 84.8265 125.866 84.3287C127.995 83.26 128.163 82.4082 128.217 82.1307C128.57 80.3495 124.734 77.4802 124.296 77.1581L122.693 75.9694C119.487 73.583 116.539 71.4022 115.711 70.9225C114.578 70.2682 112.351 69.6893 109.27 68.8912L108.189 68.6149C107.351 68.3968 106.835 68.1742 106.522 68.0006C107.822 67.1054 110.711 65.3459 113.32 63.7564C114.509 63.0324 115.771 62.264 117.064 61.4693C121.997 58.439 123.643 58.351 125.234 58.2642L125.901 58.2231C126.805 58.1523 129.001 58.6113 130.764 58.979C132.381 59.3158 133.778 59.6081 134.739 59.6583C136.481 59.76 137.714 59.0281 138.434 58.3247C140.297 57.8303 141.525 55.7773 141.862 54.7153C142.298 53.3258 141.592 52.6315 141.267 52.3963L141.267 52.3968ZM98.3264 85.9211C99.6044 85.96 100.241 86.0045 100.609 86.0913C100.3 86.0924 99.9315 86.0993 99.5288 86.1061C98.4133 86.1255 95.8891 86.1712 95.0566 85.9965C94.5535 85.3993 93.4008 83.4183 92.768 81.621C92.0563 79.5909 91.2137 75.8161 90.8223 71.0191C91.7292 70.9472 92.5199 70.8764 93.1132 70.8193C93.2 71.026 93.2891 71.2315 93.3861 71.4428C93.4527 73.3576 93.5937 77.6943 93.5677 78.5861L93.5632 78.7722C93.5271 79.97 93.4921 81.1015 94.3764 82.7206C94.8547 83.5987 96.1235 85.9211 98.3264 85.9211ZM137.6 55.162C137.039 55.162 136.518 55.4566 136.222 55.9407C136.219 55.9453 135.864 56.442 134.903 56.3906C134.188 56.3529 132.778 56.0584 131.415 55.7752C129.151 55.3025 127.014 54.8583 125.65 54.9622L125.061 54.9988C123.163 55.1015 121.012 55.2168 115.385 58.673C114.096 59.4631 112.837 60.2316 111.651 60.9532C104.701 65.1858 103.681 65.8733 103.254 66.6131C102.84 67.3302 102.788 68.1922 103.113 68.9766C103.639 70.2555 105.036 71.1735 107.38 71.7844L108.466 72.0664C110.977 72.7184 113.351 73.3315 114.104 73.7688C114.84 74.1947 118.702 77.0675 120.776 78.6111L122.396 79.8123C123.03 80.277 123.73 80.9233 124.275 81.4737C123.715 81.7294 123.131 81.8927 122.887 81.7694C122.049 81.3583 120.574 80.1845 119.386 79.2426C118.449 78.4981 117.564 77.7959 116.883 77.3586C116.665 77.2193 116.45 77.072 116.237 76.927C114.911 76.0238 113.264 74.9037 110.549 75.0087C107.894 75.1115 102.86 74.713 99.9644 73.4958L99.5211 73.3097C97.4299 72.4339 97.4299 72.4339 96.743 71.0021L96.5502 70.6048C95.4549 68.344 94.9462 66.5078 94.9462 64.8282C94.9462 63.9251 94.2221 63.1909 93.3288 63.1909C92.4366 63.1909 91.7113 63.9239 91.7113 64.8282C91.7113 65.7349 91.8444 66.6677 92.0587 67.6291C91.224 67.7045 90.1649 67.7912 88.9996 67.8712H88.9951C88.994 67.8712 88.9917 67.8723 88.9906 67.8723C86.5712 68.039 83.6871 68.1749 81.298 68.1029C77.8792 68.0036 73.8851 67.1769 71.6427 66.646C71.7623 66.2372 71.8525 65.8456 71.8694 65.503C71.9596 63.5882 69.7207 61.2246 68.3784 59.9846C67.7185 59.376 66.6966 59.4251 66.0955 60.0908C65.4943 60.7588 65.5405 61.7944 66.2004 62.4041C67.3779 63.4911 68.542 64.9401 68.639 65.3453C68.6029 66.0977 67.1501 69.0184 65.29 71.3524C64.8614 71.8914 64.417 72.412 63.9816 72.9201C62.6315 74.5061 61.3535 76.0019 60.6924 77.742L60.4545 78.3357C59.6107 80.3978 59.1629 82.4052 62.893 84.2937C63.6138 84.6591 64.1947 84.9685 64.6763 85.2255C66.2983 86.0932 67.1905 86.5762 68.6885 86.4563C69.3608 86.4072 70.1379 86.486 70.7132 86.615C69.4646 86.7212 67.7286 86.7966 65.7695 86.5739C64.3968 86.4164 64.2377 86.3182 63.3568 85.7781C63.0624 85.5977 62.7161 85.3853 62.2672 85.133C60.5855 84.1853 57.5129 82.1094 56.4945 81.2941C56.6163 80.8522 56.9389 80.1123 57.1701 79.5883L57.5254 78.7616C58.1627 77.2441 60.096 72.6244 57.566 70.1433C56.9806 69.5701 56.0411 68.9159 54.85 68.0892C52.6527 66.5603 49.3299 64.2504 48.6597 62.4156C48.3506 61.5661 47.419 61.1322 46.5832 61.4462C45.7451 61.7591 45.3165 62.6999 45.6255 63.5483C46.4681 65.8559 48.997 67.9191 51.4468 69.6788C50.5173 70.1595 49.5304 70.4004 48.3291 70.6539C47.3851 70.8537 44.6305 70.8274 42.1978 70.8046C37.9736 70.7658 35.3073 70.7738 33.9998 71.2133C31.9887 71.8927 30.2663 75.0703 28.3827 78.8431C28.0782 79.4539 27.6992 80.2132 27.5988 80.3639C27.2334 80.8172 27.0698 81.387 27.1375 81.9659C27.2728 83.1545 28.3297 84.0337 29.3155 84.8044C28.4797 84.8033 26.8679 84.5224 26.5081 84.237C26.2802 83.8978 26.2667 82.3427 26.9299 80.9155C27.0901 80.573 27.318 80.0466 27.5999 79.3992C28.6952 76.8746 30.7335 72.1737 32.4691 69.849C32.4691 69.8479 32.4703 69.8456 32.4703 69.8445C33.0568 69.5488 33.6072 69.2827 34.0482 69.1057C34.5524 68.9025 35.1085 68.7312 35.7007 68.5474C38.825 67.5734 43.5443 66.1039 46.5638 58.8601C46.9112 58.0266 46.5255 57.0675 45.7021 56.7158C44.8787 56.3653 43.9312 56.7547 43.5838 57.5882C41.1497 63.424 37.7502 64.4848 34.7486 65.4187C34.0707 65.6299 33.4323 65.8309 32.8548 66.0638C31.3332 66.6758 29.1371 67.8976 26.8123 69.19C24.1606 70.6652 21.1557 72.3358 19.2765 72.9958C15.9287 74.173 10.0647 74.9289 6.66064 74.1707C4.66193 73.7266 3.70324 72.6338 3.32642 72.0629C4.80965 66.4487 11.6439 63.1418 14.9813 61.5239L15.2994 61.3698C16.2762 60.8948 17.1458 60.4952 18.011 60.0978C20.5161 58.9469 23.108 57.7582 28.0948 54.8284C32.6484 52.1555 35.3935 51.628 38.0489 51.1209C39.0934 50.9199 40.1751 50.7132 41.3199 50.3821L42.9531 49.9037C46.523 48.8498 50.5689 47.6578 54.2606 47.3175L56.4804 47.1074C60.5928 46.7146 65.7104 46.2236 73.7469 45.8389C82.1129 45.4381 87.3622 45.3867 91.5808 45.3456L93.3449 45.3273C96.969 45.2862 101.394 44.334 104.324 43.7014C105.205 43.5118 105.949 43.3509 106.49 43.2561C108.047 42.9832 110.194 42.2593 111.606 41.7501C111.689 41.9613 111.773 42.1737 111.805 42.3324C112.134 43.9435 112.822 45.6652 112.851 45.7371C113.107 46.372 113.712 46.7591 114.35 46.7591C114.552 46.7591 114.758 46.7202 114.958 46.638C115.786 46.2978 116.184 45.3432 115.847 44.5051C115.843 44.4903 115.243 42.9911 114.972 41.67C114.811 40.881 114.435 40.0703 114.071 39.2905C113.669 38.4273 113.217 37.4487 113.235 36.8356C113.269 35.7223 113.497 34.8728 113.689 34.4321C114.438 34.8819 115.712 36.0021 116.385 36.5912C116.867 37.0137 117.306 37.3962 117.652 37.6679L118.211 38.0996C119.203 38.8577 119.657 39.2025 120.139 40.3455C120.49 41.1756 121.441 41.5638 122.262 41.2053C122.933 40.9141 123.284 40.2199 123.206 39.5223C124.098 39.7746 124.963 40.1114 125.568 40.5613C127.709 42.1507 129.755 45.0248 130.111 45.9988C130.961 48.3246 132.202 49.9814 133.9 51.0615C135.122 51.839 137.242 53.4319 138.441 54.3385C138.176 54.7472 137.813 55.1286 137.598 55.1617L137.6 55.162Z" fill="#D76677"/>
</svg>
