<svg width="142" height="138" viewBox="0 0 142 138" fill="none" xmlns="http://www.w3.org/2000/svg">
<path d="M140.63 59.9261C142.751 55.9798 136.698 26.8772 106.505 9.0667C76.3108 -8.7419 44.292 7.71584 41.6367 9.9209C38.9813 12.126 33.7905 19.3615 37.7252 23.6441C41.6618 27.9266 49.4288 27.1517 51.0464 33.3339C52.6659 39.5162 51.4232 46.686 56.2314 47.747C61.0397 48.808 66.3098 44.6665 70.4745 46.5198C74.6391 48.3732 70.631 56.1575 75.072 58.4129C79.5131 60.6682 82.3037 55.5024 88.5111 57.6128C94.7185 59.7231 94.0421 69.2062 99.546 69.2546C105.05 69.3029 110.55 61.3233 115.513 61.5417C120.474 61.7601 120.872 66.0523 124.347 65.8339C127.821 65.6155 127.576 62.7785 131.155 63.3602C134.734 63.9419 138.512 63.8724 140.632 59.928L140.63 59.9261Z" fill="#C4E0C7"/>
<path d="M99.595 70.1224C99.5757 70.1224 99.5564 70.1224 99.539 70.1224C96.2111 70.0935 94.81 67.2371 93.4572 64.4736C92.2242 61.9593 90.9506 59.358 88.2334 58.4343C85.3269 57.4467 83.2532 58.2101 81.2472 58.9503C79.2432 59.6885 77.1714 60.4519 74.6804 59.186C71.9651 57.8062 71.8762 54.8416 71.7989 52.223C71.7197 49.5967 71.5689 47.954 70.1234 47.3104C68.2063 46.4582 65.8775 47.1036 63.4096 47.7858C61.0074 48.4506 58.5241 49.1386 56.0466 48.5917C52.1041 47.7221 51.6268 43.5709 51.1224 39.1743C50.9079 37.3094 50.6875 35.3807 50.2083 33.5486C49.3676 30.3367 46.6581 29.2545 43.5197 28.0022C41.2199 27.0842 38.8428 26.1353 37.0881 24.2259C35.8725 22.904 35.3236 21.2575 35.4531 19.3288C35.7198 15.3786 38.9066 11.0535 41.0827 9.24466C42.4683 8.09285 51.2519 3.32907 63.5932 1.12402C70.5968 -0.126355 77.5019 -0.335072 84.1171 0.505594C92.2397 1.53759 99.9216 4.16394 106.95 8.3093C123.333 17.9721 132.043 30.4932 136.466 39.2961C139.363 45.059 140.691 49.73 141.294 52.6327C142.046 56.2485 142.084 59.0546 141.4 60.3282C138.961 64.8659 134.573 64.7847 131.019 64.2069C129.486 63.9576 128.929 64.4136 128.089 65.1036C127.291 65.7568 126.297 66.5723 124.405 66.6902C122.401 66.8158 121.232 65.7239 120.105 64.6687C118.967 63.602 117.788 62.5004 115.479 62.398C115.425 62.396 115.369 62.3941 115.315 62.3941C113.216 62.3941 110.858 64.118 108.365 65.9384C105.559 67.9889 102.658 70.1089 99.6008 70.1089L99.595 70.1224ZM85.5259 56.2292C86.5193 56.2292 87.6015 56.3858 88.79 56.7897C92.1913 57.9453 93.691 61.0085 95.0168 63.7102C96.4314 66.5955 97.4073 68.3657 99.5525 68.3851C99.566 68.3851 99.5796 68.3851 99.5931 68.3851C102.084 68.3851 104.751 66.4351 107.333 64.5489C110.145 62.4946 112.796 60.5543 115.55 60.6741C118.503 60.8036 120.047 62.2511 121.288 63.4126C122.403 64.4562 123.091 65.0417 124.291 64.9683C125.623 64.8852 126.253 64.3692 126.981 63.772C127.923 63.0029 128.987 62.1294 131.293 62.5043C134.621 63.0454 137.962 63.0589 139.864 59.5185C140.594 58.1579 140.206 50.6364 134.907 40.0904C130.59 31.4962 122.078 19.2689 106.061 9.82057C99.2394 5.79696 91.7797 3.24791 83.8929 2.2449C77.4536 1.4255 70.7244 1.62842 63.8947 2.8498C52.0655 4.96403 43.4462 9.55194 42.19 10.5955C40.3058 12.1609 37.4127 16.0589 37.1828 19.4583C37.0861 20.8922 37.4823 22.104 38.3636 23.0606C39.8497 24.6781 42.0412 25.5517 44.1593 26.3981C47.435 27.7045 50.8228 29.0573 51.8857 33.1177C52.3959 35.0676 52.624 37.0601 52.8462 38.9849C53.3661 43.5187 53.8164 46.3287 56.4157 46.9007C58.4719 47.3549 60.7427 46.7249 62.94 46.1161C65.5934 45.3817 68.3377 44.6203 70.8249 45.7277C73.3739 46.8621 73.457 49.6856 73.5324 52.1766C73.602 54.517 73.6677 56.7278 75.4631 57.64C77.2777 58.5618 78.7619 58.0149 80.6404 57.3211C82.0087 56.8167 83.5992 56.2312 85.524 56.2312L85.5259 56.2292Z" fill="#344966"/>
<path d="M131.032 99.5378C130.995 99.5378 130.959 99.5358 130.92 99.53C130.445 99.4682 130.106 99.0334 130.168 98.556C130.186 98.4188 131.888 84.6686 127.625 77.6225C123.051 70.0603 123.464 65.9073 123.483 65.7333C123.538 65.256 123.97 64.9139 124.446 64.968C124.921 65.0221 125.261 65.4492 125.211 65.9246C125.209 65.9517 125.128 66.8929 125.559 68.667C125.961 70.327 126.904 73.0732 129.113 76.7219C131.047 79.9203 132.103 84.6126 132.248 90.6712C132.354 95.1354 131.913 98.6295 131.894 98.7764C131.838 99.215 131.463 99.5358 131.032 99.5358V99.5378Z" fill="#344966"/>
<path d="M119.947 72.167C119.657 72.167 119.373 72.022 119.209 71.7573C116.897 68.0467 119.023 63.2346 119.114 63.0317C119.311 62.595 119.827 62.3998 120.264 62.5969C120.7 62.794 120.896 63.3081 120.699 63.7468C120.675 63.7989 118.868 67.9269 120.683 70.8393C120.936 71.2471 120.813 71.7824 120.405 72.0375C120.262 72.1264 120.103 72.1689 119.945 72.1689L119.947 72.167Z" fill="#344966"/>
<path d="M118.972 127.357C118.8 127.357 118.628 127.307 118.476 127.201C115.919 125.421 112.902 121.645 113.055 113.773C113.147 109.035 114.438 104.312 115.635 102.481C116.16 101.676 116.7 100.887 117.25 100.172C115.952 98.1679 114.736 95.1145 115.756 91.4561C116.102 90.2154 116.616 88.9902 117.243 87.8983C115.77 86.2131 115.198 83.8186 114.978 82.3576C114.786 81.0879 114.748 79.8008 114.846 78.6297C112.925 77.3136 111.675 74.2582 111.13 69.5427C110.724 66.0409 110.859 62.9179 110.865 62.7865C110.886 62.3072 111.302 61.9362 111.773 61.9574C112.253 61.9787 112.626 62.3845 112.602 62.8657C112.465 65.9288 112.715 73.8002 115.186 76.6179C115.318 76.1347 115.48 75.6999 115.673 75.3288C116.953 72.8726 118.423 72.7044 119.189 72.8223C120.375 73.0059 121.372 74.0959 121.612 75.4719C121.776 76.4188 121.282 78.2934 119.954 79.2036C119.26 79.6791 118.153 80.0385 116.547 79.48C116.475 81.8261 116.972 84.6361 118.253 86.3851C119.017 85.4053 120.124 84.3288 121.427 84.0814C122.536 83.8689 123.572 84.3114 124.341 85.326C125.241 86.5107 125.226 87.933 124.3 88.9496C123.257 90.0975 121.092 90.5691 118.595 89.0462C118.122 89.9236 117.714 90.9111 117.43 91.9238C116.655 94.7048 117.449 97.0934 118.435 98.7844C119.457 97.7312 120.518 97.0393 121.616 97.0296C122.285 97.0238 123.263 97.2809 124.119 98.5409C125.158 100.07 124.59 101.766 123.491 102.651C122.343 103.577 120.379 103.807 118.787 102.128C118.649 101.983 118.497 101.815 118.334 101.625C117.799 102.348 117.353 103.034 117.09 103.434C116.185 104.82 114.883 109.197 114.794 113.81C114.655 120.912 117.26 124.238 119.469 125.777C119.863 126.051 119.96 126.592 119.685 126.986C119.515 127.23 119.247 127.359 118.97 127.359L118.972 127.357ZM119.451 100.247C119.672 100.518 119.877 100.748 120.051 100.931C120.947 101.877 121.854 101.739 122.403 101.297C122.882 100.91 123.154 100.211 122.685 99.5188C122.171 98.7631 121.774 98.7651 121.635 98.7689C120.99 98.7747 120.201 99.4222 119.451 100.249V100.247ZM119.529 87.5775C121.156 88.5592 122.474 88.3756 123.013 87.7804C123.361 87.3958 123.34 86.8856 122.955 86.3773C122.474 85.7434 122.059 85.7299 121.751 85.7898C121.061 85.9212 120.267 86.5938 119.529 87.5775ZM116.728 77.6827C117.494 78.0228 118.342 78.1987 118.97 77.7677C119.757 77.2286 119.942 76.0188 119.898 75.7695C119.792 75.1588 119.353 74.6061 118.922 74.5404C118.412 74.4592 117.776 75.0564 117.216 76.1309C117.007 76.5309 116.843 77.0624 116.728 77.6827Z" fill="#344966"/>
<path d="M108.674 93.4663C108.65 93.4663 108.625 93.4663 108.6 93.4625C108.121 93.4219 107.765 93.0025 107.806 92.5232C108.262 87.0386 106.789 82.4546 105.491 78.4116C104.832 76.3612 104.209 74.4228 103.974 72.6796C103.282 67.5777 103.417 67.4134 103.69 67.0849C103.844 66.8974 104.072 66.7814 104.314 66.7679C104.793 66.737 105.203 67.108 105.23 67.5873C105.236 67.6782 105.226 67.7651 105.205 67.8482C105.201 68.0569 105.226 68.9788 105.696 72.4439C105.912 74.0344 106.484 75.8162 107.145 77.8782C108.426 81.869 110.023 86.8376 109.538 92.6662C109.499 93.1204 109.12 93.4644 108.672 93.4644L108.674 93.4663ZM104.733 68.4241C104.635 68.4705 104.526 68.4995 104.41 68.5053C104.53 68.4995 104.637 68.4686 104.733 68.4241Z" fill="#344966"/>
<path d="M97.5353 138C97.1353 138 96.7758 137.724 96.6869 137.318C94.3137 126.59 98.1344 117.853 100.187 113.159C100.469 112.513 100.712 111.957 100.896 111.493C101.145 110.865 101.381 110.308 101.609 109.769C102.757 107.056 103.517 105.264 103.468 99.888C103.447 97.4279 102.763 95.7137 101.489 94.9271C101.134 94.7068 100.728 94.558 100.285 94.4807C99.408 98.2608 98.1673 100.184 96.5961 100.197H96.5806C95.5216 100.197 94.6191 99.2735 94.2809 97.8395C93.9156 96.2993 94.2867 94.3802 95.939 93.5705C96.9227 93.0873 97.9238 92.8013 98.8804 92.7105C100.525 83.9811 98.088 78.6027 96.455 74.9985C96.2154 74.469 95.9873 73.9685 95.798 73.5085C94.1456 69.4888 95.8753 67.4615 95.9506 67.3765L97.2551 68.5283L97.2667 68.5147C97.2223 68.5708 96.1941 69.9004 97.4058 72.8495C97.5836 73.2805 97.804 73.7675 98.0378 74.2835C99.6438 77.8259 102.282 83.6487 100.635 92.7801C101.275 92.8979 101.872 93.1202 102.403 93.4468C103.664 94.2256 105.175 95.9707 105.21 99.8726C105.26 105.61 104.402 107.64 103.211 110.448C102.987 110.977 102.755 111.522 102.514 112.133C102.318 112.626 102.069 113.196 101.781 113.855C99.808 118.367 96.1362 126.766 98.3857 136.941C98.49 137.411 98.1924 137.875 97.7247 137.979C97.661 137.992 97.5991 138 97.5353 138ZM98.4881 94.5213C97.9083 94.6334 97.3054 94.8382 96.7043 95.1339C95.9178 95.5204 95.7728 96.6007 95.9719 97.4414C96.14 98.1487 96.4782 98.4599 96.5806 98.4599C96.5903 98.4599 97.5527 98.2724 98.4881 94.5213Z" fill="#344966"/>
<path d="M91.4985 94.264C91.4348 94.264 91.3691 94.2562 91.3034 94.2427C90.8357 94.1364 90.5419 93.6687 90.6501 93.2011C92.9905 82.9507 91.0869 77.0931 89.5582 72.3854C89.0809 70.9186 88.6325 69.5329 88.3369 68.1337C87.0053 61.7988 90.6212 58.8555 90.7758 58.7337C91.1526 58.4361 91.6995 58.4999 91.9971 58.8767C92.2948 59.2517 92.231 59.7966 91.858 60.0943C91.7285 60.2005 88.9398 62.5486 90.0395 67.7743C90.3139 69.0826 90.7506 70.4258 91.2125 71.8462C92.8069 76.7568 94.7916 82.8676 92.345 93.5856C92.2522 93.9876 91.8947 94.262 91.4985 94.262V94.264Z" fill="#344966"/>
<path d="M85.2131 107.865C85.1107 107.865 85.0082 107.848 84.9077 107.809C84.4575 107.639 84.2314 107.139 84.4014 106.688C87.882 97.4468 84.6894 89.848 82.1249 83.7449L81.9992 83.4454C81.5026 82.2607 81.2262 81.078 81.176 79.9532C79.5855 78.7821 78.8975 76.3992 78.2191 72.1147C77.1601 65.4319 83.9724 57.0233 84.2642 56.6697C84.5695 56.2986 85.1165 56.2445 85.4875 56.5479C85.8586 56.8513 85.9146 57.4002 85.6093 57.7712C85.5436 57.8524 78.9999 65.9324 79.9372 71.8422C80.4184 74.8744 80.861 76.6176 81.4253 77.6341C81.7577 76.4282 82.4031 75.3808 83.2747 74.6464C84.5773 73.5487 86.1852 73.3284 87.3718 74.084C88.769 74.9749 89.3101 76.347 88.8193 77.7559C88.1622 79.644 85.8586 81.0606 83.7907 80.848C83.5124 80.819 83.2477 80.7804 82.9984 80.7282C83.1027 81.364 83.296 82.0462 83.6013 82.7748L83.7269 83.0743C86.2702 89.1271 89.7508 97.4159 86.0267 107.305C85.8953 107.653 85.5648 107.869 85.2131 107.869V107.865ZM82.9423 78.9309C83.2496 79.0237 83.5878 79.0758 83.9666 79.1145C85.3484 79.2556 86.8229 78.1907 87.1746 77.18C87.3969 76.5403 87.1553 76.0069 86.4345 75.547C85.905 75.2088 85.1029 75.3769 84.3937 75.9741C83.6999 76.5596 83.095 77.5684 82.9423 78.9309Z" fill="#344966"/>
<path d="M67.9552 132.769C67.6035 132.769 67.273 132.554 67.1416 132.206C63.2262 121.851 68.3978 115.064 71.8203 110.575C72.0387 110.289 72.2513 110.011 72.4523 109.742C72.5818 109.568 72.717 109.39 72.8543 109.209C76.1763 104.82 81.1952 98.1891 74.1336 85.4767C70.0385 78.1059 70.8328 71.1409 72.2184 66.5955C73.7142 61.6906 76.1493 58.5521 76.2517 58.4207C76.5474 58.0419 77.0943 57.9762 77.4731 58.2739C77.8519 58.5695 77.9176 59.1165 77.6219 59.4933C77.5987 59.5242 75.2584 62.5526 73.865 67.1637C72.0136 73.286 72.6165 79.163 75.6545 84.6321C83.2669 98.336 77.618 105.8 74.2418 110.26C74.1046 110.44 73.9732 110.615 73.8437 110.787C73.6389 111.06 73.4263 111.34 73.2041 111.632C69.824 116.067 65.1955 122.141 68.7688 131.595C68.9389 132.044 68.7128 132.546 68.2625 132.716C68.162 132.755 68.0576 132.772 67.9552 132.772V132.769Z" fill="#344966"/>
<path d="M50.1348 122.651C49.7174 122.651 49.3482 122.35 49.2787 121.925C48.4689 117.085 51.3233 111.108 54.5507 108.128C57.1771 105.701 61.1871 98.9677 61.0731 94.546C60.1532 95.2707 59.1676 95.8118 58.182 96.0514C56.8659 96.3703 55.6291 96.1249 54.6106 95.3422C53.5825 94.5518 53.1361 93.3941 53.3815 92.165C53.6869 90.6364 54.9778 89.3184 56.5934 88.8893C58.3115 88.4313 60.0817 89.0671 61.4519 90.6344C61.6239 90.8296 61.7766 91.0364 61.9138 91.2509C62.5902 90.4122 63.168 89.502 63.5739 88.6439C64.171 87.3761 64.2696 84.6068 63.8734 82.077C63.0366 83.1496 61.8693 84.0695 60.3214 84.0463C58.7792 84.0212 57.3703 82.9583 56.8157 81.4026C56.1857 79.6362 56.7712 77.7713 58.3811 76.4146C60.5436 74.5903 62.1573 75.3092 62.9265 75.9006C63.4077 76.2697 63.829 76.7973 64.1904 77.4331C65.6243 72.7253 65.0774 68.0195 64.5459 63.4568C64.2193 60.6468 63.9101 57.9915 64.0744 55.4463C64.5788 47.7044 72.282 47.9498 72.3593 47.9537C72.8386 47.975 73.2116 48.3808 73.1903 48.8601C73.1691 49.3394 72.7671 49.7143 72.2839 49.6911C72.0114 49.6795 66.2002 49.5442 65.8079 55.5584C65.6533 57.947 65.9529 60.5251 66.2698 63.2558C66.8515 68.2457 67.5086 73.8984 65.3112 79.4835C65.2668 79.5956 65.2165 79.7174 65.1586 79.8507C66.0978 83.1612 66.0746 87.4032 65.1412 89.3841C64.5595 90.619 63.684 91.9331 62.6443 93.0714C63.8386 98.5097 58.4216 106.916 55.7276 109.405C52.9022 112.016 50.2875 117.435 50.9909 121.639C51.0702 122.112 50.7513 122.56 50.2759 122.64C50.2276 122.647 50.1792 122.651 50.1309 122.651H50.1348ZM57.7047 90.4818C57.4612 90.4818 57.237 90.5166 57.0399 90.5707C56.0813 90.8258 55.26 91.6394 55.086 92.5071C54.9701 93.0869 55.1672 93.5777 55.6697 93.9643C56.2726 94.4281 56.9606 94.5576 57.7704 94.3624C58.727 94.1305 59.7358 93.4695 60.6654 92.5999C60.5281 92.3003 60.3542 92.0259 60.1397 91.7785C59.2584 90.7697 58.3984 90.4818 57.7047 90.4818ZM61.0866 76.9886C60.7079 76.9886 60.188 77.1606 59.4981 77.7442C58.01 78.9985 58.2709 80.3126 58.4506 80.8189C58.7637 81.6963 59.5251 82.2935 60.3465 82.307C60.3561 82.307 60.3658 82.307 60.3774 82.307C61.448 82.307 62.4916 81.3755 63.313 79.7116C62.9516 78.6274 62.4684 77.7462 61.8635 77.2804C61.7302 77.178 61.4848 76.9886 61.0866 76.9886Z" fill="#344966"/>
<path d="M51.5258 74.7263C51.1528 74.7263 50.8069 74.4847 50.6948 74.1078C50.5557 73.6479 50.8146 73.1628 51.2746 73.0237C53.2168 72.4362 57.6849 69.746 59.2986 66.7061C59.8745 65.62 60.0233 64.5996 59.7354 63.6778C59.5537 63.0961 59.3817 62.5704 59.2155 62.0622C58.056 58.5236 57.4163 56.5737 60.2475 53.3888C62.6458 50.6909 61.0457 48.0626 61.0283 48.0356C60.7732 47.6278 60.8968 47.0925 61.3027 46.8374C61.7085 46.5823 62.2458 46.706 62.5009 47.1118C63.3087 48.4008 64.1513 51.6128 61.5462 54.5445C59.3798 56.9834 59.7547 58.1255 60.8679 61.521C61.0283 62.0119 61.2099 62.5666 61.3954 63.1637C61.8245 64.5455 61.6351 66.0123 60.8331 67.5236C58.8812 71.2032 53.8913 74.0499 51.7771 74.6915C51.694 74.7166 51.6089 74.7282 51.5239 74.7282L51.5258 74.7263Z" fill="#344966"/>
<path d="M33.3923 95.7444C32.9923 95.7444 32.6328 95.468 32.5439 95.0603C28.5165 76.6912 39.9032 71.5854 45.3743 69.131C45.784 68.9474 46.1705 68.7735 46.5048 68.615L47.0769 68.3445C52.0609 65.9906 54.8071 64.4271 53.3132 59.6769C51.8174 54.917 53.091 53.0636 54.6467 51.4364C54.9463 51.1253 55.2033 50.8547 55.3695 50.5822C56.0923 49.3995 55.47 48.1685 55.4642 48.1569C55.2381 47.7336 55.3966 47.206 55.8198 46.9799C56.243 46.7538 56.7706 46.9123 56.9967 47.3355C57.0431 47.4206 58.1021 49.4459 56.8537 51.4886C56.5889 51.9234 56.2391 52.2868 55.9029 52.6404C54.7994 53.7922 53.6592 54.9827 54.9714 59.1551C56.9929 65.5847 52.3296 67.7879 47.817 69.9176L47.2489 70.1862C46.8971 70.3543 46.5009 70.5302 46.0835 70.7176C40.6433 73.1565 30.5167 77.6981 34.2407 94.6873C34.3432 95.1569 34.0475 95.6207 33.5779 95.7231C33.5141 95.7367 33.4523 95.7444 33.3904 95.7444H33.3923Z" fill="#344966"/>
<path d="M27.7844 76.5814C27.7148 76.5814 27.6452 76.5737 27.5757 76.5563C27.1099 76.4404 26.8239 75.9708 26.9399 75.5031C27.682 72.4979 31.006 66.4799 44.9494 59.9285C48.3662 58.3226 48.9151 55.5802 48.7064 51.3827C48.5073 47.361 51.2284 45.4149 52.6932 44.9473C53.1513 44.8023 53.6402 45.0536 53.7851 45.5116C53.9301 45.9677 53.6808 46.4547 53.2247 46.6035C53.0952 46.646 50.2601 47.6393 50.4418 51.2977C50.6737 55.9726 49.9529 59.4976 45.6877 61.5036C41.0959 63.6622 30.2388 69.3865 28.627 75.9224C28.5284 76.3186 28.1748 76.5834 27.7825 76.5834L27.7844 76.5814Z" fill="#344966"/>
<path d="M6.40092 108.874C4.7022 108.874 2.99767 108.526 1.45162 107.8C1.01679 107.595 0.829332 107.077 1.03418 106.642C1.23904 106.207 1.75503 106.02 2.19179 106.225C5.87526 107.954 10.7975 107.114 13.4007 104.313C15.8821 101.643 15.8937 97.7659 13.4355 93.3983C10.2158 87.6799 9.3133 82.1044 10.8246 77.2769C12.0885 73.2397 14.9796 69.9505 18.9684 68.016C19.811 67.6082 20.6807 67.1966 21.6006 66.7598C28.4805 63.5073 37.0418 59.4586 40.8934 53.0193C41.6162 51.8114 42.0046 50.7331 42.1495 49.7861C39.1502 50.6055 36.777 50.1881 35.6793 48.5995C34.8502 47.3994 35.0377 45.776 36.1586 44.4619C37.3742 43.0356 39.7995 42.9757 41.6819 44.3266C42.6288 45.0049 43.4154 46.0195 43.771 47.3356C49.8315 44.3575 50.6258 36.463 50.6335 36.3799C50.678 35.9025 51.0993 35.5508 51.5785 35.5933C52.0559 35.6358 52.4095 36.0591 52.367 36.5364C52.3322 36.9307 51.4375 45.9789 43.972 49.158C43.9236 50.5301 43.456 52.1226 42.3872 53.9121C38.2632 60.8056 29.4371 64.9799 22.3446 68.3329C21.4266 68.7658 20.5608 69.1755 19.7279 69.5814C16.1758 71.3052 13.6036 74.2234 12.4846 77.7967C11.1202 82.1547 11.9744 87.2547 14.9525 92.5461C17.7721 97.5533 17.6697 102.275 14.6762 105.498C12.6412 107.688 9.53554 108.874 6.40285 108.874H6.40092ZM38.7579 45.0919C38.2284 45.0919 37.7626 45.2562 37.4785 45.5886C36.8659 46.3055 36.7287 47.0612 37.1055 47.61C37.867 48.7116 40.072 48.6034 42.109 47.983C41.8925 46.9819 41.3417 46.2282 40.6634 45.7412C40.0662 45.3122 39.3686 45.0938 38.756 45.0938L38.7579 45.0919Z" fill="#344966"/>
<path d="M12.0856 63.5559C11.6334 63.5559 11.2508 63.2061 11.2198 62.7481C11.187 62.2688 11.5484 61.8533 12.0257 61.8204C20.9001 61.1981 27.5462 54.3974 28.9318 49.7264C28.9627 49.624 28.9898 49.5216 29.0169 49.423C28.7618 49.4694 28.4854 49.4694 28.1878 49.4114C26.9896 49.1834 25.9344 47.8982 26.2475 46.1435C26.433 45.0979 26.9935 44.3539 27.7858 44.1007C28.4989 43.8708 29.2874 44.0891 29.8942 44.6805C29.931 44.7172 29.9677 44.7539 30.0025 44.7926C31.2664 40.9294 34.6522 38.8113 41.0355 37.7986C47.5521 36.7666 48.5957 30.7119 48.6363 30.4549C48.7116 29.9814 49.1581 29.6587 49.6315 29.7321C50.105 29.8075 50.4297 30.25 50.3563 30.7235C50.3447 30.8008 50.047 32.6541 48.7909 34.6563C47.6236 36.5173 45.378 38.8731 41.308 39.5186C33.5623 40.7458 31.966 43.519 31.3939 46.3328C31.3069 46.7638 31.1697 47.2064 30.9823 47.6161C30.9997 48.4142 30.8741 49.2955 30.5996 50.2212C29.1289 55.1801 22.2471 62.8466 12.1475 63.5559C12.1262 63.5559 12.1069 63.5578 12.0856 63.5578V63.5559ZM28.3598 45.7492C28.3443 45.7492 28.3308 45.7511 28.3173 45.755C28.1974 45.7937 28.0351 46.0256 27.9617 46.4469C27.8264 47.2064 28.2129 47.6451 28.5144 47.703C28.7289 47.7436 28.9859 47.6045 29.2178 47.2547C29.1405 46.6131 28.926 46.1686 28.6767 45.9251C28.5646 45.8149 28.4448 45.7511 28.3598 45.7511V45.7492Z" fill="#344966"/>
<path d="M0.871678 62.6047C0.811768 62.6047 0.749926 62.5989 0.688084 62.5854C0.21847 62.4849 -0.0810776 62.023 0.0194159 61.5534C1.62538 54.055 6.67324 50.6035 8.77008 49.4671C9.73636 48.9434 10.7007 48.553 11.5839 48.3153C12.0632 47.1867 12.7724 46.0929 13.5339 45.2097C14.4228 44.1777 15.9206 42.9157 17.5091 42.249C18.2203 40.272 19.7045 38.867 22.1473 37.8041C25.0346 36.5479 29.3461 35.7594 34.68 34.8569C44.7429 33.1563 44.2327 28.033 44.2056 27.8166C44.1476 27.3431 44.48 26.9063 44.9535 26.8445C45.427 26.7827 45.8599 27.1054 45.9295 27.5769C45.9701 27.861 46.7991 34.5728 34.9699 36.573C26.0376 38.0824 21.4902 39.1182 19.6929 41.7852C19.9384 41.7929 20.18 41.8238 20.4177 41.8818C21.2873 42.0963 22.4217 42.7688 22.8855 44.7594C23.4228 47.0649 22.3348 48.151 21.842 48.5124C20.9646 49.154 19.7664 49.1908 18.7904 48.6091C17.5536 47.8708 16.9216 46.3441 17.0511 44.4618C16.2394 44.9778 15.451 45.6522 14.8519 46.348C14.39 46.8852 13.9841 47.4669 13.6556 48.0525C13.9745 48.0718 14.2605 48.1259 14.504 48.2206C15.9805 48.7869 17.2057 51.0267 16.5139 52.9573C15.9476 54.542 14.417 54.6619 13.2768 54.2831C12.1443 53.9062 11.3906 53.1448 11.0969 52.08C10.9481 51.5408 10.9268 50.9533 11.0061 50.3445C10.5654 50.5165 10.092 50.733 9.59915 51.0016C7.7149 52.0239 3.1753 55.1315 1.72201 61.9225C1.63504 62.3303 1.27365 62.6105 0.871678 62.6105V62.6047ZM12.8922 49.8188C12.6932 50.5107 12.641 51.1388 12.7724 51.6123C12.9096 52.1128 13.244 52.4355 13.8257 52.6269C14.6818 52.9129 14.8074 52.5573 14.877 52.366C15.1553 51.5872 14.6876 50.1474 13.8817 49.8382C13.6981 49.7667 13.3541 49.7531 12.8942 49.8169L12.8922 49.8188ZM18.9276 43.6056C18.8851 43.7931 18.8523 43.9864 18.8233 44.1874C18.632 45.5865 18.9528 46.6784 19.6794 47.1133C20.0621 47.3413 20.495 47.3374 20.8138 47.1055C21.2641 46.7751 21.4013 46.0639 21.1888 45.1517C20.8699 43.7834 20.2147 43.6211 20.0002 43.5689C19.6891 43.4916 19.3219 43.511 18.9276 43.6076V43.6056Z" fill="#344966"/>
<path d="M108.346 46.6456C108.155 46.6456 107.988 46.5026 107.963 46.3074C107.936 46.0948 108.085 45.9016 108.298 45.8745C108.356 45.8668 108.414 45.8591 108.473 45.8475C108.684 45.8127 108.883 45.9538 108.92 46.1644C108.957 46.375 108.814 46.5741 108.603 46.6108C108.533 46.6224 108.464 46.634 108.396 46.6417C108.379 46.6437 108.363 46.6456 108.346 46.6456ZM106.456 46.3982C106.404 46.3982 106.352 46.3886 106.301 46.3654C106.238 46.3364 106.174 46.3074 106.108 46.2746C105.917 46.1799 105.839 45.948 105.934 45.7566C106.029 45.5653 106.263 45.488 106.452 45.5827C106.504 45.6078 106.556 45.6329 106.609 45.6561C106.804 45.7412 106.893 45.9692 106.808 46.1644C106.744 46.3093 106.603 46.3963 106.454 46.3963L106.456 46.3982ZM110.377 46.0349C110.226 46.0349 110.083 45.946 110.021 45.7991C109.938 45.602 110.029 45.3759 110.226 45.2928C110.282 45.2696 110.34 45.2445 110.398 45.2174C110.594 45.1324 110.822 45.2194 110.909 45.4146C110.995 45.6098 110.907 45.8378 110.711 45.9248C110.65 45.9518 110.59 45.9789 110.53 46.004C110.481 46.0253 110.429 46.0349 110.379 46.0349H110.377ZM104.769 45.1324C104.666 45.1324 104.564 45.0918 104.487 45.0107C104.44 44.9623 104.396 44.9121 104.349 44.8618C104.206 44.7034 104.218 44.4599 104.376 44.3169C104.535 44.1739 104.78 44.1874 104.921 44.3439C104.964 44.3903 105.005 44.4348 105.047 44.4792C105.194 44.6338 105.186 44.8792 105.032 45.0261C104.956 45.0957 104.862 45.1305 104.767 45.1305L104.769 45.1324ZM112.294 45.115C112.153 45.115 112.018 45.0377 111.95 44.9044C111.854 44.715 111.929 44.4811 112.118 44.3845L112.288 44.2975C112.478 44.199 112.712 44.2743 112.81 44.4637C112.909 44.6531 112.833 44.887 112.644 44.9855L112.47 45.0744C112.414 45.1034 112.354 45.1169 112.294 45.1169V45.115ZM114.223 44.226C114.064 44.226 113.918 44.1294 113.86 43.9709C113.786 43.7699 113.89 43.5477 114.091 43.4762C114.155 43.453 114.217 43.4318 114.281 43.4105C114.484 43.3409 114.702 43.4491 114.772 43.6521C114.841 43.8531 114.733 44.0734 114.53 44.1429C114.472 44.1623 114.414 44.1835 114.354 44.2048C114.312 44.2202 114.265 44.228 114.223 44.228V44.226ZM122.8 44.0695C122.773 44.0695 122.745 44.0676 122.718 44.0618L122.531 44.0231C122.322 43.9806 122.187 43.7757 122.229 43.567C122.272 43.3583 122.477 43.223 122.686 43.2655L122.877 43.3061C123.086 43.3506 123.219 43.5554 123.175 43.7642C123.136 43.9458 122.975 44.0695 122.798 44.0695H122.8ZM120.707 43.6984C120.689 43.6984 120.672 43.6984 120.654 43.6946L120.467 43.6695C120.254 43.6424 120.106 43.4491 120.133 43.2366C120.16 43.0259 120.351 42.8752 120.566 42.9022L120.761 42.9274C120.971 42.9563 121.12 43.1515 121.091 43.3622C121.064 43.5554 120.9 43.6965 120.709 43.6965L120.707 43.6984ZM116.277 43.6946C116.092 43.6946 115.927 43.5593 115.896 43.3699C115.862 43.1593 116.005 42.9602 116.215 42.9274C116.281 42.9158 116.347 42.9061 116.412 42.8964C116.625 42.8674 116.82 43.0105 116.851 43.2211C116.882 43.4318 116.737 43.6289 116.526 43.6598C116.465 43.6695 116.403 43.6791 116.341 43.6888C116.32 43.6926 116.298 43.6946 116.279 43.6946H116.277ZM103.296 43.6037C103.203 43.6037 103.109 43.5709 103.035 43.5013C102.989 43.4588 102.942 43.4163 102.896 43.3738C102.738 43.2308 102.724 42.9873 102.867 42.8288C103.01 42.6703 103.254 42.6568 103.412 42.7998C103.46 42.8442 103.511 42.8887 103.559 42.9331C103.716 43.0781 103.727 43.3216 103.582 43.4801C103.507 43.5632 103.402 43.6057 103.298 43.6057L103.296 43.6037ZM118.589 43.5322H118.583C118.519 43.5322 118.457 43.5322 118.393 43.5322C118.181 43.5322 118.007 43.3583 118.009 43.1438C118.009 42.9312 118.183 42.7592 118.395 42.7592C118.459 42.7554 118.529 42.7592 118.594 42.7592C118.807 42.7631 118.979 42.937 118.975 43.1515C118.971 43.3622 118.799 43.5322 118.589 43.5322ZM101.603 42.3244C101.538 42.3244 101.47 42.307 101.41 42.2722C101.356 42.2413 101.304 42.2104 101.25 42.1814C101.062 42.079 100.994 41.8432 101.097 41.6557C101.199 41.4683 101.435 41.4006 101.623 41.503C101.681 41.5359 101.74 41.5688 101.798 41.6016C101.984 41.7079 102.046 41.9456 101.939 42.1292C101.868 42.2529 101.738 42.3225 101.605 42.3225L101.603 42.3244ZM89.0725 42.0016C89.0725 42.0016 89.0628 42.0016 89.0589 42.0016C88.9932 41.9997 88.9275 41.9959 88.8618 41.9939C88.6492 41.9843 88.483 41.8026 88.4946 41.59C88.5043 41.3774 88.6917 41.219 88.8985 41.2228C88.9604 41.2267 89.0241 41.2286 89.086 41.2306C89.2986 41.2383 89.4667 41.4161 89.459 41.6306C89.4512 41.8393 89.2792 42.0036 89.0725 42.0036V42.0016ZM91.0031 41.9572C90.8021 41.9572 90.632 41.8007 90.6185 41.5977C90.603 41.3852 90.7654 41.1996 90.978 41.1861L91.1674 41.1726C91.3838 41.1571 91.5655 41.3156 91.5829 41.5282C91.6003 41.7408 91.4398 41.9263 91.2273 41.9437L91.0321 41.9572C91.0321 41.9572 91.0147 41.9572 91.005 41.9572H91.0031ZM93.1173 41.7446C92.926 41.7446 92.7579 41.6016 92.7347 41.4064C92.7076 41.1938 92.8583 41.0025 93.0709 40.9755L93.2623 40.9523C93.471 40.9252 93.6681 41.074 93.6952 41.2866C93.7222 41.4992 93.5715 41.6924 93.3608 41.7195L93.1676 41.7427C93.1521 41.7446 93.1347 41.7466 93.1192 41.7466L93.1173 41.7446ZM86.9698 41.7234C86.937 41.7234 86.9041 41.7195 86.8713 41.7098C86.8036 41.6924 86.7379 41.6731 86.6741 41.6538C86.4693 41.5919 86.3533 41.3774 86.4152 41.1726C86.477 40.9677 86.6915 40.8498 86.8964 40.9136C86.9544 40.931 87.0123 40.9465 87.0703 40.9619C87.2771 41.016 87.4008 41.2286 87.3447 41.4335C87.2984 41.6074 87.1418 41.7214 86.9718 41.7214L86.9698 41.7234ZM99.6417 41.534C99.6107 41.534 99.5817 41.5301 99.5508 41.5224C99.4909 41.5088 99.431 41.4934 99.3711 41.4818C99.1624 41.4354 99.031 41.2306 99.0754 41.0218C99.1218 40.8131 99.3286 40.6817 99.5354 40.7262C99.6011 40.7397 99.6668 40.7551 99.7325 40.7725C99.9393 40.8228 100.067 41.0315 100.017 41.2402C99.9741 41.418 99.8156 41.5359 99.6417 41.5359V41.534ZM95.2972 41.4567L95.2257 41.076L95.189 40.6914L95.363 40.6682C95.5717 40.6392 95.7688 40.7861 95.7978 40.9986C95.8268 41.2093 95.6799 41.4045 95.4673 41.4335L95.2934 41.4567H95.2972ZM97.5371 41.2885H97.4405H97.3477L97.3438 40.5155H97.4405H97.541C97.7535 40.5155 97.9275 40.6914 97.9255 40.904C97.9255 41.1165 97.7516 41.2885 97.539 41.2885H97.5371ZM85.0894 40.7745C84.9986 40.7745 84.9078 40.7436 84.8343 40.6778C84.7802 40.6315 84.728 40.5831 84.6778 40.5329C84.5251 40.3841 84.5213 40.1387 84.6701 39.986C84.8189 39.8333 85.0643 39.8294 85.217 39.9783C85.2576 40.0188 85.3001 40.0575 85.3445 40.0961C85.5049 40.2372 85.5223 40.4807 85.3812 40.6411C85.3039 40.7281 85.1977 40.7725 85.0894 40.7725V40.7745ZM83.9608 39.0062C83.8081 39.0062 83.6651 38.9153 83.6033 38.7665C83.5801 38.7105 83.5569 38.6544 83.5318 38.5965C83.4468 38.4013 83.5357 38.1732 83.7308 38.0882C83.928 38.0032 84.1541 38.0921 84.2391 38.2873C84.2662 38.3491 84.2932 38.4109 84.3183 38.4728C84.3995 38.6699 84.3048 38.896 84.1077 38.9772C84.0594 38.9965 84.0091 39.0062 83.9608 39.0062ZM82.9269 37.1528C82.8051 37.1528 82.6873 37.0968 82.6119 36.9905C82.5752 36.9403 82.5404 36.89 82.5017 36.8398C82.3742 36.6678 82.4109 36.4262 82.5829 36.2986C82.7549 36.1711 82.9965 36.2078 83.124 36.3798C83.1646 36.4339 83.2032 36.488 83.2419 36.5421C83.3656 36.7161 83.325 36.9577 83.1511 37.0813C83.0834 37.1297 83.0042 37.1528 82.9269 37.1528ZM81.5316 35.5527C81.4369 35.5527 81.3403 35.5179 81.2649 35.4464C81.2204 35.4039 81.1741 35.3614 81.1277 35.3188C80.9711 35.1739 80.9595 34.9304 81.1045 34.7719C81.2494 34.6154 81.4929 34.6038 81.6514 34.7487C81.6997 34.7932 81.75 34.8396 81.7983 34.884C81.9529 35.0309 81.9606 35.2763 81.8137 35.4309C81.7384 35.5121 81.6359 35.5507 81.5335 35.5507L81.5316 35.5527ZM79.8638 34.2385C79.7903 34.2385 79.7188 34.2192 79.6531 34.1748C79.6009 34.1419 79.5488 34.1071 79.4966 34.0743C79.3149 33.9602 79.2608 33.7225 79.3748 33.5409C79.4889 33.3611 79.7266 33.3051 79.9082 33.4191C79.9643 33.4539 80.0203 33.4906 80.0764 33.5273C80.2561 33.6433 80.3063 33.8829 80.1884 34.0627C80.115 34.1767 79.9913 34.2385 79.8638 34.2385ZM77.9911 33.2394C77.9409 33.2394 77.8887 33.2297 77.8384 33.2085C77.7824 33.1833 77.7244 33.1602 77.6664 33.137C77.4693 33.0558 77.3746 32.8316 77.4539 32.6326C77.5331 32.4335 77.7592 32.3388 77.9583 32.42C78.0201 32.4451 78.0819 32.4702 78.1438 32.4973C78.3409 32.5804 78.4317 32.8084 78.3467 33.0056C78.2829 33.1524 78.1419 33.2394 77.9911 33.2394ZM75.9754 32.5746C75.9465 32.5746 75.9155 32.5707 75.8846 32.5649C75.8228 32.5495 75.7629 32.5359 75.701 32.5224C75.4923 32.476 75.3628 32.2692 75.4092 32.0605C75.4556 31.8518 75.6643 31.7223 75.8711 31.7687C75.9349 31.7842 76.0006 31.7977 76.0643 31.8132C76.2731 31.8634 76.4006 32.0702 76.3504 32.2789C76.3079 32.4567 76.1494 32.5765 75.9754 32.5765V32.5746ZM69.4472 32.4664C69.2347 32.4664 69.0607 32.2944 69.0607 32.0818C69.0607 31.8692 69.2327 31.6953 69.4453 31.6933C69.5033 31.6933 69.5632 31.6933 69.625 31.6895C69.8415 31.6759 70.0173 31.8479 70.0251 32.0605C70.0328 32.2731 69.8666 32.4528 69.654 32.4606C69.5845 32.4625 69.5149 32.4644 69.4472 32.4644V32.4664ZM71.5615 32.2538C71.3624 32.2538 71.1923 32.1011 71.1769 31.8982C71.1595 31.6856 71.3199 31.5001 71.5325 31.4827C71.5982 31.4769 71.6658 31.473 71.7315 31.4692C71.9422 31.4576 72.1277 31.616 72.1432 31.8306C72.1567 32.0431 71.9963 32.2267 71.7818 32.2422C71.7199 32.2461 71.6562 32.2499 71.5943 32.2557C71.5847 32.2557 71.5731 32.2557 71.5634 32.2557L71.5615 32.2538ZM73.8786 32.248C73.869 32.248 73.8593 32.248 73.8477 32.248C73.7858 32.2441 73.7221 32.2383 73.6602 32.2345C73.4476 32.2209 73.2853 32.0373 73.2988 31.8248C73.3124 31.6122 73.4998 31.4498 73.7085 31.4634C73.7743 31.4672 73.84 31.473 73.9057 31.4769C74.1183 31.4924 74.2787 31.6798 74.2613 31.8924C74.2458 32.0953 74.0757 32.2499 73.8767 32.2499L73.8786 32.248ZM67.648 31.9388C67.563 31.9388 67.478 31.9117 67.4084 31.8557C67.3485 31.8093 67.2924 31.759 67.2383 31.7088C67.0837 31.5619 67.076 31.3165 67.2229 31.1619C67.3697 31.0073 67.6152 30.9995 67.7698 31.1464C67.8084 31.1831 67.8471 31.2179 67.8896 31.2508C68.0577 31.3841 68.0848 31.6276 67.9514 31.7938C67.8761 31.8905 67.762 31.9407 67.648 31.9407V31.9388ZM66.6199 30.1299C66.4498 30.1299 66.2933 30.0159 66.2469 29.8439C66.2295 29.7801 66.2121 29.7144 66.1967 29.6487C66.1445 29.4419 66.272 29.2312 66.4788 29.181C66.6856 29.1288 66.8963 29.2564 66.9465 29.4632C66.962 29.5231 66.9774 29.583 66.9929 29.6429C67.0489 29.8497 66.9272 30.0603 66.7204 30.1164C66.6875 30.126 66.6527 30.1299 66.6199 30.1299ZM66.2276 28.0389C66.0401 28.0389 65.8759 27.9016 65.8469 27.7103L65.8179 27.519C65.785 27.3083 65.93 27.1112 66.1406 27.0784C66.3532 27.0455 66.5484 27.1905 66.5812 27.4011L66.6102 27.5924C66.6431 27.8031 66.4981 28.0002 66.2856 28.0331C66.2662 28.0369 66.2469 28.0369 66.2276 28.0369V28.0389ZM65.8623 25.942C65.6845 25.942 65.5241 25.8183 65.4855 25.6367C65.4719 25.5748 65.4584 25.5149 65.4449 25.4531C65.3966 25.2444 65.5261 25.0376 65.7348 24.9893C65.9416 24.941 66.1503 25.0704 66.1986 25.2791C66.2141 25.3429 66.2276 25.4086 66.2411 25.4724C66.2856 25.6811 66.1541 25.886 65.9454 25.9324C65.9184 25.9382 65.8894 25.9401 65.8643 25.9401L65.8623 25.942ZM65.2516 23.909C65.099 23.909 64.954 23.8181 64.8922 23.6674C64.869 23.6113 64.8458 23.5534 64.8207 23.4973C64.7356 23.3021 64.8265 23.0741 65.0236 22.9891C65.2188 22.904 65.4468 22.9949 65.5319 23.192C65.5589 23.2538 65.584 23.3157 65.6092 23.3794C65.6884 23.5785 65.5937 23.8027 65.3946 23.8819C65.3463 23.9012 65.298 23.9109 65.2497 23.9109L65.2516 23.909ZM64.2312 22.0537C64.1114 22.0537 63.9935 21.9996 63.9182 21.8952C63.8814 21.8469 63.8447 21.7967 63.808 21.7484C63.6785 21.5783 63.7094 21.3367 63.8795 21.2072C64.0496 21.0778 64.2911 21.1087 64.4206 21.2787C64.4612 21.3328 64.5018 21.387 64.5424 21.4411C64.668 21.6131 64.6313 21.8546 64.4574 21.9803C64.3878 22.0305 64.3085 22.0537 64.2293 22.0537H64.2312ZM62.7722 20.525C62.6871 20.525 62.6002 20.496 62.5286 20.4381C62.4823 20.3994 62.434 20.3608 62.3856 20.324C62.2175 20.1926 62.1866 19.9511 62.3161 19.781C62.4475 19.6109 62.6891 19.5819 62.8591 19.7114C62.9132 19.752 62.9654 19.7945 63.0176 19.837C63.1838 19.9723 63.2089 20.2158 63.0736 20.3801C62.9963 20.4748 62.8862 20.5231 62.7741 20.5231L62.7722 20.525ZM60.9884 19.3868C60.9304 19.3868 60.8705 19.3732 60.8145 19.3462C60.7603 19.3191 60.7043 19.2921 60.6483 19.265C60.455 19.1722 60.3738 18.9423 60.4666 18.749C60.5594 18.5558 60.7913 18.4765 60.9826 18.5673C61.0425 18.5963 61.1024 18.6253 61.1623 18.6562C61.3537 18.7529 61.429 18.9848 61.3343 19.1761C61.2667 19.3114 61.1295 19.3887 60.9884 19.3887V19.3868ZM59.023 18.5963C58.9805 18.5963 58.9399 18.5886 58.8974 18.5751L58.7118 18.5094C58.5108 18.4379 58.4046 18.2176 58.4761 18.0166C58.5476 17.8156 58.7679 17.7093 58.9689 17.7808L59.1486 17.8426C59.3496 17.9122 59.4578 18.1325 59.3882 18.3335C59.3322 18.4939 59.1834 18.5944 59.023 18.5944V18.5963ZM57.0711 17.7595C57.0092 17.7595 56.9474 17.7441 56.8894 17.7132C56.8295 17.6822 56.7715 17.6494 56.7136 17.6165C56.528 17.5122 56.4604 17.2764 56.5647 17.0909C56.6691 16.9053 56.9029 16.8377 57.0904 16.9421C57.1445 16.971 57.1986 17.002 57.2527 17.031C57.4402 17.1314 57.5117 17.3653 57.4112 17.5547C57.3416 17.6861 57.2083 17.7595 57.0691 17.7595H57.0711ZM55.326 16.5555C55.2332 16.5555 55.1404 16.5227 55.067 16.457C55.0168 16.4106 54.9665 16.3662 54.9182 16.3198C54.7636 16.1729 54.7559 15.9275 54.9027 15.7729C55.0496 15.6183 55.2951 15.6105 55.4497 15.7574C55.4941 15.7999 55.5386 15.8405 55.5849 15.8811C55.7434 16.0241 55.755 16.2676 55.6139 16.428C55.5366 16.513 55.4323 16.5555 55.326 16.5555ZM53.9964 14.9129C53.8611 14.9129 53.7297 14.8414 53.6582 14.7157C53.6253 14.6558 53.5925 14.5959 53.5615 14.5341C53.463 14.3447 53.5364 14.1108 53.7277 14.0123C53.9171 13.9137 54.151 13.9891 54.2495 14.1785C54.2766 14.2307 54.3056 14.2848 54.3346 14.337C54.4389 14.5225 54.3732 14.7583 54.1858 14.8626C54.1259 14.8955 54.0621 14.9109 53.9964 14.9109V14.9129ZM53.3026 12.9146C53.1171 12.9146 52.9528 12.7812 52.9219 12.5919C52.9103 12.5242 52.9006 12.4566 52.8909 12.3889C52.862 12.1783 53.0108 11.9831 53.2233 11.9541C53.4359 11.927 53.6292 12.0739 53.6582 12.2865C53.6659 12.3464 53.6756 12.4063 53.6852 12.4643C53.72 12.675 53.5789 12.874 53.3683 12.9088C53.347 12.9127 53.3258 12.9146 53.3045 12.9146H53.3026ZM53.2678 10.7965C53.2523 10.7965 53.2388 10.7965 53.2233 10.7946C53.0108 10.7694 52.86 10.5781 52.8832 10.3655C52.8909 10.2998 52.8987 10.2322 52.9083 10.1665C52.9373 9.95583 53.1325 9.80895 53.3432 9.83601C53.5538 9.865 53.7026 10.0602 53.6736 10.2708C53.6659 10.3327 53.6582 10.3926 53.6504 10.4544C53.6272 10.6516 53.461 10.7965 53.2678 10.7965ZM53.7239 8.72285C53.6852 8.72285 53.6446 8.71705 53.606 8.70353C53.4031 8.63782 53.291 8.42137 53.3567 8.21652C53.3779 8.15274 53.3973 8.0909 53.4185 8.02713C53.4862 7.82421 53.7065 7.71598 53.9075 7.78362C54.1104 7.85126 54.2186 8.07158 54.151 8.27256C54.1317 8.33247 54.1123 8.39238 54.093 8.45229C54.0408 8.61656 53.8881 8.72092 53.7258 8.72092L53.7239 8.72285ZM54.5201 6.75163C54.464 6.75163 54.4061 6.74004 54.352 6.71298C54.1606 6.62022 54.0795 6.38831 54.1742 6.19699C54.2032 6.13708 54.2321 6.07717 54.2631 6.01919C54.3597 5.82787 54.5916 5.7525 54.781 5.84719C54.9723 5.94382 55.0496 6.17573 54.953 6.36512C54.9259 6.42116 54.8969 6.47721 54.8699 6.53519C54.8023 6.6724 54.665 6.75357 54.522 6.75357L54.5201 6.75163ZM55.5733 4.9041C55.4999 4.9041 55.4245 4.88284 55.3569 4.83839C55.1791 4.71857 55.1327 4.47894 55.2525 4.30114C55.3279 4.18905 55.3704 4.13107 55.3704 4.13107C55.496 3.95714 55.7376 3.92042 55.9096 4.04411C56.0835 4.16972 56.1222 4.40936 55.9966 4.58329C55.9946 4.58523 55.9579 4.63741 55.8922 4.73403C55.8168 4.84419 55.6951 4.9041 55.5714 4.9041H55.5733Z" fill="#344966"/>
<path d="M131.194 49.2643C131.174 49.2643 131.157 49.2643 131.138 49.2605C131.068 49.2508 131 49.2392 130.933 49.2276C130.722 49.1889 130.583 48.988 130.622 48.7773C130.66 48.5667 130.861 48.4294 131.072 48.4662C131.13 48.4778 131.19 48.4874 131.248 48.4952C131.458 48.5261 131.605 48.7213 131.574 48.9319C131.547 49.1252 131.381 49.2624 131.192 49.2624L131.194 49.2643ZM133.109 49.1677C132.937 49.1677 132.78 49.0517 132.736 48.8778C132.682 48.671 132.805 48.4604 133.012 48.4063C133.068 48.3908 133.126 48.3753 133.182 48.3579C133.387 48.2942 133.602 48.4121 133.665 48.615C133.727 48.8198 133.613 49.0343 133.408 49.0981C133.341 49.1194 133.275 49.1368 133.207 49.1542C133.175 49.1619 133.142 49.1658 133.111 49.1658L133.109 49.1677ZM129.184 48.5956C129.124 48.5956 129.064 48.5821 129.008 48.5531C128.946 48.5222 128.888 48.4894 128.828 48.4584C128.641 48.356 128.571 48.1202 128.675 47.9347C128.778 47.7473 129.014 47.6796 129.199 47.782C129.251 47.811 129.306 47.84 129.362 47.869C129.551 47.9676 129.626 48.1995 129.528 48.3889C129.46 48.5222 129.325 48.5976 129.184 48.5976V48.5956ZM134.993 48.2169C134.877 48.2169 134.763 48.1666 134.688 48.0681C134.556 47.8999 134.587 47.6564 134.755 47.525C134.804 47.4883 134.85 47.4496 134.898 47.411C135.065 47.2757 135.308 47.2989 135.441 47.4651C135.577 47.6294 135.553 47.8729 135.387 48.0081C135.335 48.0526 135.281 48.0932 135.229 48.1357C135.157 48.1898 135.074 48.2169 134.991 48.2169H134.993ZM127.433 47.3955C127.34 47.3955 127.249 47.3627 127.174 47.297C127.071 47.2042 127.017 47.1501 127.017 47.1501C126.867 46.9993 126.867 46.7539 127.017 46.6032C127.168 46.4524 127.412 46.4524 127.562 46.6032C127.562 46.6032 127.611 46.6515 127.69 46.7211C127.848 46.8641 127.862 47.1076 127.719 47.268C127.644 47.353 127.537 47.3955 127.431 47.3955H127.433ZM136.464 46.694C136.383 46.694 136.301 46.6689 136.232 46.6167C136.062 46.4892 136.027 46.2456 136.155 46.0756C136.191 46.0273 136.228 45.977 136.267 45.9248C136.392 45.7528 136.634 45.7142 136.806 45.8398C136.978 45.9654 137.016 46.207 136.891 46.379C136.852 46.4331 136.812 46.4872 136.773 46.5394C136.698 46.6399 136.582 46.694 136.464 46.694ZM137.588 44.8929C137.529 44.8929 137.467 44.8793 137.409 44.8484C137.219 44.7498 137.146 44.516 137.246 44.3266C137.275 44.2706 137.304 44.2145 137.333 44.1585C137.43 43.9691 137.664 43.8937 137.853 43.9903C138.043 44.087 138.12 44.3208 138.021 44.5102C137.99 44.5701 137.961 44.6281 137.931 44.6861C137.861 44.8175 137.728 44.8929 137.588 44.8929Z" fill="#344966"/>
<path d="M139.344 60.2705H139.336C139.263 60.2705 139.187 60.2647 139.114 60.2569C138.901 60.2357 138.747 60.0482 138.766 59.8356C138.787 59.6231 138.973 59.4685 139.187 59.4878C139.241 59.4936 139.297 59.4955 139.351 59.4974C139.564 59.5013 139.734 59.6791 139.73 59.8917C139.726 60.1023 139.554 60.2705 139.344 60.2705ZM141.203 59.8067C141.06 59.8067 140.923 59.7274 140.857 59.5921C140.762 59.4008 140.841 59.1689 141.033 59.0742C141.124 59.0298 141.176 58.9988 141.182 58.9969C141.365 58.8906 141.601 58.9525 141.709 59.1361C141.817 59.3196 141.754 59.5554 141.57 59.6636C141.57 59.6636 141.5 59.7042 141.375 59.7661C141.319 59.7931 141.261 59.8067 141.205 59.8067H141.203ZM137.568 59.2829C137.44 59.2829 137.316 59.2211 137.241 59.1051C137.202 59.0452 137.166 58.9814 137.129 58.9157C137.027 58.7283 137.094 58.4944 137.282 58.392C137.469 58.2896 137.703 58.3572 137.805 58.5447C137.832 58.5949 137.861 58.6432 137.89 58.6877C138.006 58.8674 137.954 59.1071 137.775 59.2211C137.711 59.2617 137.637 59.2829 137.566 59.2829H137.568ZM126.293 57.6518C126.262 57.6518 126.229 57.648 126.198 57.6402C126.131 57.6228 126.063 57.6035 125.994 57.5842C125.789 57.5224 125.675 57.3059 125.737 57.1011C125.798 56.8962 126.015 56.7822 126.22 56.844C126.276 56.8614 126.332 56.8769 126.388 56.8904C126.595 56.9426 126.72 57.1532 126.668 57.36C126.624 57.5359 126.467 57.6518 126.293 57.6518ZM128.193 57.5707C128.032 57.5707 127.884 57.4702 127.828 57.3117C127.758 57.1107 127.864 56.8904 128.065 56.8189C128.119 56.7996 128.174 56.7803 128.228 56.7571C128.427 56.6778 128.651 56.7725 128.73 56.9696C128.811 57.1668 128.715 57.3929 128.518 57.4721C128.452 57.4992 128.384 57.5243 128.318 57.5475C128.276 57.5629 128.233 57.5687 128.191 57.5687L128.193 57.5707ZM107.665 57.3735C107.468 57.3735 107.3 57.2228 107.281 57.0238C107.261 56.8112 107.416 56.6218 107.628 56.6025C107.686 56.5967 107.746 56.5909 107.804 56.5831C108.017 56.5541 108.21 56.7029 108.239 56.9136C108.268 57.1242 108.119 57.3194 107.909 57.3484C107.839 57.3581 107.769 57.3658 107.702 57.3716C107.69 57.3716 107.677 57.3716 107.665 57.3716V57.3735ZM136.957 57.2692C136.764 57.2692 136.598 57.1242 136.574 56.9291C136.567 56.8672 136.559 56.8092 136.551 56.7493C136.518 56.5387 136.665 56.3416 136.876 56.3087C137.088 56.2778 137.284 56.4227 137.316 56.6334C137.326 56.6991 137.336 56.7687 137.344 56.8363C137.369 57.0489 137.218 57.2402 137.005 57.2653C136.99 57.2653 136.974 57.2673 136.959 57.2673L136.957 57.2692ZM105.748 57.2131C105.725 57.2131 105.702 57.2131 105.678 57.2073L105.485 57.1706C105.276 57.13 105.137 56.9291 105.178 56.7184C105.218 56.5097 105.419 56.3725 105.63 56.4111L105.816 56.4459C106.026 56.4846 106.165 56.6856 106.127 56.8943C106.094 57.0817 105.93 57.2112 105.746 57.2112L105.748 57.2131ZM109.712 56.8266C109.559 56.8266 109.414 56.7358 109.354 56.587C109.273 56.3899 109.368 56.1638 109.565 56.0826C109.623 56.0594 109.681 56.0343 109.739 56.0092C109.936 55.9261 110.162 56.0169 110.245 56.214C110.328 56.4111 110.237 56.6372 110.04 56.7203C109.978 56.7455 109.918 56.7706 109.857 56.7957C109.808 56.815 109.76 56.8247 109.71 56.8247L109.712 56.8266ZM124.403 56.7087C124.326 56.7087 124.247 56.6856 124.179 56.6372C124.125 56.5986 124.071 56.558 124.017 56.5174C123.846 56.3899 123.812 56.1464 123.939 55.9763C124.067 55.8062 124.31 55.7715 124.48 55.899C124.531 55.9357 124.579 55.9724 124.629 56.0072C124.803 56.1309 124.844 56.3725 124.72 56.5464C124.645 56.6527 124.525 56.7087 124.405 56.7087H124.403ZM103.692 56.6836C103.649 56.6836 103.605 56.6759 103.562 56.6604C103.499 56.6372 103.437 56.616 103.375 56.5928C103.176 56.5174 103.073 56.2952 103.149 56.0961C103.224 55.8951 103.446 55.7946 103.645 55.87C103.703 55.8913 103.761 55.9125 103.819 55.9338C104.02 56.0053 104.127 56.2256 104.055 56.4266C103.999 56.5851 103.85 56.6836 103.69 56.6836H103.692ZM130.091 56.616C129.953 56.616 129.82 56.5425 129.75 56.4131C129.65 56.2256 129.72 55.9898 129.907 55.8893L130.079 55.7966C130.266 55.6961 130.502 55.7676 130.603 55.955C130.703 56.1425 130.632 56.3783 130.444 56.4788L130.274 56.5696C130.216 56.6005 130.152 56.616 130.091 56.616ZM111.621 55.8913C111.486 55.8913 111.354 55.8198 111.283 55.6922C111.179 55.5048 111.246 55.2709 111.434 55.1666L111.6 55.0738C111.785 54.9694 112.021 55.0351 112.125 55.2207C112.23 55.4062 112.164 55.642 111.979 55.7463L111.807 55.843C111.747 55.8758 111.683 55.8913 111.619 55.8913H111.621ZM101.78 55.7657C101.709 55.7657 101.639 55.7463 101.574 55.7057C101.518 55.669 101.462 55.6342 101.404 55.5956C101.226 55.4777 101.177 55.2381 101.295 55.0603C101.413 54.8825 101.653 54.8342 101.831 54.952C101.883 54.9868 101.933 55.0197 101.985 55.0525C102.165 55.1666 102.219 55.4062 102.105 55.5859C102.032 55.7019 101.906 55.7657 101.779 55.7657H101.78ZM131.986 55.6516C131.84 55.6516 131.7 55.5685 131.635 55.4255C131.546 55.2323 131.631 55.0023 131.826 54.9134L132.006 54.8322C132.201 54.7433 132.429 54.8322 132.516 55.0274C132.603 55.2226 132.516 55.4506 132.321 55.5376L132.147 55.6168C132.095 55.64 132.041 55.6516 131.986 55.6516ZM122.768 55.3501C122.675 55.3501 122.583 55.3173 122.509 55.2497L122.366 55.1182C122.208 54.9752 122.198 54.7298 122.341 54.5713C122.484 54.4148 122.729 54.4032 122.888 54.5462L123.031 54.6757C123.189 54.8187 123.201 55.0641 123.058 55.2226C122.983 55.3057 122.876 55.3501 122.772 55.3501H122.768ZM136.172 55.3386C136.076 55.3386 135.981 55.3038 135.906 55.2323C135.869 55.1975 135.832 55.1646 135.792 55.1356C135.622 55.0062 135.589 54.7646 135.718 54.5945C135.848 54.4245 136.089 54.3916 136.259 54.5211C136.321 54.5675 136.383 54.6196 136.439 54.6757C136.594 54.8226 136.6 55.068 136.451 55.2226C136.375 55.3018 136.273 55.3424 136.17 55.3424L136.172 55.3386ZM133.985 54.9385C133.807 54.9385 133.647 54.8148 133.608 54.6332C133.563 54.4244 133.695 54.2196 133.904 54.1732C133.973 54.1578 134.041 54.1442 134.108 54.1326C134.319 54.094 134.518 54.237 134.555 54.4476C134.592 54.6583 134.45 54.8573 134.24 54.8941C134.182 54.9037 134.124 54.9153 134.066 54.9269C134.039 54.9327 134.012 54.9346 133.985 54.9346V54.9385ZM113.457 54.8168C113.326 54.8168 113.198 54.7491 113.125 54.6293C113.014 54.4457 113.074 54.208 113.258 54.0998L113.424 54.0012C113.608 53.8911 113.845 53.951 113.954 54.1346C114.064 54.3182 114.004 54.5559 113.82 54.6641L113.654 54.7627C113.592 54.7994 113.523 54.8168 113.455 54.8168H113.457ZM100.138 54.4245C100.037 54.4245 99.9368 54.3858 99.8595 54.3066C99.8131 54.2582 99.7667 54.2099 99.7203 54.1597C99.5754 54.0032 99.5851 53.7596 99.7416 53.6128C99.8981 53.4678 100.142 53.4756 100.289 53.634C100.331 53.6785 100.374 53.7249 100.416 53.7693C100.565 53.922 100.561 54.1674 100.406 54.3162C100.331 54.3897 100.234 54.4245 100.138 54.4245ZM121.197 53.9143C121.106 53.9143 121.013 53.8814 120.94 53.8176L120.797 53.6901C120.637 53.549 120.621 53.3055 120.762 53.1451C120.903 52.9847 121.147 52.9692 121.307 53.1103L121.454 53.2398C121.614 53.3809 121.628 53.6263 121.487 53.7848C121.411 53.8717 121.305 53.9143 121.197 53.9143ZM115.295 53.7442C115.158 53.7442 115.026 53.6727 114.957 53.5451C114.854 53.3577 114.922 53.1238 115.109 53.0195C115.167 52.9866 115.225 52.9557 115.283 52.9248C115.471 52.8224 115.707 52.8939 115.807 53.0813C115.908 53.2688 115.838 53.5045 115.65 53.605L115.484 53.6959C115.424 53.7287 115.361 53.7442 115.299 53.7442H115.295ZM117.22 52.8455C117.061 52.8455 116.912 52.747 116.854 52.5885C116.783 52.3875 116.889 52.1672 117.09 52.0957C117.156 52.0725 117.22 52.0513 117.285 52.03C117.488 51.9662 117.707 52.0764 117.771 52.2812C117.836 52.4842 117.724 52.7025 117.519 52.7663C117.463 52.7837 117.405 52.803 117.347 52.8243C117.305 52.8397 117.26 52.8475 117.218 52.8475L117.22 52.8455ZM98.8275 52.7586C98.7019 52.7586 98.5782 52.6967 98.5028 52.5827C98.4661 52.5267 98.4313 52.4706 98.3946 52.4146C98.2806 52.2329 98.3366 51.9952 98.5163 51.8812C98.698 51.7691 98.9357 51.8232 99.0497 52.0029C99.0826 52.0551 99.1154 52.1092 99.1502 52.1595C99.2662 52.3392 99.2159 52.5788 99.0381 52.6948C98.9724 52.7373 98.899 52.7566 98.8275 52.7566V52.7586ZM119.489 52.6735C119.448 52.6735 119.405 52.6677 119.365 52.6523C119.315 52.6349 119.264 52.6214 119.212 52.6078C119.005 52.5576 118.876 52.3489 118.926 52.1421C118.976 51.9353 119.187 51.8078 119.392 51.8561C119.465 51.8735 119.539 51.8947 119.61 51.9198C119.813 51.9875 119.921 52.2078 119.852 52.4088C119.798 52.5692 119.647 52.6716 119.487 52.6716L119.489 52.6735ZM97.8032 50.8994C97.6583 50.8994 97.5191 50.8183 97.4534 50.6772C97.4264 50.6173 97.3974 50.5574 97.3703 50.4975C97.2814 50.3042 97.3665 50.0742 97.5617 49.9853C97.7549 49.8964 97.9849 49.9815 98.0738 50.1767C98.1009 50.2346 98.126 50.2907 98.153 50.3467C98.2439 50.54 98.1608 50.77 97.9694 50.8608C97.9153 50.8859 97.8593 50.8975 97.8052 50.8975L97.8032 50.8994ZM83.4906 50.3332C83.3244 50.3332 83.1718 50.225 83.1215 50.0588C83.0597 49.8539 83.1756 49.6394 83.3805 49.5776C83.4327 49.5621 83.4868 49.5428 83.539 49.5235C83.7399 49.4481 83.9622 49.5505 84.0356 49.7496C84.111 49.9506 84.0086 50.1728 83.8095 50.2462C83.7399 50.2714 83.6704 50.2965 83.6027 50.3158C83.566 50.3274 83.5274 50.3332 83.4906 50.3332ZM81.6199 50.1805C81.56 50.1805 81.5001 50.167 81.4421 50.138C81.3783 50.1052 81.3146 50.0684 81.2508 50.0298C81.0691 49.9196 81.0092 49.6819 81.1213 49.4983C81.2315 49.3147 81.4692 49.2568 81.6528 49.3689C81.7011 49.3978 81.7494 49.4249 81.7977 49.45C81.9871 49.5486 82.0605 49.7805 81.9639 49.9718C81.8943 50.1052 81.761 50.1805 81.6199 50.1805ZM85.3343 49.2896C85.2068 49.2896 85.0831 49.2258 85.0077 49.1118C84.8918 48.9321 84.9439 48.6925 85.1237 48.5784L85.2899 48.4721C85.4715 48.3601 85.7092 48.4142 85.8232 48.5939C85.9373 48.7756 85.8812 49.0133 85.7015 49.1273L85.5411 49.2297C85.4773 49.2703 85.4039 49.2916 85.3324 49.2916L85.3343 49.2896ZM96.9104 48.9727C96.779 48.9727 96.6514 48.905 96.578 48.7852C96.5471 48.733 96.5161 48.6828 96.4833 48.6345C96.3673 48.4548 96.4176 48.2151 96.5954 48.0992C96.7732 47.9832 97.0128 48.0335 97.1307 48.2112C97.1674 48.2692 97.2041 48.3272 97.2409 48.3871C97.351 48.5707 97.2911 48.8084 97.1075 48.9166C97.0457 48.9534 96.978 48.9707 96.9104 48.9707V48.9727ZM80.1106 48.7156C79.9869 48.7156 79.8651 48.6557 79.7898 48.5456C79.7511 48.4895 79.7144 48.4335 79.6777 48.3755C79.5637 48.1958 79.6158 47.9561 79.7956 47.8421C79.9753 47.7281 80.2149 47.7803 80.329 47.96C80.3618 48.0122 80.3947 48.0624 80.4295 48.1127C80.5493 48.2905 80.5029 48.5301 80.3251 48.6499C80.2594 48.6944 80.184 48.7156 80.1086 48.7156H80.1106ZM87.178 48.2325C87.0369 48.2325 86.9016 48.1552 86.832 48.0219C86.7354 47.8305 86.8108 47.5986 87.0021 47.502L87.178 47.4131C87.3693 47.3184 87.6012 47.3957 87.6959 47.587C87.7906 47.7784 87.7133 48.0103 87.522 48.105L87.3519 48.19C87.2959 48.219 87.236 48.2325 87.178 48.2325ZM95.4648 47.4402C95.3933 47.4402 95.3199 47.4208 95.2542 47.3783C95.2059 47.3455 95.1556 47.3145 95.1054 47.2855C94.9218 47.1773 94.8599 46.9396 94.9682 46.756C95.0764 46.5724 95.3141 46.5106 95.4977 46.6188C95.5576 46.6536 95.6175 46.6922 95.6774 46.7309C95.8571 46.8469 95.9074 47.0865 95.7895 47.2662C95.7161 47.3802 95.5924 47.4421 95.4648 47.4421V47.4402ZM89.1241 47.3822C88.9656 47.3822 88.8187 47.2855 88.7608 47.1271C88.6873 46.9261 88.7917 46.7038 88.9907 46.6323C89.0526 46.6091 89.1163 46.5879 89.1782 46.5647C89.3792 46.4932 89.5995 46.6014 89.671 46.8024C89.7406 47.0034 89.6343 47.2237 89.4333 47.2952C89.3734 47.3165 89.3154 47.3377 89.2555 47.359C89.211 47.3744 89.1666 47.3822 89.1241 47.3822ZM79.1153 46.8411C78.9646 46.8411 78.8235 46.7522 78.7597 46.6072C78.7346 46.5473 78.7075 46.4855 78.6824 46.4256C78.6012 46.2284 78.694 46.0023 78.8911 45.9212C79.0883 45.84 79.3144 45.9328 79.3955 46.1299C79.4187 46.1878 79.4438 46.2458 79.469 46.3038C79.5521 46.5009 79.4612 46.727 79.2661 46.8121C79.2158 46.8333 79.1656 46.843 79.1134 46.843L79.1153 46.8411ZM91.1707 46.8198C90.9871 46.8198 90.8247 46.6884 90.7899 46.5029C90.7513 46.2922 90.8904 46.0912 91.1011 46.0545C91.1668 46.0429 91.2344 46.0313 91.3001 46.0216C91.5108 45.9888 91.7098 46.1318 91.7427 46.3425C91.7756 46.5531 91.6325 46.7522 91.4219 46.785C91.362 46.7947 91.3001 46.8043 91.2402 46.8159C91.217 46.8198 91.1939 46.8217 91.1707 46.8217V46.8198ZM93.4801 46.7328C93.4627 46.7328 93.4472 46.7328 93.4298 46.729C93.3699 46.7212 93.31 46.7135 93.2501 46.7077C93.0375 46.6865 92.8829 46.4971 92.9042 46.2845C92.9254 46.0719 93.1148 45.9173 93.3274 45.9386C93.3951 45.9463 93.4646 45.954 93.5303 45.9617C93.7429 45.9888 93.8917 46.184 93.8627 46.3946C93.8376 46.5898 93.6714 46.7309 93.4801 46.7309V46.7328ZM78.3713 44.8466C78.2089 44.8466 78.0582 44.7423 78.0041 44.58L77.9442 44.3944C77.8785 44.1915 77.9886 43.9731 78.1915 43.9074C78.3945 43.8417 78.6128 43.9519 78.6785 44.1548L78.7385 44.3384C78.8042 44.5413 78.694 44.7597 78.4911 44.8254C78.4505 44.8389 78.4099 44.8447 78.3713 44.8447V44.8466ZM77.7413 42.8136C77.5751 42.8136 77.4224 42.7054 77.3721 42.5392L77.3161 42.3594C77.2504 42.1565 77.3625 41.9381 77.5673 41.8744C77.7722 41.8106 77.9886 41.9207 78.0524 42.1256L78.1104 42.315C78.1722 42.5198 78.0563 42.7344 77.8533 42.7981C77.8166 42.8097 77.778 42.8155 77.7413 42.8155V42.8136ZM76.688 40.995C76.5875 40.995 76.487 40.9564 76.4117 40.8791C76.3711 40.8366 76.3286 40.796 76.2841 40.7535C76.1295 40.6066 76.1218 40.3631 76.2686 40.2066C76.4155 40.052 76.659 40.0442 76.8156 40.1911C76.8658 40.2394 76.916 40.2877 76.9644 40.336C77.1132 40.4887 77.1112 40.7341 76.9586 40.883C76.8832 40.9564 76.7866 40.9931 76.688 40.9931V40.995ZM64.5128 40.3109C64.4819 40.3109 64.4491 40.307 64.4181 40.2993C64.3466 40.2819 64.2771 40.2607 64.2075 40.2394C64.0046 40.1737 63.8944 39.9553 63.9601 39.7524C64.0258 39.5495 64.2442 39.4393 64.4471 39.505C64.4993 39.5224 64.5534 39.5379 64.6075 39.5514C64.8143 39.6036 64.9399 39.8142 64.8878 40.021C64.8433 40.1969 64.6868 40.3128 64.5128 40.3128V40.3109ZM66.4261 40.2877C66.2463 40.2877 66.0859 40.1621 66.0473 39.9804C66.0048 39.7717 66.1381 39.5669 66.3468 39.5244C66.4068 39.5128 66.4667 39.4992 66.5266 39.4857C66.7334 39.4393 66.9421 39.5669 66.9904 39.7756C67.0387 39.9843 66.9092 40.1911 66.7005 40.2394C66.6329 40.2549 66.5672 40.2684 66.5034 40.2819C66.4763 40.2877 66.4512 40.2897 66.4241 40.2897L66.4261 40.2877ZM74.9236 39.8316C74.8733 39.8316 74.8231 39.822 74.7748 39.8027C74.7187 39.7795 74.6627 39.7563 74.6047 39.735C74.4056 39.6596 74.3052 39.4355 74.3825 39.2364C74.4598 39.0374 74.682 38.9369 74.8811 39.0142C74.9448 39.0393 75.0086 39.0644 75.0705 39.0895C75.2676 39.1707 75.3603 39.3968 75.2792 39.5939C75.2173 39.7427 75.0743 39.8316 74.9216 39.8316H74.9236ZM68.4669 39.6983C68.2968 39.6983 68.1403 39.5843 68.0939 39.4123C68.0378 39.2055 68.1615 38.9948 68.3664 38.9388C68.4302 38.9214 68.4939 38.9059 68.5577 38.8885C68.7645 38.8344 68.9751 38.9601 69.0273 39.1688C69.0795 39.3756 68.9539 39.5862 68.7471 39.6384C68.6872 39.6538 68.6253 39.6693 68.5654 39.6867C68.5326 39.6964 68.4978 39.7002 68.4649 39.7002L68.4669 39.6983ZM72.8693 39.3137C72.8538 39.3137 72.8403 39.3137 72.8248 39.3118C72.763 39.304 72.7031 39.2983 72.6393 39.2925C72.4267 39.2712 72.2702 39.0837 72.2914 38.8712C72.3127 38.6586 72.4982 38.5059 72.7127 38.5233C72.7804 38.5291 72.8461 38.5368 72.9118 38.5445C73.1244 38.5697 73.2751 38.761 73.2519 38.9736C73.2287 39.1707 73.0625 39.3156 72.8693 39.3156V39.3137ZM70.554 39.3098C70.3588 39.3098 70.1907 39.163 70.1695 38.9639C70.1463 38.7513 70.3009 38.5619 70.5135 38.5388C70.5811 38.531 70.6468 38.5252 70.7144 38.5194C70.9309 38.502 71.1145 38.6586 71.1319 38.8712C71.1493 39.0837 70.9927 39.2712 70.7801 39.2886C70.7183 39.2944 70.6565 39.3002 70.5946 39.306C70.5811 39.306 70.5676 39.3079 70.554 39.3079V39.3098ZM62.8566 39.0721C62.7291 39.0721 62.6035 39.0084 62.53 38.8924C62.4933 38.8344 62.4566 38.7726 62.4218 38.7107C62.3174 38.5252 62.3812 38.2894 62.5667 38.1832C62.7523 38.0769 62.988 38.1426 63.0943 38.3281C63.1233 38.3783 63.1523 38.4286 63.1832 38.4769C63.2973 38.6566 63.2431 38.8963 63.0634 39.0103C62.9996 39.0509 62.9281 39.0702 62.8566 39.0702V39.0721ZM62.1029 37.0971C61.9271 37.0971 61.7667 36.9753 61.7261 36.7956C61.7106 36.7318 61.6971 36.6661 61.6836 36.5985C61.641 36.3897 61.7744 36.1849 61.9831 36.1424C62.1918 36.0999 62.3967 36.2332 62.4392 36.4419C62.4527 36.5038 62.4643 36.5637 62.4778 36.6236C62.5262 36.8323 62.3947 37.0391 62.186 37.0855C62.157 37.0913 62.128 37.0951 62.0991 37.0951L62.1029 37.0971ZM61.786 34.9964C61.5889 34.9964 61.4207 34.8456 61.4014 34.6466L61.384 34.4514C61.3647 34.2388 61.5232 34.0513 61.7357 34.032C61.9483 34.0088 62.1358 34.1711 62.1551 34.3837L62.1725 34.5731C62.1918 34.7857 62.0372 34.9751 61.8246 34.9944C61.813 34.9944 61.7995 34.9944 61.7879 34.9944L61.786 34.9964ZM61.6526 32.8744C61.4459 32.8744 61.2739 32.7101 61.2661 32.5033L61.2584 32.3082C61.2507 32.0956 61.4188 31.9158 61.6314 31.9081C61.8401 31.8985 62.0237 32.0685 62.0314 32.2811L62.0391 32.4724C62.0469 32.685 61.8807 32.8647 61.6681 32.8744C61.6623 32.8744 61.6584 32.8744 61.6526 32.8744ZM61.4961 30.7602C61.3125 30.7602 61.1502 30.6307 61.1154 30.4432C61.1038 30.3833 61.0922 30.3234 61.0806 30.2635C61.0361 30.0548 61.1714 29.8499 61.3801 29.8055C61.5889 29.761 61.7937 29.8944 61.8382 30.105C61.8517 30.1707 61.8652 30.2364 61.8768 30.3041C61.9155 30.5147 61.7763 30.7157 61.5657 30.7544C61.5425 30.7582 61.5193 30.7602 61.4961 30.7602ZM60.7849 28.7735C60.6516 28.7735 60.5221 28.7039 60.4506 28.5802C60.4197 28.5281 60.3887 28.4778 60.3578 28.4276C60.2438 28.2478 60.2979 28.0082 60.4776 27.8942C60.6593 27.7802 60.897 27.8343 61.011 28.014C61.0477 28.072 61.0845 28.1319 61.1193 28.1918C61.2255 28.3773 61.1637 28.6131 60.9801 28.7194C60.9183 28.7542 60.8526 28.7716 60.7868 28.7716L60.7849 28.7735ZM59.3993 27.183C59.3142 27.183 59.2273 27.154 59.1558 27.098C59.1094 27.0593 59.0611 27.0226 59.0127 26.9859C58.8427 26.8564 58.8098 26.6148 58.9393 26.4447C59.0688 26.2747 59.3104 26.2418 59.4804 26.3713C59.5345 26.4119 59.5887 26.4544 59.6408 26.4969C59.807 26.6303 59.8322 26.8738 59.6988 27.04C59.6234 27.1347 59.5114 27.183 59.3973 27.183H59.3993ZM57.5942 26.0718C57.5382 26.0718 57.4802 26.0602 57.4242 26.0331C57.3681 26.0061 57.3121 25.979 57.256 25.9519C57.0628 25.8611 56.9797 25.6311 57.0705 25.4379C57.1614 25.2446 57.3913 25.1615 57.5846 25.2524C57.6445 25.2813 57.7044 25.3084 57.7643 25.3374C57.9556 25.4302 58.0368 25.6621 57.9421 25.8534C57.8745 25.9906 57.7373 26.0698 57.5942 26.0698V26.0718ZM55.6366 25.2466C55.5902 25.2466 55.5438 25.2388 55.4993 25.2214L55.3196 25.1538C55.1206 25.0784 55.0201 24.8542 55.0954 24.6552C55.1708 24.4561 55.395 24.3556 55.594 24.431L55.7738 24.5006C55.9728 24.576 56.0733 24.8001 55.9979 24.9992C55.94 25.1538 55.7931 25.2485 55.6366 25.2485V25.2466ZM53.6518 24.4851C53.6035 24.4851 53.5552 24.4755 53.5069 24.4561L53.3252 24.3827C53.1281 24.3015 53.0334 24.0754 53.1146 23.8783C53.1957 23.6812 53.4218 23.5865 53.619 23.6677L53.7968 23.7392C53.9939 23.8184 54.0905 24.0445 54.0113 24.2416C53.9514 24.3924 53.8064 24.4832 53.6518 24.4832V24.4851ZM51.7231 23.5923C51.6593 23.5923 51.5975 23.5768 51.5376 23.544C51.4796 23.5111 51.4216 23.4802 51.3637 23.4473C51.1781 23.341 51.1144 23.1053 51.2187 22.9197C51.325 22.7342 51.5608 22.6704 51.7463 22.7748C51.8004 22.8057 51.8545 22.8366 51.9086 22.8656C52.0961 22.9681 52.1637 23.2038 52.0613 23.3913C51.9917 23.5188 51.8584 23.5923 51.7212 23.5923H51.7231ZM49.9123 22.4753C49.8369 22.4753 49.7616 22.454 49.6958 22.4096L49.5354 22.2994C49.3596 22.1796 49.3132 21.938 49.435 21.7621C49.5548 21.5863 49.7963 21.5399 49.9722 21.6616L50.1307 21.7699C50.3085 21.8897 50.3549 22.1293 50.235 22.3071C50.1597 22.4173 50.0379 22.4772 49.9142 22.4772L49.9123 22.4753ZM48.2 21.2152C48.115 21.2152 48.03 21.1882 47.9585 21.1302L47.8058 21.0065C47.6396 20.8712 47.6145 20.6277 47.7498 20.4635C47.885 20.2973 48.1285 20.2721 48.2928 20.4074L48.4416 20.5272C48.6078 20.6606 48.6349 20.9041 48.5015 21.0703C48.4242 21.165 48.3121 21.2152 48.2 21.2152ZM46.6018 19.8122C46.5052 19.8122 46.4086 19.7755 46.3332 19.704C46.2868 19.6576 46.2385 19.6131 46.1921 19.5667C46.0394 19.416 46.0394 19.1725 46.1882 19.0198C46.339 18.8672 46.5825 18.8672 46.7352 19.016C46.7796 19.0604 46.826 19.1049 46.8704 19.1474C47.0231 19.2962 47.027 19.5397 46.8801 19.6943C46.8047 19.7735 46.7023 19.8122 46.6018 19.8122ZM45.1601 18.2487C45.048 18.2487 44.9359 18.2004 44.8606 18.1057C44.818 18.0535 44.7775 18.0033 44.7369 17.9511C44.6055 17.783 44.6345 17.5414 44.8007 17.4081C44.9688 17.2767 45.2123 17.3056 45.3437 17.4718C45.3824 17.5202 45.421 17.5704 45.4616 17.6187C45.5969 17.7849 45.5717 18.0284 45.4055 18.1618C45.334 18.2197 45.2471 18.2487 45.162 18.2487H45.1601ZM43.9503 16.5017C43.817 16.5017 43.6856 16.4321 43.6141 16.3065C43.5812 16.2485 43.5484 16.1906 43.5155 16.1326C43.4131 15.9451 43.4807 15.7113 43.6682 15.6069C43.8556 15.5045 44.0895 15.5721 44.1938 15.7596C44.2247 15.8137 44.2537 15.8678 44.2847 15.9219C44.391 16.1074 44.3272 16.3432 44.1417 16.4495C44.0817 16.4843 44.016 16.4998 43.9503 16.4998V16.5017ZM43.0981 14.5595C42.9319 14.5595 42.7792 14.4512 42.7289 14.285C42.7096 14.2193 42.6903 14.1556 42.6729 14.0899C42.6169 13.8831 42.7386 13.6705 42.9435 13.6144C43.1483 13.5584 43.3628 13.6782 43.4189 13.885C43.4343 13.943 43.4517 14.0029 43.4691 14.0609C43.531 14.2657 43.415 14.4802 43.2102 14.5421C43.1734 14.5537 43.1348 14.5595 43.0981 14.5595ZM42.7869 12.4665H42.785C42.5724 12.4665 42.3985 12.2906 42.4004 12.078C42.4004 12.0104 42.4004 11.9408 42.4043 11.8732C42.412 11.6645 42.584 11.5021 42.7908 11.5021C42.7966 11.5021 42.8004 11.5021 42.8062 11.5021C43.0188 11.5099 43.185 11.6896 43.1773 11.9022C43.1754 11.9621 43.1734 12.022 43.1734 12.0838C43.1734 12.2964 42.9995 12.4684 42.7869 12.4684V12.4665ZM43.1425 10.3813C43.1019 10.3813 43.0594 10.3735 43.0188 10.36C42.8159 10.2924 42.7077 10.072 42.7773 9.86912C42.7985 9.80535 42.8217 9.74158 42.8449 9.67587C42.9203 9.47488 43.1425 9.37439 43.3416 9.44783C43.5426 9.5232 43.643 9.74544 43.5696 9.94449C43.5484 10.0025 43.529 10.0585 43.5078 10.1165C43.4537 10.2769 43.3029 10.3793 43.1425 10.3793V10.3813Z" fill="#344966"/>
<path d="M82.6905 22.8751C82.273 22.8751 81.9058 22.5736 81.8343 22.1484C81.7551 21.675 82.074 21.2266 82.5475 21.1474C83.8848 20.9232 85.9932 19.9588 86.0145 19.9492C86.4512 19.7501 86.9672 19.9395 87.1682 20.3763C87.3692 20.813 87.1779 21.329 86.7411 21.53C86.6464 21.5725 84.4027 22.6007 82.8354 22.8635C82.7871 22.8712 82.7388 22.8751 82.6905 22.8751Z" fill="#344966"/>
<path d="M103.522 33.5755C103.28 33.5755 103.039 33.475 102.867 33.2779C102.399 32.7406 102.065 31.1192 101.868 29.8553C101.794 29.3799 102.119 28.9354 102.592 28.862C103.068 28.7905 103.512 29.1132 103.586 29.5867C103.76 30.7018 104.044 31.8922 104.198 32.1609C104.49 32.5222 104.448 33.0537 104.094 33.3629C103.93 33.5059 103.725 33.5774 103.522 33.5774V33.5755ZM104.177 32.1338C104.177 32.1338 104.185 32.1415 104.189 32.1473C104.185 32.1435 104.181 32.1396 104.177 32.1338Z" fill="#344966"/>
<path d="M98.803 33.1332C95.622 33.1332 93.9 31.305 92.9241 30.2691L92.7772 30.1126C92.1839 29.4883 91.8805 29.4555 90.8814 29.3473C90.263 29.2796 89.4165 29.1888 88.2608 28.895C86.7553 28.5143 85.5571 27.1441 84.7957 24.9371C84.2643 23.393 84.1193 21.961 84.1135 21.9011C84.0671 21.4237 84.415 20.9966 84.8943 20.9503C85.3678 20.9019 85.7968 21.2517 85.8451 21.7291C85.8451 21.7426 85.9804 23.0432 86.4519 24.398C86.8423 25.5208 87.5477 26.92 88.6898 27.2079C89.7296 27.4707 90.4736 27.5519 91.0727 27.6157C92.153 27.7336 93.0072 27.8263 94.0411 28.9105L94.1938 29.0728C95.4654 30.4237 97.5951 32.6829 102.815 30.4276C103.256 30.2362 103.768 30.4392 103.959 30.8817C104.15 31.3223 103.946 31.8345 103.505 32.0258C101.661 32.822 100.111 33.1293 98.8068 33.1293L98.803 33.1332Z" fill="#344966"/>
<path d="M93.5792 14.0082C93.4266 14.0082 93.27 13.9676 93.1289 13.8826C90.8234 12.4853 88.8754 13.038 88.7923 13.0632C88.3342 13.1984 87.8492 12.9414 87.71 12.4834C87.5709 12.0254 87.824 11.5442 88.2801 11.4012C88.3903 11.3664 91.0263 10.574 94.0295 12.3964C94.4392 12.6457 94.5706 13.1811 94.3213 13.5908C94.1571 13.8613 93.871 14.0101 93.5773 14.0101L93.5792 14.0082Z" fill="#344966"/>
<path d="M111.537 19.1046C111.193 19.1046 110.866 18.8978 110.729 18.5577C109.871 16.4183 107.368 16.0125 107.343 16.0086C106.869 15.9371 106.541 15.4946 106.612 15.0211C106.682 14.5476 107.123 14.221 107.594 14.2867C107.737 14.308 111.107 14.8259 112.342 17.9084C112.52 18.3548 112.304 18.8611 111.859 19.0389C111.753 19.0814 111.643 19.1007 111.537 19.1007V19.1046Z" fill="#344966"/>
<path d="M90.0073 15.9544C90.875 15.9757 91.4702 16.77 91.2306 17.599C91.1262 17.9604 91.018 18.3218 90.8885 18.6755C90.6489 19.3287 90.1406 19.6379 89.4739 19.5819C88.7724 19.522 88.4226 19.0562 88.3356 18.3701C88.1791 17.1256 89.0023 15.9312 90.0073 15.9544Z" fill="#344966"/>
<path d="M106.838 23.0663C107.706 23.0875 108.301 23.8818 108.062 24.7109C107.957 25.0723 107.849 25.4336 107.72 25.7873C107.48 26.4405 106.972 26.7497 106.305 26.6937C105.603 26.6338 105.254 26.168 105.167 25.482C105.01 24.2374 105.833 23.0431 106.838 23.0663Z" fill="#344966"/>
</svg>
