<svg width="72" height="139" viewBox="0 0 72 139" fill="none" xmlns="http://www.w3.org/2000/svg">
<path d="M69.6575 28.7205C69.5432 28.7205 69.432 28.6991 69.3269 28.658C68.7021 28.4081 68.6854 27.7483 68.6656 26.9864C68.6458 26.2352 68.6168 25.1001 68.1856 23.5977C67.439 20.9921 65.7293 18.0269 59.0538 18.196C59.0478 18.196 59.0417 18.196 59.0356 18.196C58.6653 18.196 58.3606 17.9004 58.3499 17.5286C58.3392 17.1507 58.6394 16.8353 59.0173 16.8247C66.7198 16.619 68.6899 20.378 69.5036 23.2198C69.9196 24.6734 69.9988 25.801 70.0263 26.6101C70.4194 25.6166 70.782 23.5565 70.2899 19.77C69.4518 13.3155 63.4513 9.98615 63.3919 9.95263C63.0597 9.77131 62.9363 9.35533 63.1161 9.02316C63.2959 8.69098 63.7119 8.56604 64.0441 8.74584C64.3168 8.89211 70.7196 12.4287 71.6506 19.5918C71.8684 21.2709 72.4231 26.8691 70.398 28.4386C70.1603 28.6229 69.9028 28.7189 69.659 28.7189L69.6575 28.7205Z" fill="#344966"/>
<path d="M3.96832 44.9695L2.3623 43.9943L3.16531 47.7229L6.09088 52.1965L9.76308 55.983L15.6386 60.3135L24.4183 63.463L32.2915 64.8009L44.0593 62.5945L50.366 58.3814L56.4274 50.4321L58.6627 42.5604L59.4017 34.5837L59.3591 25.3788L58.5728 18.6531L59.4017 15.3405L63.461 8.32977L61.9129 4.01761L59.5252 2.08247L55.5467 1.35107L52.6729 2.30646L51.2437 7.15955L52.7065 16.2806L55.5238 25.874L56.1699 34.7147L53.8675 42.0287L52.9899 42.6458L51.5012 39.3179L46.5399 33.2428L39.8446 30.7652L29.9693 31.7252L21.6436 35.92L16.245 39.4048L9.14597 45.0411L8.28506 46.5039L6.17773 45.8624L3.96832 44.9695Z" fill="#C3E0C7"/>
<path d="M8.51819 138.378C8.23325 138.378 7.96812 138.199 7.8706 137.914C7.74718 137.556 7.93765 137.166 8.29572 137.043C8.34601 137.026 13.3606 135.289 15.052 133.899C15.2059 133.773 15.407 133.719 15.6051 133.753C15.8016 133.787 15.9738 133.905 16.0759 134.076C16.9033 135.46 17.4305 136.026 18.0171 136.17C19.006 136.41 20.7477 135.499 23.4233 133.846C23.5864 133.745 23.783 133.718 23.9658 133.768C24.1502 133.819 24.3041 133.943 24.3924 134.113C25.0035 135.289 25.5307 135.908 26.0503 136.055C26.8106 136.273 27.9549 135.592 29.6889 134.564C30.2375 134.238 30.8607 133.869 31.5494 133.482C31.8587 133.308 32.2503 133.4 32.4515 133.692C34.4384 136.598 35.7778 137.451 41.12 134.131C41.4308 133.937 41.8392 134.023 42.0464 134.324C44.0501 137.238 45.3011 136.407 49.0175 133.94L49.24 133.793C49.5386 133.595 49.9378 133.659 50.1588 133.94C52.2951 136.657 53.8584 136.499 53.8721 136.497L53.8538 136.5L54.1007 137.849C53.8782 137.888 51.9522 138.141 49.4838 135.278C46.1453 137.491 43.8399 138.882 41.3013 135.629C38.6988 137.186 36.9206 137.78 35.4228 137.611C33.7756 137.424 32.6389 136.289 31.685 134.984C31.2188 135.252 30.786 135.51 30.3914 135.743C28.3526 136.953 27.0072 137.751 25.677 137.373C24.8816 137.146 24.2203 136.54 23.5346 135.386C20.7202 137.095 19.0777 137.838 17.6956 137.501C16.7311 137.267 16.0271 136.532 15.2958 135.411C13.1046 136.828 8.94026 138.271 8.74675 138.338C8.67209 138.364 8.59742 138.376 8.52276 138.376L8.51819 138.378Z" fill="#344966"/>
<path d="M30.6658 134.768C30.297 134.768 29.9923 134.475 29.9801 134.105C29.9755 133.974 29.5549 120.787 29.4925 105.751C29.4087 85.5389 29.9755 71.7933 31.1777 64.8968C31.2432 64.5235 31.5968 64.2751 31.9716 64.3391C32.3449 64.4047 32.5948 64.7597 32.5293 65.133C31.0497 73.6233 30.8075 91.9035 30.8654 105.744C30.9278 120.76 31.3484 133.93 31.3514 134.061C31.3636 134.439 31.0665 134.755 30.6886 134.768C30.681 134.768 30.6734 134.768 30.6658 134.768Z" fill="#344966"/>
<path d="M58.4446 87.7787C58.0987 87.7787 57.8031 87.5197 57.7635 87.1707C57.7513 87.0915 57.189 83.753 49.9955 79.6465C37.7965 72.6831 16.4048 69.017 0.606695 67.1687C0.268426 67.1291 0.00939119 66.8456 0.000248789 66.5043C-0.00889361 66.163 0.234904 65.8674 0.571649 65.811C0.719451 65.7866 15.4479 63.3152 23.452 62.7788C23.8284 62.7544 24.156 63.0394 24.1819 63.4172C24.2078 63.7951 23.9213 64.1212 23.5435 64.1471C18.4466 64.4884 10.5765 65.6251 5.5573 66.4022C57.1601 73.2011 59.0678 86.45 59.1257 87.026C59.1622 87.4023 58.888 87.7391 58.5101 87.7756C58.4872 87.7772 58.4644 87.7787 58.4415 87.7787H58.4446Z" fill="#344966"/>
<path d="M55.5466 88.0102C55.2236 88.0102 54.8487 87.9127 54.4236 87.7162C54.0792 87.5577 53.9299 87.1493 54.0884 86.8065C54.2468 86.4621 54.6552 86.3128 54.998 86.4713C55.2007 86.5642 55.3378 86.6069 55.4247 86.6252C55.4704 85.9121 54.5425 83.628 53.3219 81.4963C53.1345 81.1672 53.2473 80.7481 53.5764 80.5607C53.9055 80.3733 54.3246 80.486 54.512 80.8152C54.5425 80.8685 55.2601 82.1271 55.8818 83.5274C56.8707 85.7551 57.0383 86.9848 56.4425 87.6354C56.2125 87.8868 55.9123 88.0118 55.5466 88.0118V88.0102Z" fill="#344966"/>
<path d="M60.4622 84.637C60.3479 84.637 60.2336 84.6081 60.127 84.5487C58.4676 83.6161 52.8664 81.4311 52.81 81.4098C52.4565 81.2726 52.2828 80.8749 52.4199 80.5214C52.5571 80.1679 52.9548 79.9942 53.3083 80.1314C53.5429 80.2228 59.0573 82.3743 60.8005 83.3541C61.1311 83.54 61.2484 83.9575 61.0626 84.2881C60.9361 84.5121 60.7045 84.6386 60.4637 84.6386L60.4622 84.637Z" fill="#344966"/>
<path d="M32.3748 65.4881C26.5297 65.4881 19.5739 63.4798 13.773 60.0575C6.28083 55.6372 1.80562 49.5742 1.17023 42.981C1.13975 42.6671 1.32717 42.3731 1.6243 42.2679C1.92143 42.1628 2.25208 42.274 2.42578 42.5376C2.84938 43.1822 5.27059 44.488 7.58514 45.582C8.67157 44.5459 12.231 41.2546 16.9013 37.9923C24.4849 32.6928 31.235 29.9744 36.9673 29.9104C44.2111 29.8297 48.3709 33.2581 50.5819 36.1471C52.0568 38.0761 52.8751 40.0006 53.2911 41.2181C53.7665 40.5248 54.3729 39.4048 54.8102 37.779C56.2075 32.5892 54.8376 26.351 53.4419 22.0312C50.076 11.6135 49.5137 5.37986 51.6728 2.41467C52.6572 1.06312 54.216 0.377441 56.3065 0.377441C58.5952 0.377441 60.4648 1.09969 61.8681 2.52438C63.5884 4.2721 64.172 6.67351 64.1446 8.33743C64.1233 9.65241 63.1115 11.0588 61.9413 12.6862C60.6004 14.5512 59.0797 16.6631 59.2534 18.5876C59.2717 18.7948 59.2946 19.0295 59.3189 19.2915C59.7608 24.0654 60.9356 36.7474 59.1071 43.65C57.3061 50.4504 54.0118 55.8657 51.714 58.0188C51.5388 58.1833 51.3513 58.3677 51.1502 58.5658C49.0139 60.6716 45.0385 64.5921 34.1606 65.418C33.58 65.4622 32.9827 65.4835 32.3748 65.4835V65.4881ZM2.80215 44.5825C3.95714 50.0588 8.03922 55.081 14.4709 58.8751C20.6466 62.5183 28.1495 64.5022 34.057 64.0543C44.4336 63.2665 48.0357 59.7147 50.1872 57.5936C50.3944 57.3895 50.5895 57.1959 50.7754 57.0222C54.0651 53.9382 56.7682 47.1271 57.7815 43.3025C59.5475 36.6362 58.3895 24.1294 57.9537 19.4211C57.9293 19.1575 57.908 18.9213 57.8882 18.7141C57.6672 16.2806 59.3479 13.9463 60.829 11.8877C61.8224 10.5072 62.7595 9.20443 62.7748 8.31762C62.7961 6.99502 62.3161 4.93645 60.8914 3.48891C59.7563 2.33544 58.2142 1.75033 56.308 1.75033C54.6578 1.75033 53.5044 2.23183 52.7821 3.22378C50.9293 5.76841 51.5723 11.7826 54.7477 21.6122C59.8797 37.4971 53.6964 42.9445 53.4312 43.1684C53.2469 43.3239 52.9939 43.3711 52.7654 43.2919C52.5368 43.2126 52.3677 43.0191 52.3174 42.7829C52.3113 42.754 51.6728 39.8117 49.4604 36.9379C46.5226 33.1255 42.3171 31.2209 36.9825 31.2818C30.2004 31.3565 22.7554 35.5757 17.7058 39.1031C13.5643 41.9952 10.3126 44.9086 8.9306 46.1992C9.19573 46.3165 9.45324 46.4292 9.69856 46.5344C10.0475 46.6837 10.2075 47.086 10.0597 47.4349C9.91036 47.7838 9.5081 47.9438 9.15916 47.796C8.30739 47.4319 4.89118 45.9401 2.80215 44.5825Z" fill="#344966"/>
<path d="M33.5699 52.2334C32.4957 52.2334 31.5875 52.0308 31.1639 51.4594C30.8912 51.0921 30.8363 50.6807 30.9994 50.2282C25.3387 51.5462 23.5559 51.8037 22.9343 50.7417C22.6646 50.28 22.7575 49.7604 23.111 49.154C17.2187 50.539 13.4764 50.4994 11.971 49.0351C11.104 48.191 11.3021 47.234 11.3265 47.1274L12.6612 47.4443L12.6658 47.4245C12.6597 47.4596 12.6186 47.7719 12.9584 48.0812C13.5679 48.6359 15.9342 49.6735 24.7201 47.3377C25.0142 47.2584 25.325 47.3849 25.4835 47.6455C25.6404 47.906 25.6069 48.2397 25.4012 48.4652C24.586 49.3505 24.3026 49.8046 24.2066 50.0194C25.2031 50.1931 28.9682 49.3033 32.6191 48.4408C32.9284 48.3677 33.2469 48.517 33.3901 48.8004C33.5333 49.0839 33.4617 49.4282 33.2179 49.6339C32.5079 50.2312 32.3403 50.5604 32.3022 50.6731C32.6679 50.9184 34.475 51.086 38.0649 50.1154C41.7188 49.1265 45.6333 47.3681 48.8057 45.2898C49.1227 45.0825 49.5478 45.1709 49.755 45.4878C49.9622 45.8048 49.8739 46.2299 49.5569 46.4371C46.2215 48.6222 42.112 50.4598 38.2813 51.4776C36.9785 51.8235 35.1043 52.2365 33.5714 52.2365L33.5699 52.2334Z" fill="#344966"/>
<path d="M25.4223 44.5505C25.2867 44.5505 25.1632 44.4591 25.1282 44.3219C25.0855 44.1589 25.183 43.9928 25.3461 43.9501C25.3476 43.9501 25.3979 43.9364 25.4878 43.912C25.6508 43.8663 25.8184 43.9608 25.8641 44.1223C25.9099 44.2838 25.8154 44.453 25.6539 44.4987C25.5533 44.5276 25.5 44.5413 25.5 44.5413C25.4741 44.5474 25.4482 44.5505 25.4238 44.5505H25.4223ZM27.0252 44.0476C26.8988 44.0476 26.7814 43.9684 26.7372 43.8419C26.6824 43.6835 26.7662 43.5098 26.9247 43.4549L27.0664 43.4046C27.2248 43.3482 27.3985 43.4321 27.4549 43.5905C27.5113 43.749 27.4275 43.9227 27.269 43.9791L27.1228 44.0294C27.0892 44.0415 27.0557 44.0461 27.0222 44.0461L27.0252 44.0476ZM34.0237 44.0202C33.8714 44.0202 33.7403 43.9075 33.722 43.752C33.7022 43.5844 33.8211 43.4336 33.9887 43.4122C34.0268 43.4077 34.0649 43.4001 34.106 43.3909C34.2691 43.3528 34.4336 43.4549 34.4717 43.6195C34.5098 43.784 34.4077 43.9471 34.2432 43.9852C34.1807 44.0004 34.1197 44.0111 34.0603 44.0172C34.0481 44.0172 34.0359 44.0187 34.0237 44.0187V44.0202ZM41.3818 43.8709C41.2264 43.8709 41.0939 43.7536 41.0786 43.5951C41.0619 43.4275 41.1853 43.2782 41.3529 43.2629C41.3956 43.2583 41.4382 43.2538 41.4824 43.2462C41.65 43.2172 41.8054 43.33 41.8344 43.4945C41.8633 43.6606 41.7506 43.8176 41.586 43.8465C41.5266 43.8572 41.4702 43.8648 41.4138 43.8694C41.4032 43.8694 41.394 43.8694 41.3834 43.8694L41.3818 43.8709ZM28.5947 43.4534C28.4743 43.4534 28.3615 43.3818 28.3128 43.2644C28.2488 43.109 28.3235 42.9307 28.4789 42.8667L28.6191 42.8088C28.7745 42.7449 28.9528 42.818 29.0183 42.9734C29.0823 43.1288 29.0091 43.3071 28.8537 43.3726L28.712 43.4305C28.6739 43.4458 28.6343 43.4534 28.5962 43.4534H28.5947ZM35.5444 43.3376C35.4423 43.3376 35.3433 43.2873 35.2854 43.1944C35.1955 43.0511 35.2382 42.8637 35.3814 42.7738C35.4225 42.7479 35.4637 42.7205 35.5063 42.6946C35.648 42.6031 35.837 42.6443 35.9269 42.7845C36.0183 42.9262 35.9772 43.1151 35.837 43.205C35.7928 43.234 35.7486 43.2614 35.7044 43.2888C35.6541 43.3208 35.5978 43.3361 35.5429 43.3361L35.5444 43.3376ZM40.0501 43.2919C39.9617 43.2919 39.8749 43.2538 39.8139 43.1806C39.7789 43.138 39.7438 43.0938 39.7103 43.0481C39.6097 42.9125 39.6387 42.722 39.7743 42.6214C39.9099 42.5209 40.1004 42.5498 40.201 42.6854C40.2284 42.7235 40.2573 42.7586 40.2848 42.7936C40.3914 42.9231 40.3731 43.1151 40.2421 43.2218C40.1857 43.269 40.1172 43.2919 40.0486 43.2919H40.0501ZM42.9391 43.2843C42.8324 43.2843 42.7304 43.2294 42.674 43.1304C42.5902 42.9841 42.642 42.7982 42.7883 42.7144C42.8309 42.69 42.8736 42.6656 42.9162 42.6397C43.061 42.5544 43.2484 42.6031 43.3338 42.7479C43.4191 42.8927 43.3703 43.0801 43.2256 43.1654C43.1799 43.1928 43.1341 43.2187 43.09 43.2446C43.0427 43.2721 42.9909 43.2843 42.9391 43.2843ZM33.2939 42.9688C33.1293 42.9688 32.9937 42.8378 32.9891 42.6717L32.9846 42.5209C32.9785 42.3532 33.111 42.2115 33.2786 42.2054C33.2817 42.2054 33.2863 42.2054 33.2893 42.2054C33.4523 42.2054 33.588 42.335 33.594 42.4995L33.5986 42.6549C33.6032 42.8226 33.4706 42.9627 33.303 42.9673C33.3 42.9673 33.2969 42.9673 33.2939 42.9673V42.9688ZM30.1276 42.7738C30.0133 42.7738 29.9051 42.7098 29.8533 42.6001C29.7801 42.4477 29.8441 42.2664 29.9965 42.1933L30.1321 42.1277C30.2845 42.0531 30.4658 42.1171 30.539 42.2679C30.6121 42.4188 30.5496 42.6016 30.3988 42.6748L30.2601 42.7418C30.2175 42.7616 30.1733 42.7723 30.1291 42.7723L30.1276 42.7738ZM36.9188 42.3776C36.8259 42.3776 36.7345 42.335 36.675 42.2557C36.5745 42.1216 36.6004 41.9297 36.7345 41.8291L36.8548 41.7377C36.9889 41.6356 37.1794 41.6615 37.2815 41.7971C37.3836 41.9312 37.3577 42.1216 37.2221 42.2237L37.1002 42.3167C37.0453 42.3578 36.9813 42.3776 36.9173 42.3776H36.9188ZM44.3348 42.3563C44.2419 42.3563 44.1489 42.3136 44.0895 42.2329C43.989 42.0973 44.0179 41.9068 44.1535 41.8062L44.2739 41.7163C44.4095 41.6158 44.6 41.6432 44.7005 41.7773C44.8011 41.9114 44.7737 42.1034 44.6396 42.2039L44.5162 42.2969C44.4613 42.3365 44.3988 42.3563 44.3348 42.3563ZM31.6147 41.9967C31.5081 41.9967 31.406 41.9418 31.3496 41.8428C31.2673 41.6965 31.3176 41.5106 31.4639 41.4268L31.5949 41.3522C31.7412 41.2684 31.9271 41.3186 32.0109 41.4649C32.0947 41.6112 32.0444 41.7971 31.8981 41.8809L31.764 41.9571C31.7168 41.9845 31.665 41.9967 31.6132 41.9967H31.6147ZM39.2471 41.8276C39.1282 41.8276 39.0155 41.7575 38.9667 41.6432L38.9073 41.5015C38.8418 41.3461 38.9149 41.1678 39.0703 41.1023C39.2242 41.0367 39.404 41.1099 39.4696 41.2653L39.529 41.404C39.5945 41.5594 39.5229 41.7377 39.369 41.8032C39.3294 41.8199 39.2898 41.8276 39.2486 41.8276H39.2471ZM38.2399 41.3461C38.15 41.3461 38.0616 41.3064 38.0022 41.2318C37.8971 41.1007 37.9184 40.9088 38.0494 40.8036L38.1683 40.7091C38.2993 40.604 38.4913 40.6253 38.5965 40.7564C38.7016 40.8874 38.6803 41.0794 38.5492 41.1845L38.4304 41.2805C38.374 41.3247 38.307 41.3476 38.2399 41.3476V41.3461ZM45.6529 41.3232C45.5645 41.3232 45.4776 41.2851 45.4167 41.212C45.31 41.0825 45.3283 40.8905 45.4594 40.7838L45.5355 40.7198C45.6651 40.6131 45.8571 40.6314 45.9652 40.761C46.0719 40.8905 46.0536 41.0825 45.9241 41.1906L45.8449 41.2546C45.7885 41.3019 45.7199 41.3247 45.6513 41.3247L45.6529 41.3232ZM33.1247 41.3019C33.0013 41.3019 32.8855 41.2272 32.8398 41.1053C32.8368 41.0992 32.8352 41.0931 32.8322 41.0886C32.7225 40.9819 32.7088 40.8082 32.8032 40.6848C32.9053 40.5507 33.0973 40.5263 33.2299 40.6284C33.3061 40.6863 33.364 40.7716 33.4082 40.8889C33.4676 41.0459 33.3883 41.2226 33.2314 41.2821C33.1964 41.2958 33.1598 41.3019 33.1232 41.3019H33.1247Z" fill="#344966"/>
<path d="M49.8153 53.0088C49.6477 53.0088 49.5121 52.8732 49.5106 52.7055C49.5106 52.5379 49.6447 52.4008 49.8138 52.3993C49.858 52.3993 49.9037 52.3977 49.9509 52.3947C50.114 52.384 50.2633 52.5151 50.2725 52.6827C50.2816 52.8503 50.1521 52.9935 49.9845 53.0042C49.9281 53.0072 49.8717 53.0088 49.8169 53.0088H49.8153ZM51.4518 52.6796C51.3254 52.6796 51.208 52.6004 51.1638 52.4739C51.109 52.3155 51.1928 52.1418 51.3513 52.0869C51.397 52.0717 51.4427 52.0549 51.4884 52.0381C51.6453 51.9802 51.8221 52.0595 51.88 52.218C51.9379 52.3764 51.8587 52.5516 51.7002 52.6095C51.6499 52.6278 51.5996 52.6461 51.5509 52.6629C51.5173 52.6751 51.4838 52.6796 51.4503 52.6796H51.4518ZM48.6162 52.3033C48.4714 52.3033 48.3434 52.2012 48.3175 52.0534C48.3053 51.9909 48.2992 51.9239 48.2977 51.8553C48.2931 51.6877 48.4257 51.5475 48.5933 51.5414C48.7701 51.5384 48.9011 51.6694 48.9072 51.837C48.9072 51.8736 48.9118 51.9086 48.9179 51.9422C48.9483 52.1082 48.8386 52.2667 48.6725 52.2972C48.6543 52.3002 48.636 52.3018 48.6177 52.3018L48.6162 52.3033ZM47.3057 51.5887C47.1656 51.5887 47.0391 51.4911 47.0086 51.3494C46.9721 51.1849 47.0772 51.0218 47.2418 50.9868C47.2844 50.9776 47.3286 50.967 47.3743 50.9548C47.5374 50.9106 47.705 51.0051 47.7492 51.1681C47.7933 51.3311 47.6989 51.4987 47.5358 51.5429C47.4779 51.5582 47.4246 51.5719 47.3728 51.5841C47.3515 51.5887 47.3286 51.5917 47.3073 51.5917L47.3057 51.5887ZM48.8432 50.935C48.7365 50.935 48.6329 50.8786 48.5765 50.7795C48.4943 50.6333 48.5461 50.4474 48.6923 50.3651L48.8219 50.292C48.9681 50.2081 49.154 50.2584 49.2378 50.4047C49.3216 50.551 49.2714 50.7369 49.1251 50.8207C49.0794 50.8466 49.0337 50.8725 48.9895 50.8969C48.9422 50.9228 48.8904 50.9365 48.8401 50.9365L48.8432 50.935ZM46.2772 50.8862C46.2772 50.8862 46.2635 50.8862 46.2559 50.8862C46.0883 50.8755 45.9603 50.7293 45.9725 50.5617C45.9801 50.4519 45.9969 50.3758 45.9999 50.362C46.038 50.1975 46.2026 50.0969 46.3656 50.135C46.5286 50.1731 46.6307 50.3361 46.5926 50.4992C46.5926 50.5022 46.5835 50.5434 46.5789 50.6028C46.5683 50.7643 46.4342 50.8877 46.2757 50.8877L46.2772 50.8862Z" fill="#344966"/>
<path d="M47.0679 57.507C46.9049 57.507 46.7693 57.3791 46.7632 57.2145C46.7571 57.0469 46.8881 56.9052 47.0557 56.8976C47.0938 56.8976 47.1334 56.8915 47.1731 56.8854C47.3391 56.8595 47.4946 56.9737 47.5205 57.1414C47.5464 57.3074 47.4321 57.4629 47.2645 57.4888C47.202 57.4979 47.1395 57.504 47.0786 57.507C47.074 57.507 47.071 57.507 47.0664 57.507H47.0679ZM45.9815 56.6111C45.8566 56.6111 45.7408 56.5349 45.695 56.4115C45.6768 56.3597 45.6585 56.3063 45.6417 56.2515C45.593 56.09 45.6828 55.9208 45.8444 55.8706C46.0059 55.8218 46.175 55.9117 46.2253 56.0732C46.239 56.1174 46.2527 56.1601 46.268 56.2012C46.3259 56.3597 46.2451 56.5349 46.0866 56.5928C46.0516 56.605 46.0166 56.6111 45.9815 56.6111ZM44.2871 55.3449C44.1469 55.3449 44.0205 55.2473 43.99 55.1056C43.9534 54.9411 44.0586 54.7796 44.2231 54.743C44.2658 54.7339 44.3084 54.7232 44.3542 54.711C44.5157 54.6653 44.6848 54.7598 44.7305 54.9213C44.7762 55.0828 44.6818 55.2519 44.5202 55.2976C44.4639 55.3129 44.409 55.3266 44.3557 55.3388C44.3343 55.3433 44.3115 55.3464 44.2902 55.3464L44.2871 55.3449ZM42.8518 55.0508C42.7832 55.0508 42.7131 55.0279 42.6552 54.9792C42.608 54.9396 42.5653 54.8999 42.5226 54.8573C42.4038 54.7369 42.4053 54.5449 42.5257 54.4261C42.646 54.3072 42.838 54.3087 42.9569 54.4291C42.9858 54.4581 43.0163 54.487 43.0483 54.5129C43.1778 54.6211 43.1931 54.8131 43.0849 54.9426C43.0239 55.0142 42.9386 55.0508 42.8518 55.0508ZM45.7088 54.9639C45.5472 54.9639 45.4132 54.8375 45.404 54.6729C45.401 54.6226 45.3994 54.5708 45.3979 54.5175C45.3918 54.3499 45.5229 54.2082 45.6905 54.2021C45.8581 54.1945 45.9998 54.327 46.0059 54.4946L46.012 54.644C46.0196 54.8116 45.8901 54.9548 45.7225 54.9624C45.7179 54.9624 45.7133 54.9624 45.7072 54.9624L45.7088 54.9639ZM42.0853 53.5911C41.9421 53.5911 41.8156 53.4905 41.7867 53.3457C41.7653 53.236 41.7577 53.1705 41.7577 53.1705C41.7394 53.0029 41.8583 52.852 42.0259 52.8322C42.1905 52.8124 42.3428 52.9313 42.3642 53.0989C42.3642 53.105 42.3703 53.1522 42.3855 53.2269C42.4175 53.3914 42.3108 53.553 42.1463 53.585C42.1265 53.5895 42.1067 53.5911 42.0868 53.5911H42.0853Z" fill="#344966"/>
<path d="M41.813 59.8412C41.65 59.8412 41.5144 59.7132 41.5083 59.5487C41.5022 59.3811 41.6332 59.2394 41.8009 59.2318C41.8389 59.2318 41.8786 59.2257 41.9182 59.2196C42.0858 59.1937 42.2397 59.3079 42.2656 59.4755C42.2915 59.6416 42.1772 59.7971 42.0096 59.823C41.9471 59.8321 41.8847 59.8382 41.8237 59.8412C41.8191 59.8412 41.8161 59.8412 41.8115 59.8412H41.813ZM40.7266 58.9453C40.6017 58.9453 40.4859 58.8691 40.4402 58.7457C40.4219 58.6939 40.4036 58.6405 40.3868 58.5857C40.3381 58.4242 40.428 58.255 40.5895 58.2048C40.751 58.156 40.9201 58.2459 40.9704 58.4074C40.9841 58.4516 40.9978 58.4943 41.0131 58.5354C41.071 58.6939 40.9902 58.8691 40.8318 58.927C40.7967 58.9392 40.7617 58.9453 40.7266 58.9453ZM39.0322 57.6791C38.892 57.6791 38.7656 57.5815 38.7351 57.4398C38.6985 57.2753 38.8037 57.1138 38.9682 57.0772C39.0109 57.068 39.0536 57.0574 39.0993 57.0452C39.2608 56.9995 39.4299 57.094 39.4756 57.2555C39.5213 57.417 39.4269 57.5861 39.2654 57.6318C39.209 57.6471 39.1541 57.6608 39.1008 57.673C39.0795 57.6775 39.0566 57.6806 39.0353 57.6806L39.0322 57.6791ZM37.5969 57.385C37.5283 57.385 37.4582 57.3621 37.4003 57.3134C37.3531 57.2738 37.3104 57.2341 37.2677 57.1915C37.1489 57.0711 37.1504 56.8791 37.2708 56.7603C37.3912 56.6414 37.5832 56.6429 37.702 56.7633C37.731 56.7923 37.7614 56.8212 37.7934 56.8471C37.923 56.9553 37.9382 57.1473 37.83 57.2768C37.7691 57.3484 37.6837 57.385 37.5969 57.385ZM40.4539 57.2981C40.2924 57.2981 40.1583 57.1717 40.1491 57.0071C40.1461 56.9568 40.1446 56.905 40.143 56.8517C40.1369 56.6841 40.268 56.5424 40.4356 56.5363C40.6062 56.5317 40.7449 56.6612 40.751 56.8288L40.7571 56.9781C40.7647 57.1458 40.6352 57.289 40.4676 57.2966C40.463 57.2966 40.4584 57.2966 40.4523 57.2966L40.4539 57.2981ZM36.8304 55.9252C36.6872 55.9252 36.5607 55.8247 36.5318 55.6799C36.5105 55.5702 36.5028 55.5047 36.5028 55.5047C36.4845 55.3371 36.6034 55.1862 36.771 55.1664C36.9356 55.1481 37.0879 55.2655 37.1093 55.4331C37.1093 55.4392 37.1154 55.4864 37.1306 55.5611C37.1626 55.7256 37.0559 55.8872 36.8914 55.9192C36.8716 55.9237 36.8518 55.9252 36.832 55.9252H36.8304Z" fill="#344966"/>
<path d="M57.0827 7.06384C56.8815 7.06384 56.6819 6.97546 56.5478 6.80632C56.3543 6.56405 56.3513 6.23188 56.5174 5.9896C56.5219 5.97284 56.525 5.95608 56.5296 5.9378C56.7535 5.03422 57.3371 4.02094 59.9001 4.20684C60.2779 4.23426 60.5614 4.56186 60.5339 4.93975C60.5065 5.31764 60.1774 5.59953 59.801 5.57362C58.064 5.44868 57.9466 5.92256 57.8598 6.26692C57.8125 6.45891 57.747 6.72252 57.5108 6.91146C57.3844 7.01355 57.2335 7.06231 57.0827 7.06231V7.06384Z" fill="#344966"/>
<path d="M59.5828 7.35158C58.4979 6.21487 56.991 10.4813 59.0267 10.2939C60.8795 10.1233 61.3717 9.2273 59.5828 7.35158Z" fill="#344966"/>
<path d="M63.6591 9.71924L65.896 11.2247L69.6002 15.4134L70.7155 20.5179V26.4971L69.812 27.1005L68.8215 24.088L67.8326 20.4737L64.4561 18.2902L61.8947 17.2053L59.0361 17.0758L60.3039 14.4078L63.6591 9.71924Z" fill="#344966"/>
</svg>
