<svg width="107" height="91" viewBox="0 0 107 91" fill="none" xmlns="http://www.w3.org/2000/svg">
<path d="M91.8619 35.1124C94.5604 34.8668 97.2425 35.7327 99.29 37.5108C102.116 40.3861 102.03 45.806 101.952 50.5878C101.925 52.2919 101.899 53.9095 101.991 55.3845L100.158 53.8827C99.8148 53.602 99.3742 53.4692 98.9335 53.5132C98.4928 53.5572 98.0879 53.7745 97.8068 54.1178C97.223 54.8329 97.3281 55.8862 98.0417 56.4705L104.166 61.4866C104.855 62.0502 105.864 61.9741 106.461 61.3142C107.058 60.6536 107.033 59.6407 106.405 59.0106C105.177 57.7812 105.236 54.152 105.292 50.6415C105.379 45.2029 105.479 39.0394 101.671 35.1655H101.67C98.9998 32.7417 95.4571 31.5153 91.8616 31.7677C90.9393 31.7677 90.1914 32.5164 90.1914 33.4398C90.1914 34.3638 90.9393 35.1118 91.8616 35.1118L91.8619 35.1124Z" fill="#D76677"/>
<path d="M53.6943 53.5239C53.2566 53.4567 52.8099 53.5679 52.4535 53.8314C52.0971 54.0949 51.86 54.4898 51.7951 54.9287L46.9976 86.9458H39.0051C40.0005 85.5231 41.2465 84.2944 42.6835 83.3203C43.1189 83.0277 43.3925 82.5469 43.4231 82.0229L45.0934 51.9263V51.9255C45.1195 51.4822 44.9681 51.0462 44.6721 50.7148C44.3768 50.3834 43.9615 50.1826 43.5186 50.158C43.0757 50.1333 42.6402 50.2864 42.3099 50.5827C41.9796 50.8798 41.7812 51.2963 41.7574 51.7397L40.1319 81.0357C38.5616 82.2217 35.0742 85.2322 35.0742 88.6173C35.0742 89.5407 35.8221 90.2894 36.7445 90.2894H48.4361C49.263 90.2894 49.9654 89.684 50.0877 88.8652L55.0984 55.4245C55.164 54.9863 55.0537 54.5392 54.7897 54.1831C54.5265 53.8263 54.1328 53.5889 53.6944 53.5233L53.6943 53.5239Z" fill="#D76677"/>
<path d="M89.2673 85.0977C90.0584 84.7013 90.4037 83.7563 90.0547 82.9428L85.044 71.2385C84.8889 70.8765 84.6108 70.5809 84.2589 70.4033C80.7036 68.3909 77.5735 65.7044 75.0428 62.4954C74.4679 61.7736 73.4165 61.6542 72.6955 62.2297C71.9737 62.8044 71.8544 63.8569 72.4293 64.5795C75.136 67.9945 78.4488 70.8803 82.2031 73.0904L86.4241 82.9503C84.6726 84.323 83.6078 86.3937 83.5093 88.618C83.5093 89.5413 84.2572 90.29 85.1796 90.29H88.5201C89.4424 90.29 90.1903 89.5413 90.1903 88.618C90.1903 87.6947 89.4424 86.946 88.5201 86.946H87.339C87.7699 86.1413 88.4455 85.4941 89.2673 85.0977Z" fill="#D76677"/>
<path d="M75.1515 59.3101C75.1112 58.8689 74.8965 58.4614 74.5557 58.1777C74.215 57.8948 73.7758 57.7582 73.3344 57.8C68.1746 58.2792 62.6069 58.5218 56.7864 58.5218C55.8641 58.5218 55.1162 59.2705 55.1162 60.1938C55.1162 61.1172 55.8641 61.8659 56.7864 61.8659C62.7098 61.8659 68.3811 61.618 73.6432 61.1291C74.0839 61.0888 74.491 60.8738 74.7736 60.5327C75.057 60.1916 75.1925 59.752 75.1515 59.3101Z" fill="#D76677"/>
<path d="M102.436 69.0938C101.961 67.0142 100.707 65.1973 98.9313 64.0174L96.8718 62.6424L96.8726 55.1773C96.8726 54.9093 96.5482 28.4248 68.4786 28.4248C49.0427 28.4248 41.4837 24.8187 39.0595 23.1893L44.7301 16.0928V16.092C45.1313 15.5904 45.2095 14.9029 44.9314 14.3237C44.6533 13.7445 44.068 13.3757 43.426 13.3757H36.2111L38.0491 11.076C38.4503 10.5744 38.5286 9.88688 38.2505 9.30765C37.9723 8.72842 37.387 8.35967 36.745 8.35967H25.8377C24.034 7.27583 21.9715 6.69884 19.8682 6.68764H15.4257L2.41738 0.176449C1.89917 -0.0825726 1.28475 -0.0549406 0.791886 0.249601C0.299768 0.55416 2.30075e-05 1.09234 2.30075e-05 1.67158V13.5058C-0.00594212 16.0474 1.1483 18.4517 3.13396 20.0341L8.45409 24.2941C9.10504 28.6609 13.6139 51.2339 37.8999 59.1145C38.7752 59.3929 39.7103 58.9114 39.9937 58.0366C40.277 57.1625 39.802 56.2227 38.9304 55.9338C14.2663 47.9281 11.7771 24.2569 11.6836 23.2537C11.6418 22.8013 11.4182 22.3856 11.064 22.1019L5.22044 17.4218C4.0289 16.4723 3.3362 15.0293 3.33992 13.5044V4.37609L14.2845 9.85425C14.5163 9.97069 14.7721 10.0304 15.0316 10.0304H19.8678C21.764 10.0334 23.6027 10.6791 25.0851 11.8629L30.6908 16.3528V16.352C30.9868 16.5894 31.3544 16.7193 31.7339 16.7185H39.9509L35.4405 22.3631C34.964 22.958 34.9514 23.8008 35.4084 24.4106C35.9721 25.1631 41.6927 31.7676 68.4791 31.7676C93.1738 31.7676 93.5288 54.2225 93.5326 55.1761V63.5363H93.5334C93.5334 64.0953 93.8122 64.6171 94.2768 64.9269L97.0797 66.7982H97.0805C98.1452 67.5066 98.8983 68.5971 99.1825 69.8444L103.125 86.9446H95.6927C96.1237 86.1399 96.7985 85.4928 97.621 85.0964C98.4122 84.7 98.7574 83.7551 98.4084 82.9415L93.3977 71.2372C93.2426 70.8737 92.963 70.5774 92.6103 70.4005C87.8449 67.6998 83.8766 63.7871 81.1058 59.0589C78.3349 54.3302 76.8601 48.9535 76.8309 43.4717C76.8309 42.5484 76.083 41.7997 75.1607 41.7997C74.2383 41.7997 73.4904 42.5484 73.4904 43.4717C73.4725 49.4769 75.0421 55.3805 78.0396 60.5825C81.037 65.7845 85.3558 70.1005 90.5574 73.0922L94.7776 82.949C93.0261 84.3217 91.9613 86.3924 91.8628 88.6167C91.8628 89.54 92.6107 90.2887 93.5331 90.2887H105.225C105.734 90.2887 106.215 90.0566 106.532 89.6572C106.849 89.2586 106.967 88.7368 106.852 88.2405L102.436 69.0938ZM30.2308 11.7039H33.2692L32.0837 13.1878L30.2308 11.7039Z" fill="#D76677"/>
<path d="M36.0008 83.3205C36.4363 83.0279 36.7099 82.5472 36.7405 82.0232L37.8538 61.9588V61.958C37.8799 61.5146 37.7285 61.0787 37.4325 60.7473C37.1372 60.4159 36.7219 60.2151 36.279 60.1904C35.8361 60.1658 35.4006 60.3188 35.0703 60.6159C34.74 60.9123 34.5409 61.3288 34.5178 61.7722L33.4493 81.0359C31.8789 82.222 28.3916 85.2324 28.3916 88.6176C28.3916 89.5409 29.1395 90.2896 30.0618 90.2896H31.7321C32.5493 90.2896 33.2472 89.6969 33.3799 88.8893C33.5134 88.0824 33.0429 87.2964 32.2689 87.0336C33.2681 85.5721 34.5342 84.3121 36.0009 83.32L36.0008 83.3205Z" fill="#D76677"/>
<path d="M38.2859 32.4085C38.5446 31.7837 38.4014 31.0641 37.9242 30.5864L32.9135 25.5703C32.2611 24.9172 31.2038 24.9172 30.5513 25.5703C29.8989 26.2234 29.8989 27.2819 30.5513 27.9343L32.7106 30.0959L28.3919 30.0966C27.855 30.0966 27.3509 30.3549 27.037 30.7916C26.7231 31.2275 26.6381 31.7873 26.8074 32.2971L27.6581 34.8514V34.8522C25.1715 34.2938 22.9628 32.8696 21.4262 30.8341C20.9102 30.0742 19.8782 29.8727 19.1147 30.3848C18.3519 30.8968 18.1447 31.9292 18.6509 32.6958C21.3233 36.3235 25.56 38.4621 30.0622 38.4568C30.599 38.456 31.1031 38.1978 31.417 37.7618C31.7309 37.3259 31.8159 36.7653 31.6467 36.2555L30.7087 33.4408H36.7431C37.4186 33.44 38.0271 33.0333 38.2859 32.4085Z" fill="#D76677"/>
<path d="M18.3711 13.376H21.7116V16.72H18.3711V13.376Z" fill="#D76677"/>
</svg>
