<svg width="518" height="802" viewBox="0 0 518 802" fill="none" xmlns="http://www.w3.org/2000/svg">
    <path d="M-159.885 53.0397C-156.615 90.7297 -155.675 128.77 -148.245 165.98C-145.005 182.21 -138.625 197.22 -131.895 212.31C-117.545 244.48 -98.4146 274.74 -77.1346 302.75C-62.1046 322.53 -46.4746 341.74 -28.9346 359.37C-11.3046 377.09 8.06543 393.18 28.5754 407.47C68.6054 435.37 116.755 453.77 165.925 454.05C192.045 454.2 218.305 448.99 242.645 439.66C270.375 429.03 296.805 415.57 323.735 403.14C329.775 400.35 335.845 397.64 341.965 395.05C338.385 396.56 334.795 398.07 331.215 399.59C348.325 392.4 366.015 386.05 384.475 383.47C380.485 384.01 376.495 384.54 372.515 385.08C381.115 383.94 389.775 383.68 398.385 384.78C394.395 384.24 390.405 383.71 386.425 383.17C392.925 384.07 399.235 385.74 405.295 388.27C401.715 386.76 398.125 385.25 394.545 383.73C400.355 386.23 405.745 389.46 410.765 393.31C407.725 390.96 404.695 388.62 401.655 386.27C406.845 390.35 411.565 394.96 415.615 400.18C413.265 397.14 410.925 394.11 408.575 391.07C412.495 396.21 415.705 401.82 418.215 407.77C416.705 404.19 415.195 400.6 413.675 397.02C416.875 404.75 418.865 412.87 419.995 421.15C419.455 417.16 418.925 413.17 418.385 409.19C420.355 424.32 419.535 439.65 417.515 454.73C418.055 450.74 418.585 446.75 419.125 442.77C413.645 482.81 400.495 521.56 387.955 559.82C375.145 598.91 361.455 638.17 354.225 678.77C350.155 701.63 346.855 725.47 349.505 748.72C349.275 754.92 350.565 760.69 353.385 766.06C355.195 771.64 358.305 776.47 362.685 780.54C370.485 788.34 383.295 794.22 394.505 793.72C406.145 793.2 418.215 789.38 426.325 780.54C433.865 772.33 440.835 760.32 439.505 748.72C437.785 733.68 438.625 718.48 440.615 703.5C440.075 707.49 439.545 711.48 439.005 715.46C444.225 677.03 456.425 639.77 468.415 603.02C480.655 565.52 493.835 528.07 501.935 489.4C506.195 469.07 509.515 448.07 509.515 427.25C509.515 415.9 508.085 404.57 506.195 393.39C505.015 386.42 503.125 379.64 500.455 373.09C497.785 366.55 495.185 359.83 491.645 353.68C488.115 347.56 483.595 342.06 479.235 336.53C471.705 326.96 461.915 319.21 451.855 312.46C444.815 307.73 437.035 304.68 429.195 301.46C424.895 299.69 420.495 298.27 415.945 297.32C403.155 294.64 389.805 293.24 376.765 294.54C362.955 295.92 349.345 298.15 336.065 302.17C322.215 306.37 308.915 312.04 295.615 317.69C274.675 326.59 254.395 336.96 233.705 346.42C228.675 348.72 223.615 350.96 218.515 353.12C222.095 351.61 225.685 350.1 229.265 348.58C212.155 355.76 194.625 361.68 176.185 364.2C180.175 363.66 184.165 363.13 188.145 362.59C173.775 364.48 159.265 364.43 144.905 362.53C148.895 363.07 152.885 363.6 156.865 364.14C140.425 361.89 124.435 357.26 109.145 350.85C112.725 352.36 116.315 353.87 119.895 355.39C99.1154 346.59 79.8254 334.65 61.9554 320.92C64.9954 323.27 68.0254 325.61 71.0654 327.96C48.7754 310.74 28.6854 290.79 10.4854 269.34C5.47542 263.44 0.615417 257.41 -4.12459 251.29C-1.77458 254.33 0.565414 257.36 2.91542 260.4C-16.3346 235.42 -33.6146 208.72 -47.7446 180.51C-50.8246 174.37 -53.7346 168.15 -56.4046 161.82C-54.8946 165.4 -53.3846 168.99 -51.8646 172.57C-58.6446 156.48 -62.2646 140.28 -64.6046 122.92C-64.0646 126.91 -63.5346 130.9 -62.9946 134.88C-66.5546 107.72 -67.5346 80.2997 -69.8946 53.0297C-69.6646 46.8297 -70.9546 41.0597 -73.7746 35.6897C-75.5846 30.1097 -78.6946 25.2797 -83.0746 21.2097C-90.8746 13.4097 -103.685 7.52966 -114.895 8.02966C-126.535 8.54966 -138.605 12.3697 -146.715 21.2097C-154.385 29.5697 -160.915 41.2697 -159.895 53.0297L-159.885 53.0397Z"
          fill="#D76677" stroke="#D76677" stroke-width="16" stroke-miterlimit="10"/>
</svg>
