<svg width="475" height="767" viewBox="0 0 475 767" fill="none" xmlns="http://www.w3.org/2000/svg">
<path d="M13.3618 40.8901C10.8918 59.2401 9.23178 77.1001 10.3618 95.6101C11.5318 114.66 14.3118 133.77 18.3518 152.42C26.1618 188.42 39.6018 222.95 54.7918 256.41C84.2118 321.25 124.242 380.91 168.962 436.13C214.212 492 267.732 539.94 326.382 581.43C390.392 626.71 460.582 662.03 533.412 690.75C603.282 718.3 676.012 738.49 749.822 752.25C758.742 753.91 767.682 755.48 776.642 756.96C782.622 758.84 788.602 759.1 794.582 757.76C800.572 757.49 806.152 755.71 811.312 752.42C820.642 746.96 829.552 736.25 831.992 725.53C834.612 714.01 834.052 701.08 827.452 690.85C821.482 681.6 811.892 672.04 800.562 670.17C729.392 658.41 659.112 640.85 591.142 616.63C571.872 609.77 552.802 602.35 533.952 594.4C537.532 595.91 541.122 597.42 544.702 598.94C489.312 575.5 435.892 547.27 386.052 513.56C372.042 504.08 358.322 494.17 344.922 483.84C347.962 486.19 350.992 488.53 354.032 490.88C314.292 460.15 277.542 425.68 244.982 387.41C236.672 377.64 228.602 367.66 220.742 357.51C223.092 360.55 225.432 363.58 227.782 366.62C196.392 325.98 168.232 282.65 144.942 236.85C138.292 223.76 132.072 210.46 126.342 196.95L130.882 207.7C116.742 174.16 105.512 139.11 100.632 102.94C101.172 106.93 101.702 110.92 102.242 114.9C99.5818 94.6201 98.9918 74.0701 101.622 53.7501C101.082 57.7401 100.552 61.7301 100.012 65.7101L100.132 64.8101C102.012 58.8301 102.272 52.8501 100.932 46.8701C100.662 40.8801 98.8818 35.3001 95.5918 30.1401C90.1318 20.8101 79.4218 11.9001 68.7018 9.46007C57.1818 6.84007 44.2518 7.40007 34.0218 14.0001C30.9818 16.3501 27.9518 18.6901 24.9118 21.0401C19.3318 26.6501 15.4818 33.2701 13.3418 40.9001L13.3618 40.8901Z" fill="#D76677" stroke="#D76677" stroke-width="16" stroke-miterlimit="10"/>
</svg>
