<svg width="6" height="54" viewBox="0 0 6 54" fill="none" xmlns="http://www.w3.org/2000/svg">
<path d="M3.5 1C3.5 0.723858 3.27614 0.5 3 0.5C2.72386 0.5 2.5 0.723858 2.5 1L3.5 1ZM3 48.3333C1.52724 48.3333 0.333335 49.5272 0.333335 51C0.333336 52.4728 1.52724 53.6667 3 53.6667C4.47276 53.6667 5.66667 52.4728 5.66667 51C5.66667 49.5272 4.47276 48.3333 3 48.3333ZM2.5 3.77778C2.5 4.05392 2.72386 4.27778 3 4.27778C3.27614 4.27778 3.5 4.05392 3.5 3.77778L2.5 3.77778ZM3.5 14.8889C3.5 14.6127 3.27614 14.3889 3 14.3889C2.72386 14.3889 2.5 14.6127 2.5 14.8889L3.5 14.8889ZM2.5 20.4444C2.5 20.7206 2.72386 20.9444 3 20.9444C3.27614 20.9444 3.5 20.7206 3.5 20.4444L2.5 20.4444ZM3.5 31.5556C3.5 31.2794 3.27614 31.0556 3 31.0556C2.72386 31.0556 2.5 31.2794 2.5 31.5556L3.5 31.5556ZM2.5 37.1111C2.5 37.3872 2.72386 37.6111 3 37.6111C3.27614 37.6111 3.5 37.3872 3.5 37.1111L2.5 37.1111ZM3.5 48.2222C3.5 47.9461 3.27614 47.7222 3 47.7222C2.72386 47.7222 2.5 47.9461 2.5 48.2222L3.5 48.2222ZM2.5 1L2.5 3.77778L3.5 3.77778L3.5 1L2.5 1ZM2.5 14.8889L2.5 20.4444L3.5 20.4444L3.5 14.8889L2.5 14.8889ZM2.5 31.5556L2.5 37.1111L3.5 37.1111L3.5 31.5556L2.5 31.5556ZM2.5 48.2222L2.5 51L3.5 51L3.5 48.2222L2.5 48.2222Z" fill="#384864"/>
</svg>
