<svg width="8" height="118" viewBox="0 0 8 118" fill="none" xmlns="http://www.w3.org/2000/svg">
<path d="M4.5 1C4.5 0.723858 4.27614 0.5 4 0.5C3.72386 0.5 3.5 0.723858 3.5 1L4.5 1ZM3.64644 117.354C3.8417 117.549 4.15829 117.549 4.35355 117.354L7.53553 114.172C7.73079 113.976 7.73079 113.66 7.53553 113.464C7.34027 113.269 7.02368 113.269 6.82842 113.464L3.99999 116.293L1.17157 113.464C0.976306 113.269 0.659723 113.269 0.464461 113.464C0.269199 113.66 0.269199 113.976 0.464461 114.172L3.64644 117.354ZM3.5 3.41667C3.5 3.69281 3.72386 3.91667 4 3.91667C4.27614 3.91667 4.5 3.69281 4.5 3.41667L3.5 3.41667ZM4.5 13.0833C4.5 12.8072 4.27614 12.5833 4 12.5833C3.72386 12.5833 3.5 12.8072 3.5 13.0833L4.5 13.0833ZM3.5 17.9167C3.5 18.1928 3.72386 18.4167 4 18.4167C4.27614 18.4167 4.5 18.1928 4.5 17.9167L3.5 17.9167ZM4.5 27.5833C4.5 27.3072 4.27614 27.0833 4 27.0833C3.72386 27.0833 3.5 27.3072 3.5 27.5833L4.5 27.5833ZM3.5 32.4167C3.5 32.6928 3.72386 32.9167 4 32.9167C4.27614 32.9167 4.5 32.6928 4.5 32.4167L3.5 32.4167ZM4.5 42.0833C4.5 41.8072 4.27614 41.5833 4 41.5833C3.72386 41.5833 3.5 41.8072 3.5 42.0833L4.5 42.0833ZM3.5 46.9167C3.5 47.1928 3.72386 47.4167 4 47.4167C4.27614 47.4167 4.5 47.1928 4.5 46.9167L3.5 46.9167ZM4.5 56.5833C4.5 56.3072 4.27614 56.0833 4 56.0833C3.72386 56.0833 3.5 56.3072 3.5 56.5833L4.5 56.5833ZM3.5 61.4167C3.5 61.6928 3.72385 61.9167 4 61.9167C4.27614 61.9167 4.5 61.6928 4.5 61.4167L3.5 61.4167ZM4.5 71.0833C4.5 70.8072 4.27614 70.5833 4 70.5833C3.72385 70.5833 3.5 70.8072 3.5 71.0833L4.5 71.0833ZM3.5 75.9167C3.5 76.1928 3.72385 76.4167 4 76.4167C4.27614 76.4167 4.5 76.1928 4.5 75.9167L3.5 75.9167ZM4.5 85.5833C4.5 85.3072 4.27614 85.0833 4 85.0833C3.72385 85.0833 3.5 85.3072 3.5 85.5833L4.5 85.5833ZM3.5 90.4167C3.5 90.6928 3.72385 90.9167 4 90.9167C4.27614 90.9167 4.5 90.6928 4.5 90.4167L3.5 90.4167ZM4.5 100.083C4.5 99.8072 4.27614 99.5833 4 99.5833C3.72385 99.5833 3.5 99.8072 3.5 100.083L4.5 100.083ZM3.5 104.917C3.5 105.193 3.72385 105.417 4 105.417C4.27614 105.417 4.5 105.193 4.5 104.917L3.5 104.917ZM4.5 114.583C4.5 114.307 4.27614 114.083 4 114.083C3.72385 114.083 3.5 114.307 3.5 114.583L4.5 114.583ZM3.5 1L3.5 3.41667L4.5 3.41667L4.5 1L3.5 1ZM3.5 13.0833L3.5 17.9167L4.5 17.9167L4.5 13.0833L3.5 13.0833ZM3.5 27.5833L3.5 32.4167L4.5 32.4167L4.5 27.5833L3.5 27.5833ZM3.5 42.0833L3.5 46.9167L4.5 46.9167L4.5 42.0833L3.5 42.0833ZM3.5 56.5833L3.5 61.4167L4.5 61.4167L4.5 56.5833L3.5 56.5833ZM3.5 71.0833L3.5 75.9167L4.5 75.9167L4.5 71.0833L3.5 71.0833ZM3.5 85.5833L3.5 90.4167L4.5 90.4167L4.5 85.5833L3.5 85.5833ZM3.5 100.083L3.5 104.917L4.5 104.917L4.5 100.083L3.5 100.083ZM3.5 114.583L3.49999 117L4.49999 117L4.5 114.583L3.5 114.583Z" fill="#384864"/>
</svg>
