<svg width="51" height="45" viewBox="0 0 51 45" fill="none" xmlns="http://www.w3.org/2000/svg">
<g clip-path="url(#clip0_297_1118)">
<path d="M41.0342 27.3446C40.5038 28.2158 39.959 29.2603 39.6794 30.1604C39.4817 30.7958 40.0603 31.3927 40.7015 31.2194C43.334 30.5166 45.788 29.0341 47.6876 26.8007C50.0067 24.0812 51.0915 20.7215 50.995 17.4147C50.9661 16.3509 50.0308 15.5616 48.9797 15.7011C45.6916 16.1392 42.5481 17.7516 40.2338 20.4712C38.3342 22.7046 37.2639 25.3567 36.9939 28.0666C36.9264 28.7309 37.6062 29.2026 38.2041 28.9042C39.0526 28.4806 39.9928 27.7778 40.769 27.1136C40.9233 26.9788 41.1451 27.1665 41.039 27.3398L41.0342 27.3446Z" fill="#C8DFC9"/>
<path d="M34.0914 15.8167C34.4675 16.9141 34.9978 18.1656 35.6005 19.0705C36.0055 19.6818 36.9167 19.6144 37.2204 18.9502C38.4692 16.2017 38.9224 13.0586 38.339 9.86256C37.6302 5.97337 35.5137 2.69066 32.6064 0.447644C31.6855 -0.264732 30.3356 -0.0192509 29.7233 0.972299C27.7947 4.09135 26.9703 7.90834 27.679 11.8023C28.2624 14.9984 29.7908 17.7805 31.9314 19.9128C32.4473 20.4279 33.3248 20.1728 33.4887 19.4604C33.7298 18.4014 33.7876 17.0441 33.7539 15.8889C33.7491 15.6867 34.0335 15.6338 34.101 15.8263L34.0914 15.8167Z" fill="#C8DFC9"/>
<path d="M9.90287 27.2484C10.4284 28.1244 10.9636 29.1689 11.2384 30.0738C11.4312 30.714 10.8527 31.3012 10.2066 31.1231C7.57899 30.4011 5.13458 28.9042 3.24944 26.6611C0.954486 23.9272 -0.106206 20.5626 0.00950581 17.251C0.0480764 16.1921 0.983414 15.4027 2.03928 15.5519C5.32261 16.014 8.45647 17.6409 10.7562 20.3797C12.6414 22.6227 13.6924 25.2845 13.948 27.9944C14.0106 28.6587 13.326 29.1256 12.733 28.8271C11.8893 28.3988 10.9491 27.6912 10.1777 27.0221C10.0234 26.8874 9.80162 27.0751 9.90769 27.2484H9.90287Z" fill="#C8DFC9"/>
<path d="M16.9176 15.7637C16.5319 16.8563 15.9919 18.103 15.3892 19.0079C14.9794 19.6144 14.0682 19.5422 13.7741 18.8731C12.5446 16.1151 12.1107 12.972 12.7134 9.78073C13.4462 5.89635 15.5869 2.62328 18.5086 0.399509C19.4343 -0.30324 20.7843 -0.0529458 21.3869 0.943417C23.2962 4.07691 24.0965 7.89871 23.3637 11.7831C22.761 14.9743 21.2134 17.7468 19.0631 19.8647C18.5424 20.3797 17.6649 20.115 17.5106 19.4026C17.2743 18.3437 17.231 16.9863 17.2695 15.8263C17.2743 15.6241 16.9899 15.5712 16.9224 15.7589L16.9176 15.7637Z" fill="#C8DFC9"/>
<path d="M34.3039 30.9354C32.6454 30.6514 31.4352 29.7369 30.2636 28.856C28.9137 27.8356 27.5155 26.7863 25.505 26.7863C23.4945 26.7863 22.0963 27.8356 20.7463 28.856C19.5748 29.7369 18.3694 30.6466 16.7061 30.9354C13.2974 31.5178 9.66211 33.5972 9.66211 37.6693C9.66211 41.9868 12.5935 45 16.7977 45C19.6905 45 21.1079 43.6715 22.3615 42.5019C23.3547 41.5681 24.1406 40.8364 25.5098 40.8364C26.8791 40.8364 27.6649 41.5729 28.6533 42.5019C29.902 43.6715 31.3243 45 34.2171 45C38.4165 45 41.3527 41.9868 41.3527 37.6693C41.3527 33.5972 37.7126 31.5178 34.3087 30.9354H34.3039ZM19.5314 39.8642C19.4735 39.9652 19.406 40.0615 19.3385 40.1578C18.866 39.2336 17.9066 38.5982 16.7977 38.5982C15.6888 38.5982 14.7245 39.2336 14.2568 40.1626C14.1893 40.0663 14.1218 39.97 14.064 39.869C13.794 39.4069 13.6397 38.8678 13.6397 38.2902C13.6397 36.5478 15.0524 35.1374 16.7977 35.1374C18.543 35.1374 19.9556 36.5478 19.9556 38.2902C19.9556 38.863 19.8014 39.4021 19.5314 39.869V39.8642ZM36.9508 39.8642C36.893 39.9652 36.8255 40.0615 36.758 40.1578C36.2855 39.2336 35.326 38.5982 34.2171 38.5982C33.1082 38.5982 32.144 39.2336 31.6763 40.1626C31.6088 40.0663 31.5413 39.97 31.4834 39.869C31.2134 39.4069 31.0592 38.8678 31.0592 38.2902C31.0592 36.5478 32.4718 35.1374 34.2171 35.1374C35.9625 35.1374 37.3751 36.5478 37.3751 38.2902C37.3751 38.863 37.2208 39.4021 36.9508 39.869V39.8642Z" fill="#C8DFC9"/>
</g>
<defs>
<clipPath id="clip0_297_1118">
<rect width="51" height="45" fill="white"/>
</clipPath>
</defs>
</svg>
