<svg width="102" height="102" viewBox="0 0 102 102" fill="none" xmlns="http://www.w3.org/2000/svg">
<g clip-path="url(#clip0_372_2014)">
<path d="M5.4739 46.3936L1.17637 45.801L0 45.639L0.542637 41.7476L1.25559 41.8463C1.17637 42.3678 1.0932 42.9644 0.998136 43.6439L0.843663 44.7659L2.98649 45.0622L3.07759 44.4143C3.17661 43.7071 3.25582 43.0948 3.31524 42.5812L4.02819 42.6799C3.94501 43.1935 3.85391 43.8019 3.75489 44.5091L3.66379 45.157L6.08784 45.4929L6.25023 44.3353C6.34925 43.6123 6.43243 43.0039 6.49581 42.51L7.20876 42.6088L6.6582 46.5635L5.48183 46.4015L5.4739 46.3936Z" fill="#FEFFF7"/>
<path d="M8.08399 37.943C7.80276 38.0259 7.577 38.105 7.39876 38.1721L5.30346 38.8714L6.78878 40.4675L7.50966 41.2379L7.23636 42.2572C6.90761 41.9016 6.666 41.6251 6.5036 41.4315L4.47564 39.1598L1.60402 40.1159L0.788086 40.3845L1.06535 39.3494L1.07723 39.3415C1.42578 39.227 1.6872 39.1361 1.86544 39.0768L3.94093 38.3815L2.49522 36.7775L2.30113 36.5721C2.19419 36.4417 2.06744 36.2955 1.92089 36.1414L2.18231 35.1577L2.74475 35.8017L4.75687 38.105L7.67206 37.1291C8.13152 36.9711 8.47215 36.8526 8.70188 36.7815L8.42066 37.8324L8.08795 37.9469L8.08399 37.943Z" fill="#FEFFF7"/>
<path d="M7.92206 35.5368L3.90971 33.8894L2.80859 33.439L3.55323 31.6295C3.88595 30.8236 4.27411 30.2823 4.72169 30.0097C5.1653 29.7371 5.67229 29.7134 6.23474 29.9465C6.80906 30.1836 7.16554 30.5708 7.30417 31.116C7.4428 31.6612 7.34378 32.3446 7.00314 33.1703L6.67439 33.9644L8.29042 34.6282L9.39154 35.0785L9.01526 35.9872L7.91414 35.5368H7.92206ZM6.34564 32.9096C6.57141 32.3565 6.64666 31.914 6.56349 31.5782C6.48031 31.2424 6.25058 30.9935 5.86638 30.8394C5.50594 30.6893 5.19303 30.7011 4.92369 30.875C4.65831 31.0448 4.4167 31.3925 4.20282 31.9101L3.83446 32.8029L6.01689 33.6958L6.34168 32.9096H6.34564Z" fill="#FEFFF7"/>
<path d="M11.597 29.5593C11.0662 29.8674 10.4959 30.0097 9.88985 29.9939C9.28384 29.9781 8.68575 29.7924 8.1035 29.4408C7.52126 29.0891 7.0816 28.6546 6.78454 28.1331C6.48747 27.6116 6.35677 27.0427 6.38449 26.4303C6.41222 25.8179 6.61026 25.2095 6.97466 24.609C7.33906 24.0085 7.78664 23.5502 8.31739 23.2421C8.84815 22.9299 9.41455 22.7838 10.0166 22.8035C10.6186 22.8233 11.2167 23.009 11.8029 23.3606C12.3852 23.7122 12.8248 24.1468 13.1219 24.6722C13.419 25.1977 13.5536 25.7666 13.5259 26.3789C13.4982 26.9913 13.3002 27.5997 12.9358 28.2002C12.5714 28.8007 12.1238 29.2551 11.593 29.5632L11.597 29.5593ZM10.0126 29.0417C10.4721 29.0694 10.8959 28.9746 11.292 28.7612C11.6841 28.5479 12.0089 28.2239 12.2703 27.7933C12.5317 27.3587 12.6664 26.9202 12.6704 26.4738C12.6704 26.0273 12.5555 25.6085 12.3179 25.2174C12.0802 24.8263 11.7277 24.4905 11.2682 24.2139C10.8127 23.9413 10.3572 23.7873 9.89777 23.7635C9.44227 23.7359 9.01846 23.8307 8.62634 24.0401C8.23421 24.2534 7.90942 24.5774 7.64405 25.012C7.37867 25.4466 7.24796 25.8851 7.24004 26.3276C7.23212 26.7701 7.35094 27.1888 7.58859 27.5839C7.82624 27.975 8.17876 28.3108 8.63822 28.5874C9.09372 28.86 9.55318 29.0141 10.0126 29.0417Z" fill="#FEFFF7"/>
<path d="M15.269 23.6728C14.659 23.7637 14.0491 23.6017 13.4351 23.1948L14.0253 22.4876C14.4412 22.7563 14.8492 22.8708 15.2492 22.8392C15.6532 22.8037 16.0097 22.5982 16.3226 22.2229C16.5801 21.9147 16.7108 21.6145 16.7187 21.3182C16.7266 21.0219 16.6078 20.773 16.3583 20.5715C16.1919 20.4332 16.0137 20.3542 15.8235 20.3424C15.6334 20.3305 15.4116 20.3661 15.1581 20.453C14.9046 20.5399 14.5204 20.6979 14.0134 20.9192C13.5857 21.1167 13.2213 21.2589 12.9123 21.3458C12.6034 21.4328 12.3182 21.4604 12.0568 21.4249C11.7914 21.3893 11.5458 21.2787 11.3121 21.0851C11.0586 20.8718 10.8923 20.6189 10.8131 20.3266C10.7378 20.0303 10.7457 19.7181 10.8447 19.3863C10.9438 19.0544 11.126 18.7305 11.3913 18.4104C11.827 17.889 12.3103 17.5847 12.8489 17.4939C13.3836 17.403 13.9263 17.5334 14.4689 17.8771L13.8906 18.5724C13.546 18.3551 13.2094 18.2682 12.8727 18.3038C12.536 18.3393 12.231 18.529 11.9498 18.8648C11.7042 19.1611 11.5775 19.4337 11.5735 19.6865C11.5696 19.9394 11.6686 20.1527 11.8746 20.3226C12.037 20.4569 12.2112 20.532 12.3974 20.5399C12.5836 20.5478 12.7935 20.5122 13.0272 20.4293C13.2609 20.3463 13.5975 20.2041 14.0372 20.0026C14.5244 19.7853 14.9284 19.6312 15.2453 19.5364C15.5621 19.4416 15.8592 19.4139 16.1325 19.4495C16.4058 19.485 16.6712 19.6075 16.9207 19.813C17.2059 20.05 17.396 20.3305 17.4871 20.6466C17.5782 20.9666 17.5742 21.2984 17.4713 21.65C17.3683 22.0017 17.1742 22.3454 16.893 22.6812C16.4137 23.258 15.8671 23.5899 15.2571 23.6807L15.269 23.6728Z" fill="#FEFFF7"/>
<path d="M18.3067 19.1372L15.245 16.0715L14.4053 15.23L15.1024 14.5386L15.9421 15.3761L19.0038 18.4419L19.8435 19.2834L19.1464 19.9748L18.3067 19.1372Z" fill="#FEFFF7"/>
<path d="M16.2871 13.3417L20.1529 10.1455L20.6044 10.6907C20.1727 11.0305 19.6736 11.4374 19.1112 11.9036L19.0359 11.9668L22.1215 15.6765L22.8819 16.5892L22.1294 17.2094L21.3689 16.2968L18.2834 12.5871L18.216 12.6424C17.6457 13.1125 17.1545 13.5273 16.7386 13.8869L16.2871 13.3417Z" fill="#FEFFF7"/>
<path d="M24.6838 13.7484L22.228 10.1809L21.5547 9.2011L22.3667 8.64404L23.04 9.62383L25.4957 13.1913L26.1691 14.1711L25.3571 14.7282L24.6838 13.7484Z" fill="#FEFFF7"/>
<path d="M28.514 12.3146C27.9001 12.3028 27.3376 12.1329 26.8267 11.801C26.3157 11.4731 25.9038 11.0069 25.5909 10.4025C25.274 9.80197 25.1275 9.20146 25.1473 8.60095C25.1671 8.00044 25.3493 7.44733 25.6939 6.93769C26.0385 6.42805 26.5217 6.01322 27.1475 5.68531C27.7694 5.36135 28.3912 5.20332 29.0052 5.21122C29.6191 5.21912 30.1815 5.389 30.6885 5.71691C31.1955 6.04482 31.6074 6.51101 31.9243 7.11942C32.2372 7.71993 32.3877 8.32045 32.3679 8.92491C32.3481 9.52937 32.1699 10.0825 31.8253 10.5921C31.4807 11.1018 30.9975 11.5166 30.3756 11.8445C29.7498 12.1685 29.1319 12.3265 28.518 12.3146H28.514ZM27.4327 11.0504C27.8129 11.3112 28.2249 11.4534 28.6724 11.4731C29.12 11.4929 29.5676 11.3862 30.0112 11.1531C30.4627 10.9161 30.8034 10.6119 31.041 10.2326C31.2787 9.85333 31.3935 9.43455 31.3935 8.97627C31.3935 8.51798 31.2668 8.04785 31.0173 7.57376C30.7717 7.10362 30.4588 6.7362 30.0825 6.4794C29.7062 6.21866 29.2943 6.08038 28.8507 6.05668C28.4071 6.03692 27.9595 6.14359 27.5079 6.37669C27.0564 6.61373 26.7158 6.91794 26.4781 7.29326C26.2405 7.66857 26.1216 8.08735 26.1256 8.54564C26.1256 9.00392 26.2524 9.47406 26.5019 9.94815C26.7475 10.4183 27.0604 10.7857 27.4366 11.0465L27.4327 11.0504Z" fill="#FEFFF7"/>
<path d="M33.8655 4.38159L35.1369 8.26121L35.5053 9.38717L34.5863 9.68742L34.218 8.56146L32.8713 4.44875L32.5029 3.32279L33.4813 3.00278L38.1511 7.00092L36.8836 3.14106L36.5153 2.0151L37.4342 1.71484L37.8026 2.8408L39.5176 8.08342L38.5393 8.40343L33.8615 4.38949L33.8655 4.38159Z" fill="#FEFFF7"/>
<path d="M43.5532 6.06441L43.0264 1.76996L42.8838 0.592643L43.8621 0.474121L44.0047 1.65144L44.583 6.38837L45.6564 6.25799C46.4486 6.16318 47.11 6.07626 47.6368 6.0012L47.7279 6.75579L43.6958 7.24568L43.5532 6.06836V6.06441Z" fill="#FEFFF7"/>
<path d="M49.0551 6.17499C48.6115 5.72066 48.3896 4.99373 48.3936 3.99024L48.4055 1.18522V0H49.3957V1.18522L49.3799 4.0337C49.3799 4.75273 49.5026 5.27423 49.7601 5.59424C50.0176 5.91425 50.4176 6.07623 50.9682 6.07623C51.5187 6.07623 51.9227 5.9182 52.1802 5.59424C52.4376 5.27028 52.5683 4.75668 52.5723 4.04555L52.5842 1.19707V0.0158029H53.5546V1.20102L53.5388 4.00604C53.5388 4.99768 53.313 5.72066 52.8694 6.17499C52.4258 6.62933 51.7881 6.85847 50.9563 6.85452C50.1324 6.85452 49.4987 6.62538 49.0551 6.17104V6.17499Z" fill="#FEFFF7"/>
<path d="M55.2458 5.64968L55.9271 1.37498L56.1132 0.205566L58.2323 0.541379C59.0046 0.663851 59.6582 0.908797 60.2048 1.28017C60.7474 1.65153 61.1395 2.10982 61.3812 2.65897C61.6228 3.20812 61.6901 3.80863 61.5871 4.46051C61.4802 5.12028 61.2306 5.67338 60.8346 6.11981C60.4385 6.56625 59.9236 6.8823 59.2898 7.06799C58.66 7.24972 57.959 7.28133 57.1866 7.15886L55.0557 6.81909L55.2418 5.64968H55.2458ZM57.2658 6.43587C57.852 6.52674 58.3788 6.50303 58.8541 6.35686C59.3294 6.21068 59.7176 5.96178 60.0186 5.61017C60.3196 5.25855 60.5137 4.82397 60.5929 4.31433C60.6761 3.80073 60.6286 3.3306 60.4504 2.89997C60.2721 2.46934 59.983 2.10982 59.579 1.82537C59.175 1.54091 58.6799 1.35128 58.0897 1.25646L56.9688 1.07868L56.1409 6.26204L57.2619 6.43982L57.2658 6.43587Z" fill="#FEFFF7"/>
<path d="M62.5737 7.04807L63.7342 2.88004L64.0511 1.73828L65.0017 2.00298L64.6848 3.14474L63.5243 7.31672L63.2074 8.45848L62.2568 8.19773L62.5737 7.05597V7.04807Z" fill="#FEFFF7"/>
<path d="M66.1341 9.05528C65.7499 8.57725 65.5202 8.03995 65.4449 7.43548C65.3697 6.83497 65.4648 6.21866 65.7222 5.59049C65.9797 4.96233 66.348 4.46453 66.8194 4.09316C67.2907 3.7218 67.8333 3.50451 68.4473 3.44129C69.0612 3.37808 69.691 3.47685 70.3406 3.7455C70.9901 4.01415 71.513 4.38552 71.9011 4.85961C72.2893 5.3337 72.519 5.87099 72.5943 6.47151C72.6656 7.06807 72.5705 7.68438 72.3131 8.3165C72.0833 8.8696 71.7625 9.31998 71.3387 9.6716C70.9189 10.0232 70.4396 10.2563 69.9088 10.3709L70.4 12.2672L70.3564 12.3739L69.4771 12.0144L69.085 10.4538C68.6334 10.4617 68.17 10.363 67.6868 10.1654C67.0372 9.89679 66.5183 9.52542 66.1341 9.04738V9.05528ZM66.4074 7.41573C66.451 7.87402 66.6055 8.28094 66.8788 8.63256C67.1521 8.98812 67.5204 9.26072 67.9839 9.45036C68.2849 9.57283 68.5859 9.65184 68.8909 9.69135L68.1779 6.86263L69.0889 7.23795L69.7068 9.61629C70.0673 9.52147 70.3841 9.33184 70.6654 9.04343C70.9466 8.75898 71.1842 8.38366 71.3744 7.91747C71.5764 7.42758 71.6556 6.9535 71.616 6.49916C71.5724 6.04483 71.4179 5.64185 71.1486 5.28629C70.8792 4.93072 70.5069 4.65812 70.0395 4.46453C69.5682 4.27095 69.1127 4.20379 68.6731 4.267C68.2334 4.32626 67.8333 4.50799 67.4808 4.80035C67.1283 5.09665 66.8511 5.49172 66.6451 5.98952C66.4431 6.47941 66.3639 6.9535 66.4035 7.41178L66.4074 7.41573Z" fill="#FEFFF7"/>
<path d="M72.8363 11.876C72.6937 11.2558 72.8878 10.5209 73.4186 9.67151L74.8999 7.28527L75.5257 6.27783L76.3615 6.79538L75.7357 7.80281L74.2305 10.2246C73.8503 10.837 73.6839 11.3466 73.7354 11.7535C73.7869 12.1605 74.0444 12.5081 74.5118 12.7965C74.9791 13.0849 75.4069 13.16 75.799 13.0178C76.1872 12.8795 76.5714 12.5081 76.9437 11.9037L78.4488 9.48188L79.0747 8.47444L79.8985 8.98408L79.2727 9.99152L77.7913 12.3778C77.2685 13.2193 76.6981 13.721 76.0803 13.8751C75.4663 14.0331 74.8009 13.8909 74.0919 13.4524C73.3948 13.0217 72.9749 12.4963 72.8324 11.876H72.8363Z" fill="#FEFFF7"/>
<path d="M78.3619 14.7164L81.1147 11.3741L81.8713 10.4575L84.9172 12.9504L84.4617 13.5035C84.0577 13.1677 83.5903 12.7806 83.0595 12.346L82.1802 11.6269L80.8058 13.2941L81.3128 13.709C81.8673 14.1633 82.3466 14.5465 82.7585 14.8705L82.303 15.4236C81.9069 15.0838 81.4356 14.6888 80.881 14.2344L80.3741 13.8196L78.8214 15.708L79.7245 16.4508C80.2909 16.913 80.7701 17.3041 81.1583 17.6123L80.7028 18.1654L77.6094 15.633L78.3619 14.7164Z" fill="#FEFFF7"/>
<path d="M83.8953 20.7214C83.9112 20.109 84.1726 19.5322 84.6836 19.0028L85.2816 19.7021C84.945 20.0655 84.7628 20.4448 84.7271 20.8478C84.6915 21.2508 84.8341 21.6379 85.1509 22.0093C85.4123 22.3135 85.6856 22.4952 85.9748 22.5545C86.2639 22.6098 86.5293 22.5348 86.7749 22.3293C86.9412 22.1871 87.0482 22.0251 87.0957 21.8434C87.1432 21.6616 87.1432 21.4365 87.0997 21.1718C87.0561 20.9071 86.969 20.5041 86.8343 19.9668C86.7115 19.5124 86.6323 19.1292 86.6006 18.8132C86.5689 18.4971 86.5887 18.2127 86.6679 17.9598C86.7472 17.707 86.9016 17.4818 87.1314 17.2882C87.3849 17.0748 87.6621 16.9524 87.9671 16.9287C88.2721 16.905 88.5771 16.9682 88.89 17.1223C89.1989 17.2763 89.4881 17.5134 89.7574 17.8255C90.1971 18.343 90.4149 18.8724 90.4109 19.4137C90.407 19.9549 90.1891 20.4646 89.7534 20.9387L89.1672 20.2512C89.4405 19.951 89.5871 19.6349 89.6069 19.2991C89.6267 18.9633 89.496 18.6314 89.2148 18.2956C88.9652 18.0033 88.7157 17.8334 88.4662 17.786C88.2166 17.7386 87.9909 17.8018 87.7889 17.9717C87.6265 18.1099 87.5235 18.268 87.4878 18.4497C87.4482 18.6314 87.4482 18.8408 87.4878 19.0858C87.5274 19.3307 87.6146 19.6863 87.7374 20.1525C87.8681 20.67 87.9513 21.0927 87.9909 21.4207C88.0305 21.7486 88.0067 22.0449 87.9235 22.3056C87.8404 22.5703 87.678 22.8074 87.4284 23.0167C87.1432 23.2577 86.8383 23.396 86.5055 23.4316C86.1768 23.4671 85.8441 23.4039 85.5153 23.2419C85.1866 23.08 84.8816 22.8311 84.5964 22.4992C84.1092 21.9263 83.8755 21.3377 83.8914 20.7214H83.8953Z" fill="#FEFFF7"/>
<path d="M87.6496 25.2767C87.7922 24.6564 88.2834 24.0796 89.131 23.5384L91.4996 22.0292L92.5017 21.3892L93.0324 22.2149L92.0303 22.8549L89.6221 24.3878C89.0122 24.7749 88.6438 25.1621 88.5131 25.5493C88.3824 25.9365 88.4656 26.3631 88.7626 26.8254C89.0597 27.2876 89.4122 27.5404 89.8241 27.58C90.2361 27.6195 90.7431 27.4496 91.3411 27.0703L93.7493 25.5374L94.7514 24.8974L95.2743 25.7113L94.2722 26.3513L91.9036 27.8605C91.0678 28.3938 90.3351 28.5992 89.7132 28.4768C89.0914 28.3543 88.5527 27.9395 88.1051 27.2402C87.6615 26.5488 87.511 25.893 87.6536 25.2767H87.6496Z" fill="#FEFFF7"/>
<path d="M91.4162 30.2191L95.3652 28.4255L96.4465 27.9316L97.3219 29.8477C97.6387 30.547 97.7496 31.1475 97.6506 31.6493C97.5516 32.151 97.2506 32.5184 96.7436 32.7476C96.296 32.9491 95.8603 32.9728 95.4405 32.8147C95.0166 32.6567 94.6562 32.3446 94.3591 31.8784L92.446 35.1812L92.3906 35.2089L91.9391 34.2173L93.8799 31.108L93.5313 30.3416L91.8281 31.1159L90.7468 31.6098L90.3389 30.7169L91.4202 30.2231L91.4162 30.2191ZM94.5453 30.8789C94.779 31.3925 95.0444 31.7322 95.3335 31.8982C95.6227 32.0602 95.9514 32.0602 96.3158 31.8942C96.6485 31.7441 96.8426 31.5189 96.8901 31.2186C96.9377 30.9223 96.8505 30.5233 96.6208 30.0216L96.2089 29.1208L94.1651 30.0492L94.5453 30.8789Z" fill="#FEFFF7"/>
<path d="M94.6175 38.2982L98.8278 37.2513L99.9805 36.9668L100.218 37.9189L99.0655 38.2034L94.4273 39.357L94.6887 40.4039C94.8828 41.1783 95.0492 41.8183 95.1878 42.3319L94.4471 42.5176L93.4648 38.5826L94.6175 38.2942V38.2982Z" fill="#FEFFF7"/>
<path d="M95.7858 43.399L100.087 42.8498L101.268 42.6997L101.771 46.5951L101.058 46.686C100.998 46.1645 100.923 45.564 100.836 44.8845L100.689 43.7625L98.5426 44.039L98.6257 44.6909C98.7168 45.3981 98.8 46.0104 98.8792 46.524L98.1663 46.6149C98.1108 46.0973 98.0395 45.485 97.9484 44.7778L97.8653 44.1299L95.4372 44.442L95.5878 45.5995C95.6828 46.3265 95.762 46.9349 95.8294 47.4248L95.1164 47.5156L94.6055 43.557L95.7858 43.4069V43.399Z" fill="#FEFFF7"/>
<path d="M95.6391 48.9061C96.0471 48.4479 96.6174 48.1753 97.3502 48.0923L97.3581 49.0128C96.867 49.076 96.4788 49.2498 96.1936 49.5343C95.9084 49.8188 95.7698 50.2059 95.7738 50.6958C95.7738 51.0948 95.8728 51.4109 96.055 51.64C96.2372 51.8692 96.4907 51.9838 96.8115 51.9798C97.0294 51.9798 97.2155 51.9205 97.37 51.8139C97.5245 51.7033 97.6671 51.5334 97.8057 51.3003C97.9443 51.0672 98.1344 50.7037 98.38 50.2059C98.5781 49.7792 98.7642 49.4355 98.9464 49.1708C99.1247 48.9061 99.3267 48.7046 99.5485 48.5585C99.7703 48.4162 100.036 48.3412 100.337 48.3412C100.665 48.3412 100.959 48.4241 101.208 48.6019C101.458 48.7758 101.652 49.0247 101.79 49.3407C101.929 49.6568 102 50.0242 102.004 50.4351C102.008 51.1146 101.834 51.6598 101.485 52.0707C101.133 52.4815 100.638 52.7344 100 52.8213L99.9921 51.9205C100.392 51.8652 100.709 51.7151 100.943 51.4702C101.172 51.2252 101.287 50.8855 101.287 50.4509C101.287 50.0676 101.204 49.7753 101.042 49.5817C100.879 49.3842 100.665 49.2894 100.4 49.2894C100.186 49.2894 100.008 49.3486 99.8614 49.4632C99.7148 49.5778 99.5762 49.7397 99.4534 49.9531C99.3267 50.1664 99.1643 50.4904 98.9583 50.9289C98.7246 51.4069 98.5187 51.7862 98.3365 52.0628C98.1543 52.3393 97.9483 52.5527 97.7146 52.6988C97.4809 52.849 97.2036 52.924 96.8789 52.928C96.5065 52.928 96.1817 52.8411 95.9045 52.6554C95.6272 52.4736 95.4173 52.2129 95.2707 51.8771C95.1242 51.5413 95.0489 51.1541 95.045 50.7195C95.041 49.9689 95.2391 49.3644 95.647 48.9061H95.6391Z" fill="#FEFFF7"/>
<path d="M95.9752 56.9853L100.269 57.6016L101.445 57.7715L101.306 58.7434L100.13 58.5735L95.8365 57.9572L94.6602 57.7873L94.7988 56.8154L95.9752 56.9853Z" fill="#FEFFF7"/>
<path d="M99.3184 61.6907L95.3575 60.6794L94.2049 60.387L94.4426 59.4507L95.5952 59.743L99.7976 60.8137L100.95 61.106L100.697 62.1016L94.807 63.8874L98.752 64.8948L99.9046 65.1871L99.663 66.1235L98.5104 65.8311L93.1553 64.4681L93.4088 63.4725L99.3144 61.6907H99.3184Z" fill="#FEFFF7"/>
<path d="M99.0487 67.9646L97.1435 72.5988L96.4861 72.3302C96.7039 71.8285 96.9534 71.2358 97.2307 70.5603L97.2663 70.4694L92.7906 68.6402L91.6895 68.1898L92.0578 67.2891L93.1589 67.7394L97.6347 69.5686L97.6664 69.4857C97.9476 68.8022 98.1853 68.2056 98.3833 67.692L99.0408 67.9607L99.0487 67.9646Z" fill="#FEFFF7"/>
<path d="M91.4795 71.5397L95.27 73.6454L96.3078 74.2222L94.3907 77.6554L93.7649 77.3077C94.0263 76.8534 94.3234 76.324 94.6601 75.7274L95.2146 74.7397L93.3252 73.6889L93.0044 74.2617C92.6559 74.8859 92.3588 75.4272 92.1172 75.8855L91.4914 75.5378C91.7568 75.0914 92.0617 74.5541 92.4103 73.9298L92.7311 73.357L90.5923 72.1678L90.0219 73.1871C89.6654 73.8271 89.3684 74.3644 89.1307 74.799L88.5049 74.4513L90.4536 70.9668L91.4914 71.5436L91.4795 71.5397Z" fill="#FEFFF7"/>
<path d="M88.8261 76.1109L92.3235 78.6709L93.282 79.3742L92.0304 81.073C91.5749 81.6893 91.1036 82.0804 90.6164 82.2384C90.1292 82.3965 89.6618 82.3135 89.2143 81.9856C88.8182 81.6972 88.5884 81.3298 88.5171 80.8833C88.4498 80.4369 88.5449 79.9707 88.8102 79.4848L84.988 79.4295L84.9365 79.3939L85.5821 78.5169L89.2499 78.6907L89.749 78.0151L88.2399 76.9089L87.2814 76.2057L87.8636 75.4155L88.8221 76.1188L88.8261 76.1109ZM89.7767 79.1569C89.44 79.6152 89.2697 80.0063 89.2697 80.3381C89.2697 80.67 89.4281 80.9545 89.7529 81.1915C90.05 81.4088 90.3391 81.4641 90.6243 81.3614C90.9095 81.2587 91.2145 80.9861 91.5393 80.5436L92.1294 79.7455L90.3193 78.422L89.7767 79.1569Z" fill="#FEFFF7"/>
<path d="M85.2375 80.4766L87.6339 85.5296C87.7725 85.8101 87.8557 85.976 87.8794 86.0274L87.2576 86.6714L81.5698 84.2022L81.1658 84.0204C81.0272 83.9691 80.8687 83.9019 80.6865 83.815L81.4193 83.0565C81.7876 83.2382 82.0728 83.3765 82.2788 83.4673L83.1026 83.8427L84.9444 81.9384L84.5484 81.1364L84.1087 80.2791L84.8058 79.5601L85.2415 80.4727L85.2375 80.4766ZM83.7839 84.1548L86.7308 85.5059L85.2811 82.6061L83.7839 84.1548Z" fill="#FEFFF7"/>
<path d="M79.4034 85.2567C80.0095 85.1777 80.5877 85.2646 81.1343 85.5175C81.6809 85.7664 82.1562 86.1575 82.5602 86.679C82.9722 87.2163 83.2217 87.7813 83.3088 88.3739C83.396 88.9665 83.3168 89.5393 83.0672 90.0885C82.8217 90.6416 82.4216 91.1275 81.8671 91.5542C81.1977 92.0678 80.4927 92.3404 79.752 92.372C79.0153 92.4036 78.3182 92.1508 77.6726 91.6056L78.4766 90.9932C78.9361 91.3409 79.4232 91.5068 79.9302 91.491C80.4412 91.4752 80.9284 91.2895 81.3918 90.9339C81.7918 90.6297 82.0691 90.2702 82.2315 89.8633C82.3939 89.4524 82.4335 89.0257 82.3543 88.5833C82.2751 88.1408 82.077 87.7141 81.7641 87.3072C81.4591 86.9081 81.1027 86.6039 80.6907 86.3945C80.2828 86.1812 79.855 86.0903 79.4034 86.1219C78.9559 86.1536 78.5241 86.3274 78.1082 86.6434C77.5933 87.0385 77.2804 87.5166 77.1695 88.0776C77.0626 88.6386 77.1537 89.2035 77.4468 89.7685L76.6427 90.3808C76.3575 89.8435 76.207 89.3102 76.1951 88.7768C76.1833 88.2474 76.3021 87.7457 76.5477 87.2756C76.7972 86.8054 77.1616 86.3827 77.6448 86.0113C78.2033 85.5846 78.7855 85.3318 79.3955 85.2528L79.4034 85.2567Z" fill="#FEFFF7"/>
<path d="M78.148 94.0749L73.7792 96.5441L73.4307 95.9278C73.9139 95.6671 74.4763 95.3589 75.114 94.9954L75.1972 94.948L72.8128 90.7523L72.2266 89.7212L73.0742 89.2432L73.6604 90.2743L76.0448 94.47L76.124 94.4265C76.7657 94.0631 77.3242 93.7391 77.7995 93.4586L78.148 94.0749Z" fill="#FEFFF7"/>
<path d="M69.9644 92.1943L71.7468 96.1411L72.234 97.2236L71.3349 97.6266L70.8477 96.5441L69.0653 92.5973L68.5781 91.5148L69.4772 91.1118L69.9644 92.1943Z" fill="#FEFFF7"/>
<path d="M65.9368 92.9292C66.5389 93.0516 67.0617 93.3203 67.5053 93.7351C67.9489 94.1499 68.2698 94.6833 68.4757 95.3312C68.6777 95.9791 68.7174 96.5954 68.5906 97.1801C68.4639 97.7688 68.1866 98.2784 67.7588 98.7209C67.3311 99.1595 66.7805 99.4874 66.1071 99.6968C65.4338 99.9061 64.7961 99.9536 64.1941 99.835C63.592 99.7165 63.0692 99.4518 62.6295 99.037C62.1899 98.6261 61.869 98.0928 61.6631 97.4369C61.4611 96.789 61.4215 96.1687 61.5442 95.5801C61.671 94.9914 61.9482 94.4778 62.376 94.0354C62.8038 93.5968 63.3543 93.2689 64.0277 93.0595C64.701 92.8501 65.3348 92.8067 65.9368 92.9252V92.9292ZM66.7765 94.3633C66.4517 94.0393 66.0715 93.826 65.6318 93.7272C65.1961 93.6284 64.7367 93.6561 64.2574 93.8023C63.7702 93.9524 63.3781 94.1934 63.081 94.5252C62.78 94.8571 62.5939 95.2482 62.5107 95.6986C62.4275 96.149 62.4671 96.631 62.6295 97.1446C62.7879 97.6503 63.0296 98.0651 63.3543 98.3891C63.6791 98.7091 64.0594 98.9224 64.4911 99.0212C64.9268 99.1199 65.3863 99.0962 65.8695 98.9422C66.3567 98.792 66.7488 98.551 67.0459 98.2231C67.3469 97.8952 67.537 97.5041 67.6162 97.0537C67.6955 96.6033 67.6558 96.1213 67.4974 95.6077C67.339 95.1021 67.0974 94.6833 66.7726 94.3593L66.7765 94.3633Z" fill="#FEFFF7"/>
<path d="M59.2503 99.7877L58.6918 95.7461L58.5294 94.5728L59.4879 94.4424L59.6503 95.6158L60.2405 99.9023L60.4029 101.076L59.381 101.214L55.4993 96.4494L56.0539 100.475L56.2163 101.649L55.2577 101.779L55.0953 100.606L54.3428 95.1417L55.3607 95.0034L59.2424 99.7877H59.2503Z" fill="#FEFFF7"/>
<path d="M52.4454 95.671C52.9048 96.0819 53.1702 96.6547 53.2454 97.3856H52.3226C52.2632 96.8918 52.0928 96.5046 51.8116 96.2202C51.5304 95.9357 51.1422 95.7895 50.6511 95.7895C50.2471 95.7895 49.9302 95.8804 49.7005 96.0621C49.4707 96.2439 49.3519 96.4967 49.3519 96.8128C49.3519 97.0301 49.4074 97.2157 49.5143 97.3698C49.6252 97.5239 49.7916 97.6701 50.0253 97.8083C50.255 97.9466 50.6194 98.1402 51.1145 98.3891C51.5383 98.5906 51.8829 98.7802 52.1483 98.962C52.4097 99.1437 52.6117 99.3452 52.7543 99.5704C52.8969 99.7956 52.9642 100.056 52.9642 100.361C52.9642 100.688 52.8731 100.981 52.6949 101.226C52.5166 101.475 52.2671 101.664 51.9502 101.799C51.6294 101.933 51.265 102 50.8491 102C50.1679 102 49.6252 101.818 49.2133 101.467C48.8014 101.111 48.5558 100.617 48.4766 99.9773H49.3836C49.4351 100.38 49.5816 100.696 49.8272 100.933C50.0688 101.166 50.4095 101.285 50.8452 101.285C51.2294 101.285 51.5225 101.206 51.7205 101.048C51.9186 100.89 52.0176 100.677 52.0176 100.412C52.0176 100.199 51.9621 100.021 51.8512 99.8706C51.7403 99.7244 51.5779 99.5862 51.364 99.4598C51.1501 99.3333 50.8254 99.1634 50.3897 98.958C49.9104 98.721 49.5341 98.5116 49.2608 98.3259C48.9875 98.1402 48.7736 97.9348 48.6271 97.7017C48.4805 97.4686 48.4053 97.1881 48.4053 96.8641C48.4053 96.4927 48.5003 96.1688 48.6865 95.8962C48.8727 95.6236 49.1341 95.4142 49.4747 95.268C49.8114 95.1258 50.1995 95.0547 50.6392 95.0547C51.3918 95.0547 51.9938 95.2641 52.4533 95.6749L52.4454 95.671Z" fill="#FEFFF7"/>
<path d="M44.3496 96.0188L43.4742 100.258L43.2326 101.419L41.1294 100.989C40.3649 100.831 39.7193 100.554 39.1925 100.163C38.6657 99.772 38.2974 99.2939 38.0795 98.7329C37.8617 98.1719 37.8221 97.5714 37.9567 96.9235C38.0914 96.2716 38.3687 95.7304 38.7845 95.2998C39.2044 94.8691 39.7312 94.5807 40.3689 94.4227C41.0066 94.2686 41.7077 94.2686 42.4721 94.4227L44.5832 94.8573L44.3416 96.0188H44.3496ZM42.3652 95.1417C41.7869 95.0232 41.2561 95.0232 40.7729 95.1496C40.2897 95.2721 39.8936 95.5052 39.5728 95.845C39.2519 96.1847 39.046 96.6074 38.939 97.1131C38.836 97.6228 38.8598 98.0969 39.0182 98.5354C39.1767 98.9739 39.45 99.3453 39.8381 99.6495C40.2303 99.9537 40.7174 100.163 41.2997 100.286L42.4127 100.515L43.4742 95.3748L42.3612 95.1457L42.3652 95.1417Z" fill="#FEFFF7"/>
<path d="M37.1012 94.3237L35.6397 98.3969L35.2396 99.5149L31.5283 98.1914L31.7699 97.5158C32.265 97.6976 32.8354 97.903 33.481 98.1361L34.5505 98.5193L35.2793 96.4847L34.6614 96.2635C33.988 96.0225 33.4058 95.821 32.9107 95.6551L33.1523 94.9795C33.6395 95.1652 34.2177 95.3785 34.8911 95.6195L35.509 95.8407L36.3328 93.5414L35.2278 93.1463C34.5386 92.9014 33.9563 92.696 33.4889 92.534L33.7306 91.8584L37.4973 93.2017L37.0973 94.3197L37.1012 94.3237Z" fill="#FEFFF7"/>
<path d="M32.2456 91.6923C32.4714 92.2652 32.4555 92.8934 32.1941 93.5808L31.3702 93.1699C31.5366 92.7077 31.5604 92.281 31.4336 91.9017C31.3069 91.5185 31.0257 91.2183 30.586 90.997C30.2256 90.8153 29.9008 90.756 29.6156 90.8192C29.3264 90.8785 29.1126 91.0523 28.97 91.3368C28.8709 91.5304 28.8393 91.724 28.867 91.9096C28.8947 92.0953 28.9818 92.3047 29.1244 92.5299C29.271 92.7551 29.5047 93.0909 29.8414 93.5373C30.1305 93.9048 30.3523 94.2327 30.5107 94.5092C30.6652 94.7897 30.7563 95.0584 30.7801 95.3231C30.8078 95.5878 30.7524 95.8525 30.6177 96.1211C30.4672 96.4174 30.2612 96.6347 29.9919 96.7769C29.7225 96.9192 29.4136 96.9784 29.069 96.9587C28.7244 96.9389 28.364 96.8323 27.9956 96.6466C27.3856 96.3424 26.9777 95.9394 26.7717 95.4416C26.5618 94.9398 26.5657 94.3867 26.7756 93.7823L27.5837 94.1853C27.449 94.5685 27.4411 94.9161 27.552 95.2322C27.6629 95.5483 27.9164 95.8051 28.3085 96.0026C28.6531 96.1764 28.9502 96.2357 29.1957 96.1804C29.4453 96.1251 29.6275 95.9828 29.7463 95.7418C29.8414 95.5522 29.873 95.3665 29.8374 95.1848C29.8057 95.0031 29.7186 94.8055 29.5879 94.6001C29.4532 94.3907 29.2393 94.0983 28.9383 93.7151C28.6174 93.2884 28.3719 92.9329 28.2095 92.6484C28.0471 92.36 27.952 92.0795 27.9243 91.8069C27.8966 91.5343 27.956 91.2499 28.1025 90.9615C28.2689 90.6296 28.4986 90.3807 28.7878 90.2187C29.0769 90.0567 29.4057 89.9856 29.774 90.0093C30.1384 90.0291 30.5187 90.1397 30.9108 90.3372C31.5841 90.6731 32.0317 91.1274 32.2575 91.6963L32.2456 91.6923Z" fill="#FEFFF7"/>
<path d="M24.8743 88.3385L22.2681 91.7954L21.5551 92.7436L18.4062 90.381L18.838 89.8082C19.2539 90.1282 19.7371 90.4956 20.2877 90.9065L21.1947 91.586L22.4978 89.8595L21.971 89.4645C21.4007 89.0338 20.9016 88.6704 20.4778 88.3662L20.9095 87.7933C21.3175 88.1133 21.8086 88.4886 22.379 88.9193L22.9018 89.3143L24.3753 87.3627L23.4405 86.6594C22.8543 86.2209 22.3592 85.8535 21.9591 85.5611L22.3909 84.9883L25.5873 87.3864L24.8743 88.3346V88.3385Z" fill="#FEFFF7"/>
<path d="M21.0088 84.3835C21.0563 84.9959 20.8503 85.5924 20.3988 86.1732L19.7334 85.5371C20.0304 85.142 20.177 84.743 20.1691 84.34C20.1651 83.9371 19.9829 83.5657 19.6304 83.2259C19.3413 82.9494 19.0481 82.7953 18.755 82.7676C18.4619 82.74 18.2045 82.8427 17.9827 83.0719C17.8322 83.2299 17.7411 83.3998 17.7133 83.5854C17.6856 83.7711 17.7054 83.9963 17.7767 84.2531C17.848 84.5139 17.9748 84.901 18.1609 85.4265C18.3273 85.865 18.4461 86.2403 18.5095 86.5524C18.5768 86.8646 18.5808 87.149 18.5293 87.4098C18.4778 87.6705 18.3431 87.9075 18.1372 88.1248C17.9074 88.3619 17.642 88.512 17.345 88.5673C17.044 88.6226 16.731 88.591 16.4063 88.4685C16.0815 88.3461 15.7686 88.1406 15.4715 87.8562C14.9803 87.3861 14.711 86.8804 14.6595 86.3431C14.608 85.8058 14.7744 85.2764 15.1586 84.7588L15.8121 85.383C15.5705 85.7109 15.4596 86.0389 15.4715 86.3747C15.4834 86.7105 15.6497 87.0305 15.9666 87.3307C16.2439 87.5954 16.5092 87.7416 16.7627 87.7614C17.0162 87.7851 17.2341 87.6982 17.4202 87.5085C17.5668 87.3544 17.6539 87.1846 17.6737 87.0028C17.6935 86.8171 17.6737 86.6078 17.6064 86.3707C17.5391 86.1337 17.4202 85.786 17.2499 85.3356C17.0677 84.8339 16.941 84.423 16.8697 84.103C16.7984 83.779 16.7905 83.4827 16.8459 83.2141C16.9014 82.9454 17.04 82.6926 17.2658 82.4595C17.5232 82.1908 17.8163 82.021 18.1411 81.9538C18.4659 81.8866 18.7986 81.9143 19.1432 82.0447C19.4878 82.175 19.8166 82.3884 20.1334 82.6926C20.6761 83.2101 20.9692 83.779 21.0167 84.3874L21.0088 84.3835Z" fill="#FEFFF7"/>
<path d="M16.6793 81.0888L13.3047 83.8108L12.3818 84.5575L11.15 83.0365C10.5994 82.3569 10.3103 81.7564 10.2825 81.2389C10.2548 80.7174 10.4806 80.267 10.9519 79.8838C11.4352 79.4927 11.9501 79.3702 12.4967 79.5085C13.0433 79.6467 13.5978 80.0655 14.1602 80.7569L14.7029 81.4246L16.0614 80.3263L16.9843 79.5796L17.6022 80.3421L16.6793 81.0888ZM13.6136 81.2073C13.2373 80.745 12.8809 80.4685 12.5482 80.3776C12.2115 80.2868 11.8827 80.3737 11.5619 80.6305C11.2569 80.8754 11.1183 81.1559 11.1421 81.472C11.1658 81.788 11.3559 82.1634 11.7085 82.5979L12.3184 83.3486L14.1523 81.8671L13.6176 81.2073H13.6136Z" fill="#FEFFF7"/>
<path d="M13.0983 76.4744L9.41868 78.7659L8.40866 79.394L6.32129 76.0596L6.93126 75.6803C7.20456 76.1307 7.52539 76.6443 7.88979 77.2251L8.49184 78.1851L10.3257 77.0433L9.97716 76.4863C9.59692 75.8818 9.26421 75.3603 8.97902 74.9258L9.589 74.5465C9.85437 74.9929 10.1792 75.5184 10.5554 76.1228L10.904 76.6799L12.9795 75.384L12.3576 74.3924C11.9695 73.7721 11.6407 73.2546 11.3714 72.8358L11.9814 72.4565L14.1004 75.8423L13.0904 76.4705L13.0983 76.4744Z" fill="#FEFFF7"/>
<path d="M10.7022 70.6547C10.6349 71.2632 10.417 71.8005 10.0447 72.2746C9.67237 72.7447 9.18519 73.1161 8.57918 73.3847C7.95732 73.6613 7.34735 73.7719 6.74926 73.7166C6.15117 73.6613 5.61249 73.4519 5.13323 73.0845C4.65397 72.717 4.26976 72.2153 3.98458 71.5792C3.63999 70.8088 3.54097 70.0621 3.6796 69.3392C3.81823 68.6162 4.23016 68.0038 4.91142 67.4981L5.32335 68.4186C4.87974 68.7861 4.60248 69.2167 4.49949 69.7145C4.39651 70.2123 4.45988 70.7298 4.69754 71.2632C4.9035 71.7214 5.18472 72.077 5.54516 72.3299C5.9056 72.5827 6.31357 72.721 6.7651 72.7486C7.21664 72.7763 7.6761 72.6815 8.14744 72.476C8.6069 72.2706 8.98715 71.998 9.28817 71.6503C9.5892 71.3027 9.77932 70.9076 9.85061 70.4651C9.92587 70.0226 9.85457 69.5643 9.64465 69.0903C9.37927 68.4977 8.98715 68.0828 8.46431 67.8458C7.94148 67.6087 7.37111 67.5653 6.75322 67.7194L6.34129 66.7988C6.93542 66.6448 7.48994 66.625 8.00881 66.7356C8.52769 66.8462 8.98714 67.0793 9.39115 67.4309C9.79516 67.7826 10.12 68.2329 10.3655 68.79C10.6507 69.43 10.7616 70.0542 10.6943 70.6627L10.7022 70.6547Z" fill="#FEFFF7"/>
<path d="M7.43867 64.9262L3.25996 66.0957L2.11528 66.4157L1.0498 62.6348L1.74295 62.4412C1.88158 62.9469 2.04002 63.5316 2.22618 64.1914L2.53513 65.2818L4.61854 64.6971L4.4403 64.065C4.24622 63.3775 4.07194 62.7849 3.92143 62.2911L4.61458 62.0975C4.74528 62.5993 4.90372 63.1958 5.0978 63.8832L5.27604 64.5154L7.63275 63.8556L7.31588 62.7296C7.11784 62.0264 6.94752 61.4338 6.80889 60.9597L7.50204 60.7661L8.58336 64.6102L7.43867 64.9302V64.9262Z" fill="#FEFFF7"/>
<path d="M6.77717 59.4545C6.4405 59.9681 5.91766 60.3197 5.20075 60.5054L5.06212 59.5968C5.53742 59.4624 5.89786 59.2372 6.13551 58.9133C6.37712 58.5893 6.4603 58.1864 6.38504 57.7004C6.32563 57.3053 6.187 57.0051 5.96915 56.8075C5.75131 56.61 5.48593 56.531 5.17302 56.5824C4.95517 56.614 4.7809 56.6969 4.64623 56.8273C4.51156 56.9577 4.39273 57.1473 4.28975 57.3962C4.18677 57.6451 4.0521 58.0323 3.88178 58.5617C3.74711 59.0121 3.61244 59.3795 3.47381 59.6679C3.33518 59.9563 3.16487 60.1854 2.96682 60.3593C2.76482 60.5331 2.51529 60.6437 2.21822 60.6872C1.88947 60.7385 1.59241 60.6951 1.31911 60.5568C1.04581 60.4185 0.820038 60.2052 0.633878 59.9089C0.451679 59.6126 0.328892 59.2649 0.265518 58.854C0.162536 58.1824 0.253636 57.6174 0.542778 57.1592C0.831921 56.7009 1.28346 56.3809 1.90135 56.2031L2.03998 57.096C1.65182 57.2105 1.35872 57.4041 1.16463 57.6767C0.970551 57.9533 0.907177 58.3049 0.974512 58.7355C1.03392 59.1148 1.15671 59.3913 1.34287 59.5612C1.52903 59.7311 1.7548 59.7982 2.02018 59.7587C2.2301 59.7271 2.40042 59.6442 2.53113 59.5098C2.66184 59.3755 2.77274 59.1977 2.86384 58.9646C2.9589 58.7355 3.07377 58.3878 3.2124 57.9256C3.37479 57.416 3.5253 57.013 3.66393 56.7167C3.80256 56.4164 3.97684 56.1794 4.18677 55.9976C4.39669 55.8159 4.65811 55.7013 4.9829 55.65C5.35126 55.5947 5.68397 55.6342 5.985 55.7764C6.28602 55.9186 6.53159 56.1438 6.72568 56.4559C6.91976 56.768 7.05047 57.1355 7.1178 57.57C7.23267 58.3128 7.1178 58.937 6.78509 59.4545H6.77717Z" fill="#FEFFF7"/>
<path d="M2.31749 51.8731L2.30957 50.6602L3.50575 50.6523L3.51367 51.8652L2.31749 51.8731Z" fill="#FEFFF7"/>
<path d="M68.269 56.389C67.6709 57.3688 67.0609 58.5382 66.748 59.5496C66.5262 60.2647 67.1718 60.9324 67.8966 60.7348C70.8554 59.9447 73.6082 58.2814 75.7431 55.7806C78.3454 52.7267 79.5653 48.9616 79.4584 45.244C79.4227 44.0509 78.3771 43.1659 77.1928 43.324C73.5012 43.8178 69.9682 45.6233 67.3659 48.6772C65.231 51.182 64.0308 54.1608 63.7258 57.1989C63.6506 57.9417 64.415 58.475 65.0844 58.1392C66.035 57.6651 67.0965 56.8789 67.9679 56.1322C68.1422 55.9821 68.3878 56.1915 68.269 56.389Z" fill="#FEFFF7"/>
<path d="M60.4744 43.4503C60.8982 44.679 61.4963 46.0854 62.1657 47.1008C62.6172 47.7842 63.6431 47.7092 63.9837 46.9625C65.3858 43.877 65.8928 40.3529 65.2393 36.7656C64.4432 32.4001 62.0627 28.714 58.7989 26.1974C57.7652 25.3994 56.2481 25.6759 55.559 26.7861C53.3924 30.2864 52.4655 34.569 53.2617 38.9385C53.9152 42.5258 55.6342 45.6429 58.0345 48.041C58.6167 48.6218 59.603 48.3334 59.7852 47.5314C60.0545 46.3462 60.1179 44.8212 60.0823 43.5214C60.0743 43.2922 60.3991 43.2369 60.4704 43.4503H60.4744Z" fill="#FEFFF7"/>
<path d="M33.3064 56.2742C33.8966 57.258 34.4987 58.4313 34.8076 59.4467C35.0254 60.1618 34.3719 60.8255 33.651 60.6279C30.7002 59.818 27.9553 58.139 25.8402 55.6224C23.2577 52.5526 22.0616 48.7797 22.1923 45.0621C22.2358 43.8729 23.2855 42.9919 24.4698 43.1578C28.1613 43.6753 31.6785 45.5045 34.261 48.5743C36.3801 51.0909 37.5604 54.0776 37.8456 57.1197C37.9169 57.8664 37.1485 58.3918 36.4791 58.0521C35.5324 57.574 34.4749 56.776 33.6075 56.0253C33.4332 55.8752 33.1876 56.0846 33.3064 56.2782V56.2742Z" fill="#FEFFF7"/>
<path d="M41.185 43.387C40.7532 44.6157 40.1472 46.0142 39.4699 47.0256C39.0105 47.7091 37.9886 47.6261 37.6519 46.8755C36.2695 43.7821 35.7824 40.2541 36.4597 36.6708C37.2835 32.3092 39.6878 28.6389 42.9674 26.146C44.0091 25.3559 45.5221 25.6403 46.2034 26.7544C48.3502 30.2706 49.2493 34.5571 48.4254 38.9187C47.7481 42.502 46.0093 45.6113 43.5932 47.9896C43.007 48.5664 42.0247 48.2701 41.8464 47.4681C41.585 46.2789 41.5296 44.754 41.5771 43.4542C41.585 43.225 41.2642 43.1658 41.1889 43.3791L41.185 43.387Z" fill="#FEFFF7"/>
<path d="M60.7077 60.4147C58.8421 60.0947 57.4835 59.0715 56.1725 58.0838C54.6555 56.9381 53.087 55.7607 50.8293 55.7607C48.5716 55.7607 47.0031 56.942 45.4861 58.0838C44.1711 59.0715 42.8125 60.0947 40.9509 60.4147C37.1247 61.0705 33.0371 63.4015 33.0371 67.9725C33.0371 72.8161 36.3325 76.1979 41.0499 76.1979C44.3018 76.1979 45.8941 74.7085 47.2962 73.3929C48.4092 72.3459 49.2925 71.5242 50.8293 71.5242C52.3661 71.5242 53.2494 72.3499 54.3624 73.3929C55.7685 74.7085 57.3607 76.1979 60.6086 76.1979C65.326 76.1979 68.6215 72.8161 68.6215 67.9725C68.6215 63.4015 64.5338 61.0705 60.7077 60.4147ZM44.1196 70.4338C44.0523 70.5483 43.981 70.655 43.9017 70.7617C43.3749 69.7226 42.2936 69.0075 41.046 69.0075C39.7983 69.0075 38.7209 69.7226 38.1902 70.7617C38.111 70.655 38.0397 70.5483 37.9723 70.4338C37.6674 69.9123 37.497 69.3078 37.497 68.6638C37.497 66.7082 39.0853 65.124 41.046 65.124C43.0066 65.124 44.5949 66.7082 44.5949 68.6638C44.5949 69.3078 44.4206 69.9123 44.1196 70.4338ZM63.6823 70.4338C63.6149 70.5483 63.5436 70.655 63.4644 70.7617C62.9376 69.7226 61.8563 69.0075 60.6086 69.0075C59.361 69.0075 58.2836 69.7226 57.7529 70.7617C57.6736 70.655 57.6023 70.5483 57.535 70.4338C57.23 69.9123 57.0597 69.3078 57.0597 68.6638C57.0597 66.7082 58.648 65.124 60.6086 65.124C62.5693 65.124 64.1576 66.7082 64.1576 68.6638C64.1576 69.3078 63.9833 69.9123 63.6823 70.4338Z" fill="#FEFFF7"/>
</g>
<defs>
<clipPath id="clip0_372_2014">
<rect width="102" height="102" fill="white"/>
</clipPath>
</defs>
</svg>
