<svg width="24" height="24" viewBox="0 0 24 24" fill="none" xmlns="http://www.w3.org/2000/svg">
<path fill-rule="evenodd" clip-rule="evenodd" d="M3.37321 3.66349C3.40768 3.48508 3.55955 3.35153 3.74377 3.33762L8.19616 3.00154C8.6291 2.96886 9.01259 3.2743 9.06978 3.69735L9.59929 7.61446C9.63283 7.86259 9.54689 8.11192 9.3668 8.28892L7.62434 10.0015C7.30485 10.3155 7.30485 10.8246 7.62434 11.1386L13.035 16.4565C13.3544 16.7705 13.8724 16.7705 14.1919 16.4565L15.9576 14.7211C16.1244 14.5571 16.3551 14.472 16.5905 14.4874L20.237 14.7268C20.6699 14.7552 21.005 15.1108 21.0005 15.5372L20.9517 20.2473C20.9497 20.4393 20.8099 20.6031 20.6178 20.6384C15.8263 21.5183 10.6763 20.9404 6.87167 17.201C3.06114 13.4559 2.46294 8.37538 3.37321 3.66349Z" stroke="#32405A" stroke-width="2" stroke-linecap="round" stroke-linejoin="round"/>
</svg>
