<svg width="28" height="30" viewBox="0 0 28 30" fill="none" xmlns="http://www.w3.org/2000/svg">
<g filter="url(#filter0_d_297_1139)">
<path fill-rule="evenodd" clip-rule="evenodd" d="M5.37321 3.66349C5.40768 3.48508 5.55955 3.35153 5.74377 3.33762L10.1962 3.00154C10.6291 2.96886 11.0126 3.2743 11.0698 3.69735L11.5993 7.61446C11.6328 7.86259 11.5469 8.11192 11.3668 8.28892L9.62434 10.0015C9.30485 10.3155 9.30485 10.8246 9.62434 11.1386L15.035 16.4565C15.3544 16.7705 15.8724 16.7705 16.1919 16.4565L17.9576 14.7211C18.1244 14.5571 18.3551 14.472 18.5905 14.4874L22.237 14.7268C22.6699 14.7552 23.005 15.1108 23.0005 15.5372L22.9517 20.2473C22.9497 20.4393 22.8099 20.6031 22.6178 20.6384C17.8263 21.5183 12.6763 20.9404 8.87167 17.201C5.06114 13.4559 4.46294 8.37538 5.37321 3.66349Z" stroke="#FEFFF7" stroke-width="2" stroke-linecap="round" stroke-linejoin="round"/>
</g>
<defs>
<filter id="filter0_d_297_1139" x="-2" y="0" width="32" height="32" filterUnits="userSpaceOnUse" color-interpolation-filters="sRGB">
<feFlood flood-opacity="0" result="BackgroundImageFix"/>
<feColorMatrix in="SourceAlpha" type="matrix" values="0 0 0 0 0 0 0 0 0 0 0 0 0 0 0 0 0 0 127 0" result="hardAlpha"/>
<feOffset dy="4"/>
<feGaussianBlur stdDeviation="2"/>
<feComposite in2="hardAlpha" operator="out"/>
<feColorMatrix type="matrix" values="0 0 0 0 0 0 0 0 0 0 0 0 0 0 0 0 0 0 0.25 0"/>
<feBlend mode="normal" in2="BackgroundImageFix" result="effect1_dropShadow_297_1139"/>
<feBlend mode="normal" in="SourceGraphic" in2="effect1_dropShadow_297_1139" result="shape"/>
</filter>
</defs>
</svg>
