<svg width="22" height="28" viewBox="0 0 22 28" fill="none" xmlns="http://www.w3.org/2000/svg">
<path d="M11.1016 12.1114C12.2993 12.1114 13.4701 11.7563 14.466 11.0908C15.4618 10.4254 16.238 9.47966 16.6964 8.37313C17.1547 7.26659 17.2746 6.04899 17.041 4.8743C16.8073 3.69961 16.2305 2.62058 15.3836 1.77368C14.5367 0.926772 13.4577 0.350022 12.283 0.116361C11.1083 -0.117299 9.89072 0.00262382 8.78419 0.460966C7.67765 0.919308 6.73188 1.69548 6.06647 2.69134C5.40106 3.68719 5.0459 4.858 5.0459 6.05571C5.0459 7.66178 5.68391 9.20208 6.81957 10.3377C7.95524 11.4734 9.49553 12.1114 11.1016 12.1114Z" fill="#FEFFF7"/>
<path d="M20.185 27.2508C20.5865 27.2508 20.9715 27.0913 21.2555 26.8073C21.5394 26.5234 21.6989 26.1383 21.6989 25.7368C21.6989 22.9262 20.5824 20.2307 18.5949 18.2433C16.6075 16.2559 13.912 15.1393 11.1014 15.1393C8.29076 15.1393 5.59525 16.2559 3.60784 18.2433C1.62042 20.2307 0.503906 22.9262 0.503906 25.7368C0.503906 26.1383 0.663409 26.5234 0.947325 26.8073C1.23124 27.0913 1.61631 27.2508 2.01783 27.2508H20.185Z" fill="#FEFFF7"/>
</svg>
