<svg width="47" height="42" viewBox="0 0 47 42" fill="#C3E0C7" xmlns="http://www.w3.org/2000/svg">
<g clip-path="url(#clip0_653_1877)">
<path d="M37.1872 25.0592C36.7081 25.8462 36.216 26.7898 35.9634 27.6029C35.7848 28.1768 36.3074 28.716 36.8867 28.5595C39.2647 27.9246 41.4816 26.5854 43.1977 24.5678C45.2926 22.1111 46.2726 19.0761 46.1854 16.0889C46.1593 15.1279 45.3144 14.4148 44.3649 14.5409C41.3945 14.9366 38.5548 16.3933 36.4642 18.85C34.7482 20.8675 33.7813 23.2634 33.5374 25.7114C33.4764 26.3115 34.0905 26.7376 34.6306 26.468C35.3972 26.0854 36.2465 25.4505 36.9477 24.8505C37.087 24.7287 37.2874 24.8983 37.1916 25.0548L37.1872 25.0592Z"/>
<path d="M30.9162 14.6453C31.2559 15.6367 31.735 16.7673 32.2794 17.5847C32.6452 18.1369 33.4684 18.0761 33.7428 17.476C34.8708 14.9932 35.2803 12.1538 34.7533 9.26664C34.113 5.75331 32.201 2.78785 29.5747 0.761602C28.7428 0.118071 27.5233 0.339828 26.9702 1.23555C25.228 4.05317 24.4832 7.50128 25.1235 11.019C25.6505 13.9062 27.0312 16.4194 28.9649 18.3456C29.431 18.8109 30.2236 18.5804 30.3717 17.9369C30.5895 16.9803 30.6418 15.7541 30.6113 14.7106C30.6069 14.5279 30.8639 14.4801 30.9249 14.654L30.9162 14.6453Z"/>
<path d="M9.0641 24.9724C9.53884 25.7638 10.0223 26.7073 10.2705 27.5248C10.4448 28.1031 9.92211 28.6336 9.33849 28.4727C6.9648 27.8205 4.75662 26.4682 3.05367 24.4419C0.980501 21.9722 0.0223163 18.9328 0.126846 15.9412C0.161689 14.9846 1.00663 14.2715 1.96046 14.4063C4.92648 14.8237 7.75748 16.2934 9.835 18.7675C11.538 20.7938 12.4874 23.1983 12.7183 25.6464C12.7749 26.2464 12.1564 26.6682 11.6207 26.3986C10.8585 26.0116 10.0092 25.3724 9.31236 24.768C9.17299 24.6463 8.97264 24.8159 9.06846 24.9724H9.0641Z"/>
<path d="M15.4023 14.5976C15.0538 15.5846 14.566 16.7108 14.0216 17.5283C13.6514 18.0761 12.8282 18.0109 12.5625 17.4065C11.4519 14.915 11.0599 12.0756 11.6044 9.1928C12.2664 5.68382 14.2002 2.72705 16.8395 0.718193C17.6758 0.083359 18.8953 0.309464 19.4397 1.20954C21.1644 4.0402 21.8874 7.49266 21.2254 11.0016C20.681 13.8845 19.2829 16.389 17.3404 18.3022C16.87 18.7675 16.0773 18.5283 15.938 17.8848C15.7246 16.9282 15.6854 15.702 15.7202 14.6541C15.7246 14.4715 15.4676 14.4237 15.4066 14.5932L15.4023 14.5976Z"/>
<path d="M31.108 28.303C29.6098 28.0464 28.5166 27.2203 27.4582 26.4245C26.2387 25.5027 24.9757 24.5548 23.1595 24.5548C21.3433 24.5548 20.0802 25.5027 18.8607 26.4245C17.8023 27.2203 16.7135 28.0421 15.2109 28.303C12.1316 28.8291 8.84766 30.7075 8.84766 34.3861C8.84766 38.2864 11.4957 41.0083 15.2936 41.0083C17.9069 41.0083 19.1873 39.8082 20.3197 38.7516C21.217 37.9081 21.9269 37.2472 23.1638 37.2472C24.4007 37.2472 25.1107 37.9124 26.0035 38.7516C27.1316 39.8082 28.4164 41.0083 31.0296 41.0083C34.8232 41.0083 37.4756 38.2864 37.4756 34.3861C37.4756 30.7075 34.1873 28.8291 31.1124 28.303H31.108ZM17.7631 36.3688C17.7109 36.4601 17.6499 36.5471 17.5889 36.6341C17.1621 35.7992 16.2954 35.2253 15.2936 35.2253C14.2919 35.2253 13.4208 35.7992 12.9983 36.6384C12.9374 36.5515 12.8764 36.4645 12.8241 36.3732C12.5802 35.9558 12.4409 35.4688 12.4409 34.947C12.4409 33.3729 13.717 32.0989 15.2936 32.0989C16.8703 32.0989 18.1464 33.3729 18.1464 34.947C18.1464 35.4644 18.007 35.9514 17.7631 36.3732V36.3688ZM33.4992 36.3688C33.4469 36.4601 33.3859 36.5471 33.3249 36.6341C32.8981 35.7992 32.0314 35.2253 31.0296 35.2253C30.0279 35.2253 29.1568 35.7992 28.7344 36.6384C28.6734 36.5515 28.6124 36.4645 28.5601 36.3732C28.3162 35.9558 28.1769 35.4688 28.1769 34.947C28.1769 33.3729 29.453 32.0989 31.0296 32.0989C32.6063 32.0989 33.8824 33.3729 33.8824 34.947C33.8824 35.4644 33.7431 35.9514 33.4992 36.3732V36.3688Z"/>
</g>
<defs>
<clipPath id="clip0_653_1877">
<rect width="46.0713" height="40.6511" fill="white" transform="translate(0.119141 0.3571)"/>
</clipPath>
</defs>
</svg>
